<?xml version="1.0" encoding="UTF-8"?>
<svg id="Layer_1" data-name="Layer 1" xmlns="http://www.w3.org/2000/svg" viewBox="0 0 32.58 32.59">
  <defs>
    <style>
      .cls-1 {
        fill: #02492e;
      }
    </style>
  </defs>
  <path class="cls-1" d="M16.3,32.59l-.03-6.96h.03c.41,0,.83-.03,1.23-.08l.9,6.9c-.71.09-1.42.14-2.13.14ZM14.8,32.52c-.72-.07-1.45-.18-2.17-.34l1.56-6.77c.4.09.83.16,1.24.2l-.63,6.92ZM19.87,32.2l-1.52-6.78c.4-.09.81-.21,1.2-.35l2.43,6.52c-.69.26-1.39.46-2.11.63h0ZM11.22,31.78c-.7-.22-1.38-.51-2.03-.82l3.04-6.26c.38.18.77.34,1.16.47,0,0-2.17,6.6-2.17,6.6ZM23.32,31l-3-6.27c.38-.18.75-.39,1.09-.62l3.81,5.81c-.61.4-1.25.77-1.91,1.08h0ZM7.9,30.27c-.62-.37-1.22-.79-1.8-1.25l4.35-5.42c.33.27.67.51,1.03.72l-3.58,5.96h0ZM26.41,29.07l-4.32-5.45c.33-.26.64-.54.93-.84l5.01,4.82c-.51.53-1.05,1.02-1.62,1.47ZM5.01,28.05c-.53-.5-1.02-1.05-1.47-1.62l5.44-4.33c.26.33.54.65.84.93l-4.81,5.01h0ZM29,26.5l-5.41-4.36c.26-.33.51-.67.72-1.03l5.96,3.59c-.38.62-.8,1.23-1.26,1.8h0ZM2.68,25.25c-.4-.61-.77-1.25-1.08-1.91l6.27-3c.18.38.39.74.62,1.09,0,0-5.8,3.82-5.8,3.82ZM30.95,23.42l-6.25-3.05c.18-.38.34-.77.47-1.16l6.6,2.17c-.22.69-.51,1.38-.83,2.03h0ZM1.02,21.99c-.26-.68-.46-1.39-.63-2.1l6.78-1.53c.09.4.22.81.36,1.21,0,0-6.52,2.43-6.52,2.43ZM32.17,19.98l-6.77-1.57c.09-.4.16-.82.2-1.24l6.92.64c-.07.72-.18,1.45-.34,2.17ZM.14,18.45c-.09-.71-.14-1.43-.14-2.15v-.12l2.8.09h4.16v.03c0,.41.03.84.08,1.24,0,0-6.9.91-6.9.91ZM25.64,16.35v-.05c0-.42-.03-.84-.09-1.26l6.89-.92c.09.72.15,1.45.15,2.18l-6.96.05h0ZM6.99,15.44L.07,14.82c.07-.72.18-1.45.34-2.16l6.77,1.55c-.09.4-.16.83-.2,1.24ZM25.4,14.21c-.09-.4-.22-.81-.36-1.2l6.51-2.44c.26.68.46,1.39.63,2.1l-6.78,1.54h0ZM7.41,13.39L.8,11.23c.22-.7.5-1.38.82-2.03l6.26,3.03c-.18.38-.34.77-.46,1.16h0ZM24.72,12.25c-.18-.38-.39-.74-.62-1.09l5.8-3.83c.4.61.77,1.25,1.08,1.9l-6.26,3.02h0ZM8.28,11.5l-5.96-3.58c.38-.62.79-1.23,1.25-1.8l5.43,4.35c-.26.33-.5.67-.72,1.03ZM23.6,10.48c-.26-.33-.55-.64-.85-.93l4.8-5.02c.53.5,1.02,1.05,1.47,1.62l-5.43,4.34h0ZM9.55,9.83l-5.02-4.81c.5-.53,1.05-1.02,1.62-1.47l4.33,5.44c-.33.26-.64.55-.93.85h0ZM22.12,9c-.33-.26-.67-.5-1.03-.71l3.57-5.97c.62.37,1.23.79,1.8,1.25,0,0-4.34,5.43-4.34,5.43ZM11.16,8.49l-3.83-5.8c.61-.4,1.25-.77,1.91-1.08l3.01,6.27c-.38.18-.74.39-1.09.62ZM20.35,7.88c-.38-.18-.77-.34-1.16-.46l2.15-6.61c.7.22,1.38.5,2.03.82l-3.02,6.26ZM13.02,7.54l-2.44-6.51c.68-.26,1.39-.46,2.1-.63l1.53,6.78c-.4.09-.81.22-1.2.36h0ZM18.38,7.19c-.4-.09-.83-.15-1.24-.2L17.77.07c.72.07,1.45.18,2.16.34l-1.54,6.77h0ZM15.04,7.04L14.13.15c.71-.09,1.45-.15,2.16-.15v6.96h0c-.42,0-.84.03-1.25.09Z"/>
  <path class="cls-1" d="M21.37,12.52v8.02c0,.05-.04.09-.09.09h0s-.08-.03-.09-.07c-.02-.08-.09-.11-.17-.11-.1,0-.7.46-1.21.61-.52.15-.35-.09-.22-.22.13-.12.43-.31.42-.53,0-.23-.13-.16-.43.11-.15.14-.62.37-.8.52-.19.15-.29,1.24-.96,1.19-1.02-.08-1.14-1.51-1.14-1.51,0-.79.59-.72.79-.45.34.44.41.41.65.29s.13-.65.19-.74c.05-.09.16-.13.24-.16.07-.03-.24-.37.03-.34s.55-.09.4-.33c-.28-.41,0-.86.03-.93,0,0,0,0,0-.02.39-1-.33-2.26-1.35-2.39-1.03-.13-1.72.59-2.12,1.33-.32.59-.1,1.14-1.38,1.4-1.52.32-2.42,1.52-2.76,2.07-.05.08-.17.04-.17-.05v-7.97s.03-.08.06-.09l5-1.79h.06l4.96,1.96s.06.04.06.09h0Z"/>
</svg>