<?xml version="1.0" encoding="UTF-8"?>
<svg id="Layer_1" data-name="Layer 1" xmlns="http://www.w3.org/2000/svg" viewBox="0 0 153.5 33.22">
  <defs>
    <style>
      .cls-1 {
        fill: #fff;
      }
    </style>
  </defs>
  <g>
    <g>
      <path class="cls-1" d="M9.67,31.89h-.02c-.99.88-2.31,1.33-3.72,1.33-3.06,0-5.59-2.11-5.59-5.95s2.54-5.95,5.59-5.95,5.59,2.11,5.59,5.95c0,1.54-.4,2.82-1.1,3.77,0,.33.09.4.42.4h.96v1.52h-.91c-.83,0-1.22-.49-1.22-1.08h0ZM5.93,31.68c.9,0,1.69-.26,2.32-.81,0-.33-.09-.4-.42-.4h-1.08v-1.48h.9c.84,0,1.22.47,1.22,1.08h.05c.42-.7.66-1.63.66-2.78,0-2.97-1.59-4.41-3.66-4.41s-3.66,1.43-3.66,4.41,1.61,4.41,3.66,4.41h0Z"/>
      <path class="cls-1" d="M15.38,33.22c-1.72,0-3.07-.97-3.07-2.84,0-2.03,1.63-2.82,3.4-2.82h1.43c.9,0,1.32-.37,1.32-1.02,0-.9-.81-1.33-1.85-1.33-1.23,0-2.07.62-2.14,1.7h-1.81c.13-1.92,1.38-3.15,3.93-3.15s3.62,1.3,3.62,3.07v4.06c0,.42.16.59.59.59h.37v1.48h-1.17c-.93,0-1.46-.51-1.46-1.33v-.42h-.03c-.57,1.37-1.72,2.01-3.12,2.01ZM15.84,31.76c1.35,0,2.62-.88,2.62-2.84v-.93h-.03c-.29.62-.83.91-1.83.93l-.7.02c-1.23.02-1.72.65-1.72,1.41s.49,1.41,1.67,1.41Z"/>
      <path class="cls-1" d="M24.68,20.26h3.53v1.48h-3.28c-.78,0-1.22.47-1.22,1.38v.9h3.57c.49,0,.86.37.86.86v8.07h-1.77v-7.46h-2.67v7.46h-1.76v-7.46h-1.14v-1.48h1.14v-1.01c0-1.76.97-2.75,2.73-2.75h0Z"/>
      <path class="cls-1" d="M29.66,20.26h1.76v12.69h-1.76s0-12.69,0-12.69Z"/>
      <path class="cls-1" d="M35.36,33.22c-1.72,0-3.07-.97-3.07-2.84,0-2.03,1.63-2.82,3.4-2.82h1.43c.9,0,1.32-.37,1.32-1.02,0-.9-.81-1.33-1.85-1.33-1.23,0-2.07.62-2.14,1.7h-1.81c.13-1.92,1.38-3.15,3.93-3.15s3.62,1.3,3.62,3.07v4.06c0,.42.16.59.59.59h.37v1.48h-1.17c-.93,0-1.46-.51-1.46-1.33v-.42h-.03c-.57,1.37-1.72,2.01-3.12,2.01ZM35.81,31.76c1.35,0,2.62-.88,2.62-2.84v-.93h-.03c-.29.62-.83.91-1.83.93l-.7.02c-1.23.02-1.72.65-1.72,1.41s.49,1.41,1.67,1.41Z"/>
      <path class="cls-1" d="M42.34,30.57v-5.07h-1.76v-1.48h1.76v-2.44h1.76v2.44h2.78v1.48h-2.78v4.92c0,.77.39,1.06,1.08,1.06h1.77v1.48h-2.2c-1.58,0-2.4-.8-2.4-2.39h0Z"/>
      <path class="cls-1" d="M54.11,21.58h1.85l4.29,11.38h-1.95l-.99-2.84h-4.55l-1.01,2.84h-1.92l4.28-11.38h0ZM56.78,28.59l-.66-1.89c-.4-1.14-.75-2.2-1.08-3.17h-.02c-.33.97-.66,2.03-1.08,3.2l-.65,1.85h3.49Z"/>
      <path class="cls-1" d="M60.92,20.26h1.76v12.69h-1.76s0-12.69,0-12.69Z"/>
      <path class="cls-1" d="M64.89,30.57v-5.07h-1.76v-1.48h1.76v-2.44h1.76v2.44h2.78v1.48h-2.78v4.92c0,.77.39,1.06,1.08,1.06h1.77v1.48h-2.2c-1.58,0-2.4-.8-2.4-2.39h0Z"/>
      <path class="cls-1" d="M72.73,33.22c-1.72,0-3.07-.97-3.07-2.84,0-2.03,1.63-2.82,3.4-2.82h1.43c.9,0,1.32-.37,1.32-1.02,0-.9-.81-1.33-1.85-1.33-1.23,0-2.07.62-2.14,1.7h-1.81c.13-1.92,1.38-3.15,3.93-3.15s3.62,1.3,3.62,3.07v4.06c0,.42.16.59.59.59h.37v1.48h-1.17c-.93,0-1.46-.51-1.46-1.33v-.42h-.03c-.57,1.37-1.72,2.01-3.12,2.01ZM73.18,31.76c1.35,0,2.62-.88,2.62-2.84v-.93h-.03c-.29.62-.83.91-1.83.93l-.7.02c-1.23.02-1.72.65-1.72,1.41s.49,1.41,1.67,1.41Z"/>
      <path class="cls-1" d="M77.94,24.02h1.85l1.59,6.73h.03l1.52-6.73h2l1.52,6.73h.03l1.59-6.73h1.85l-2.49,8.94h-1.92l-1.59-6.5h-.03l-1.59,6.5h-1.94l-2.45-8.94h.02Z"/>
      <path class="cls-1" d="M90.57,20.26h1.76v3.82c0,.4,0,.71-.03,1.45h.03c.46-1.02,1.41-1.77,2.78-1.77,1.87,0,3.11,1.33,3.11,3.5v5.71h-1.76v-5.29c0-1.77-.77-2.42-1.85-2.42-1.19,0-2.27.77-2.27,2.75v4.98h-1.76v-12.71Z"/>
      <path class="cls-1" d="M99.43,20.74h1.79v1.74h-1.79v-1.74ZM99.45,24.02h1.76v8.94h-1.76s0-8.94,0-8.94Z"/>
      <path class="cls-1" d="M102.11,28.49c0-3.11,1.98-4.73,4.08-4.73,1.43,0,2.62.75,3.17,2h.03c-.03-.34-.03-.62-.03-.95v-4.55h1.76v12.69h-1.74v-.77c0-.34,0-.64.02-.97h-.03c-.55,1.25-1.74,2-3.17,2-2.1,0-4.08-1.63-4.08-4.73h0ZM106.68,31.77c1.63,0,2.69-1.32,2.69-3.28s-1.08-3.28-2.69-3.28-2.71,1.32-2.71,3.28,1.08,3.28,2.71,3.28Z"/>
    </g>
    <g>
      <path class="cls-1" d="M27.6,14.51h-.17l-.99,1.01-.05.05.05.05.99.97h.17l1.04-1.02-1.04-1.07h0ZM26.44,15.52l-1-1.01h-.15l-1.04,1.07,1.04,1.02h.15l1-.97.05-.05-.05-.05h0Z"/>
      <path class="cls-1" d="M37.74,9.61l-.13,1.43h-.84c-.61,0-1.16.05-1.65.15-.49.1-.95.23-1.35.39-.41.15-.8.33-1.18.51-.38.19-.77.35-1.17.51s-.84.29-1.29.4-.97.15-1.56.15c-.83,0-1.48-.22-1.96-.65-.15-.15-.29-.31-.39-.5-.09.06-.19.12-.29.18h-.02c-.33.2-.84.39-1.56.56-.71.18-1.54.34-2.51.48-.96.15-2,.26-3.12.34-1.12.09-2.27.15-3.43.2-1.17.04-2.33.04-3.48,0-1.14-.03-2.21-.1-3.19-.22-.99-.1-1.86-.26-2.62-.45-.4-.1-.77-.22-1.06-.35-.11.07-.25.12-.39.15-.32.09-.71.14-1.19.14h-1.24c-.35,0-.71-.02-1.05-.05-.34-.03-.71-.09-1.08-.15l.13-1.66h4.43c0-.33-.02-.65-.05-.98s-.11-.65-.23-.94c-.12-.3-.3-.58-.53-.84-.24-.27-.56-.5-.97-.71l-.32-.17c-.17-.09-.34-.16-.53-.23s-.37-.15-.59-.23l.59-1.52c.22.06.43.13.66.2.22.08.42.16.59.25l.43.23c.74.39,1.29.9,1.65,1.54s.54,1.43.54,2.36v.58c0,.17,0,.34-.03.49.71.22,1.61.37,2.69.47,1.1.1,2.29.17,3.56.2,1.27.02,2.57,0,3.89-.03,1.32-.04,2.56-.1,3.72-.17s2.19-.15,3.07-.26,1.54-.19,1.95-.28c.31-.05.61-.13.9-.21.11-.03.22-.07.32-.1,0-.11,0-.22,0-.34v-1.2c0-.14,0-.28,0-.44s.02-.3.02-.46.02-.3.03-.42l1.34-.13.1.1v2.07c0,.31.04.55.13.72.09.17.21.3.36.39.15.09.34.14.53.15s.42.02.66.02c.75,0,1.42-.06,1.99-.18.58-.12,1.13-.27,1.65-.44.53-.17,1.04-.34,1.57-.51.06-.02.12-.04.18-.05-.25-.2-.49-.42-.72-.65-.27-.28-.55-.53-.85-.77-.3-.23-.63-.43-.99-.59-.36-.16-.78-.24-1.25-.24-.22,0-.46,0-.72.04-.25.03-.46.06-.62.09l-.13-1.59c.19-.09.4-.17.67-.27.27-.09.59-.14.97-.14.51,0,.96.09,1.33.27s.72.4,1.04.65c.32.27.62.55.9.85.28.31.55.59.84.85.28.26.59.48.91.65.33.18.69.27,1.09.27h.68l.1.1h0Z"/>
      <path class="cls-1" d="M49.61,4.07h-.17l-.99,1-.05.05.05.05.99.99h.17l1.04-1.04-1.04-1.04h0ZM47.46,4.07h-.15l-1.04,1.04,1.04,1.04h.15l1-.99.05-.05-1.04-1.04h0Z"/>
      <path class="cls-1" d="M54.01,3.08c-.02-.47-.07-.95-.14-1.39l-1.47.19c.05.46.09.89.1,1.3.02.41.02.84.02,1.3v6.54c-.24.09-.47.15-.69.2-.22.04-.53.06-.93.06-.23,0-.45,0-.65-.02-.21-.02-.39-.07-.53-.15-.15-.09-.27-.22-.36-.39-.09-.17-.14-.41-.14-.72v-2.07l-.1-.1-1.34.13c0,.13,0,.27,0,.42,0,.15-.02.31-.03.46,0,.15-.02.3-.02.44v1.2c0,.15,0,.28.02.4-.22.12-.47.21-.75.28-.39.09-.75.13-1.11.13h-1.04v-.55c0-.78-.09-1.44-.27-1.96-.18-.53-.41-.96-.71-1.29-.3-.34-.64-.57-1.01-.71-.38-.14-.76-.2-1.14-.2-.42,0-.83.08-1.21.23-.38.15-.7.39-.98.7s-.5.67-.65,1.09c-.15.41-.23.9-.23,1.44,0,.96.26,1.7.77,2.2.52.51,1.25.76,2.2.76h1.92v.72c-.43.43-.9.74-1.44.93-.53.19-1.1.29-1.71.29-.27,0-.51-.02-.71-.05-.21-.03-.4-.08-.59-.11l-.1.09-.13,1.39c.19.1.45.21.77.32.33.11.71.17,1.17.17.54,0,1.05-.1,1.54-.3s.92-.49,1.29-.89c.37-.4.66-.88.89-1.47.1-.28.19-.59.24-.9h.62c.39,0,.71-.04,1-.14.28-.09.53-.22.76-.4s.41-.36.58-.58c.08-.1.15-.21.22-.32.12.3.29.56.52.77.48.44,1.14.65,1.96.65.62,0,1.16-.05,1.63-.17.46-.11.84-.28,1.14-.5.3-.22.52-.5.65-.85.15-.34.22-.75.22-1.21v-5.95c0-.45,0-.92-.03-1.39v-.02ZM41.6,11.27c-.35,0-.65-.03-.87-.1-.23-.07-.4-.17-.53-.3-.13-.13-.22-.28-.27-.44-.05-.16-.08-.33-.08-.48,0-.22.03-.46.09-.72.07-.26.17-.53.31-.81h1.15c.37,0,.69.07.96.2.27.14.49.33.66.57s.3.53.38.85c.09.33.13.69.13,1.08v.15h-1.94Z"/>
      <path class="cls-1" d="M56.45,13.15V4.45c0-.43,0-.84-.02-1.22-.02-.39-.05-.84-.1-1.35l1.47-.19c.07.46.12.92.14,1.39.02.47.03.94.03,1.39v8.57l-.1.1h-1.42Z"/>
      <path class="cls-1" d="M66.47,1.21h-.15l-.99.99-.05.05,1.04,1.04h.15l1.04-1.04s-1.04-1.04-1.04-1.04ZM64.33,1.21h-.17l-1.04,1.04,1.04,1.04h.17l.99-.99.05-.05s-1.04-1.04-1.04-1.04Z"/>
      <path class="cls-1" d="M99.57,6.4c-.18-.59-.41-1.07-.7-1.43-.29-.36-.63-.63-1.02-.79-.38-.16-.77-.25-1.17-.25-.47,0-.9.08-1.27.25-.38.16-.7.4-.96.7-.26.3-.46.66-.59,1.08s-.2.86-.2,1.34c0,.9.23,1.58.7,2.04.47.46,1.11.7,1.92.7.27,0,.53-.03.78-.07.25-.05.48-.11.7-.2s.43-.17.63-.28c.05-.03.1-.06.15-.09v1.59c-.24.07-.59.14-1.05.18-.46.05-.96.08-1.5.08h-2.79c-.28,0-.53,0-.72-.03-.2-.02-.37-.08-.5-.15-.14-.09-.22-.21-.28-.36s-.08-.37-.08-.64v-5.6c0-.45,0-.92-.04-1.39-.03-.47-.07-.95-.13-1.39l-1.47.19c.04.46.08.89.1,1.3.02.41.03.84.03,1.3v5.92c0,.15,0,.28.02.4-.1.03-.21.07-.33.1-.29.09-.59.15-.9.21-.41.09-1.06.18-1.95.28s-1.91.19-3.07.26c-1.15.07-2.39.13-3.72.17s-2.62.05-3.89.03c-1.27-.03-2.45-.09-3.56-.2-1.1-.1-2.01-.27-2.72-.48-.28-.09-.5-.21-.65-.38s-.22-.43-.22-.77v-5.67l-1.33.09c-.04.31-.07.61-.09.9,0,.15-.02.29-.02.44l-2.07.74c-.41.14-.81.31-1.2.52s-.72.46-1.02.76c-.3.3-.53.64-.71,1.02-.18.38-.27.79-.27,1.27,0,.88.24,1.55.72,2.01s1.08.7,1.81.7c.4,0,.77-.06,1.14-.18.36-.12.7-.28,1.01-.48.28-.17.53-.37.75-.6.11.36.32.65.61.86h.03c.39.28.96.52,1.71.71.76.19,1.64.34,2.62.45.99.1,2.05.18,3.19.22,1.14.03,2.3.03,3.48,0,1.17-.04,2.32-.1,3.43-.2,1.13-.09,2.16-.2,3.12-.34.96-.14,1.79-.3,2.51-.48.71-.17,1.23-.36,1.56-.56h.02c.1-.05.2-.11.28-.17.08.17.18.32.3.46.42.46,1.07.7,1.95.7h3.05c.61,0,1.17-.04,1.69-.11.51-.08.95-.22,1.3-.44.35-.21.64-.51.84-.9s.3-.9.3-1.52v-1.58c0-.86-.09-1.59-.27-2.19v.02ZM98.43,8.41c-.21.03-.42.05-.64.08-.22.02-.43.04-.63.05s-.37.02-.51.02c-.35,0-.65-.04-.89-.12-.23-.08-.42-.17-.55-.3-.14-.12-.22-.27-.28-.44s-.08-.34-.08-.53.03-.41.09-.65.16-.48.32-.73h1.23c.71,0,1.23.28,1.54.83.27.46.42,1.06.46,1.78-.03,0-.05,0-.08,0h0ZM67.58,10.39c-.22.1-.45.2-.69.28-.24.08-.48.15-.72.19-.24.05-.48.08-.72.08-.51,0-.94-.1-1.27-.3-.34-.2-.5-.49-.5-.88,0-.18.03-.35.1-.53.06-.16.15-.32.24-.46s.21-.28.34-.4c.12-.12.23-.22.33-.31l3-.7v2.97s-.07.03-.1.05v.02Z"/>
      <path class="cls-1" d="M96.63,0h-.15l-1.13,1.13,1.13,1.13h.15l1.13-1.13-1.13-1.13Z"/>
      <path class="cls-1" d="M111.45,8.58v1.58c0,.63-.1,1.14-.3,1.52-.2.4-.47.7-.83.9-.35.22-.79.36-1.3.44-.51.08-1.08.11-1.69.11h-3.05c-1.01,0-1.7-.25-2.08-.76-.38-.5-.56-1.17-.56-2.01v-5.98c0-.44,0-.86-.03-1.26s-.05-.82-.08-1.26l1.47-.19c.05.45.1.9.13,1.33.03.43.04.86.04,1.29v5.79c0,.28.04.5.13.66.09.15.2.27.35.34s.32.12.53.14c.2.02.4.03.62.03h2.79c.54,0,1.04-.03,1.5-.08.46-.05.82-.11,1.06-.18v-1.6c.14-.09.27-.16.38-.25l.07-.83c-.14.03-.29.05-.46.07-.04-.71-.2-1.31-.46-1.78-.32-.55-.84-.83-1.54-.83h-1.24c-.15.25-.27.5-.32.73-.05.23-.09.45-.09.65s.03.36.07.53c.05.17.15.32.28.44.14.12.32.22.55.3s.53.12.89.12c.15,0,.31,0,.51-.02.2-.02.4-.03.63-.05s.43-.05.64-.08c.03,0,.05,0,.09,0,0,.14.02.28.02.41v.59c-.05.03-.1.06-.15.09-.2.11-.4.21-.63.28-.22.08-.45.15-.7.2-.25.05-.51.07-.77.07-.81,0-1.45-.23-1.92-.7s-.71-1.15-.71-2.04c0-.48.07-.93.2-1.34.14-.41.34-.77.59-1.08s.59-.54.96-.7c.38-.16.79-.25,1.27-.25.4,0,.79.08,1.17.25.38.16.72.42,1.01.79.29.36.53.84.71,1.43.17.59.27,1.32.27,2.19l.02-.04Z"/>
      <path class="cls-1" d="M109.31.17h-.15l-1,1.02-.04.04,1.04,1.04h.15l1.04-1.04s-1.04-1.07-1.04-1.07ZM108.17,1.2l-1-1.02h-.15l-1.04,1.07,1.04,1.04h.15l1-1,.04-.04s-.04-.04-.04-.04ZM110.13,8.4c0,.14.02.28.02.41v.59c.14-.09.27-.16.38-.25l.07-.83c-.14.03-.29.05-.46.07Z"/>
    </g>
  </g>
  <g>
    <path class="cls-1" d="M137.21,32.89l-.03-6.96h.03c.41,0,.83-.03,1.23-.08l.9,6.9c-.71.09-1.42.14-2.13.14ZM135.71,32.82c-.72-.07-1.45-.18-2.17-.34l1.56-6.77c.4.09.83.16,1.24.2l-.63,6.92ZM140.79,32.5l-1.52-6.78c.4-.09.81-.21,1.2-.35l2.43,6.52c-.69.26-1.39.46-2.11.63h0ZM132.13,32.08c-.7-.22-1.38-.51-2.03-.82l3.04-6.26c.38.18.77.34,1.16.47,0,0-2.17,6.6-2.17,6.6ZM144.24,31.3l-3-6.27c.38-.18.75-.39,1.09-.62l3.81,5.81c-.61.4-1.25.77-1.91,1.08h0ZM128.82,30.57c-.62-.37-1.22-.79-1.8-1.25l4.35-5.42c.33.27.67.51,1.03.72l-3.58,5.96h0ZM147.33,29.37l-4.32-5.45c.33-.26.64-.54.93-.84l5.01,4.82c-.51.53-1.05,1.02-1.62,1.47ZM125.93,28.35c-.53-.5-1.02-1.05-1.47-1.62l5.44-4.33c.26.33.54.65.84.93l-4.81,5.01h0ZM149.92,26.8l-5.41-4.36c.26-.33.51-.67.72-1.03l5.96,3.59c-.38.62-.8,1.23-1.26,1.8h0ZM123.59,25.55c-.4-.61-.77-1.25-1.08-1.91l6.27-3c.18.38.39.74.62,1.09,0,0-5.8,3.82-5.8,3.82ZM151.86,23.73l-6.25-3.05c.18-.38.34-.77.47-1.16l6.6,2.17c-.22.69-.51,1.38-.83,2.03h0ZM121.94,22.3c-.26-.68-.46-1.39-.63-2.1l6.78-1.53c.09.4.22.81.36,1.21,0,0-6.52,2.43-6.52,2.43ZM153.09,20.28l-6.77-1.57c.09-.4.16-.82.2-1.24l6.92.64c-.07.72-.18,1.45-.34,2.17ZM121.05,18.75c-.09-.71-.14-1.43-.14-2.15v-.12l2.8.09h4.16v.03c0,.41.03.84.08,1.24,0,0-6.9.91-6.9.91ZM146.55,16.65v-.05c0-.42-.03-.84-.09-1.26l6.89-.92c.09.72.15,1.45.15,2.18l-6.96.05h0ZM127.91,15.75l-6.92-.63c.07-.72.18-1.45.34-2.16l6.77,1.55c-.09.4-.16.83-.2,1.24ZM146.32,14.51c-.09-.4-.22-.81-.36-1.2l6.51-2.44c.26.68.46,1.39.63,2.1l-6.78,1.54h0ZM128.33,13.7l-6.61-2.16c.22-.7.5-1.38.82-2.03l6.26,3.03c-.18.38-.34.77-.46,1.16h0ZM145.63,12.55c-.18-.38-.39-.74-.62-1.09l5.8-3.83c.4.61.77,1.25,1.08,1.9l-6.26,3.02h0ZM129.2,11.8l-5.96-3.58c.38-.62.79-1.23,1.25-1.8l5.43,4.35c-.26.33-.5.67-.72,1.03ZM144.52,10.78c-.26-.33-.55-.64-.85-.93l4.8-5.02c.53.5,1.02,1.05,1.47,1.62l-5.43,4.34h0ZM130.46,10.13l-5.02-4.81c.5-.53,1.05-1.02,1.62-1.47l4.33,5.44c-.33.26-.64.55-.93.85h0ZM143.03,9.3c-.33-.26-.67-.5-1.03-.71l3.57-5.97c.62.37,1.23.79,1.8,1.25,0,0-4.34,5.43-4.34,5.43ZM132.07,8.79l-3.83-5.8c.61-.4,1.25-.77,1.91-1.08l3.01,6.27c-.38.18-.74.39-1.09.62ZM141.27,8.18c-.38-.18-.77-.34-1.16-.46l2.15-6.61c.7.22,1.38.5,2.03.82l-3.02,6.26ZM133.93,7.84l-2.44-6.51c.68-.26,1.39-.46,2.1-.63l1.53,6.78c-.4.09-.81.22-1.2.36h0ZM139.3,7.49c-.4-.09-.83-.15-1.24-.2l.63-6.92c.72.07,1.45.18,2.16.34l-1.54,6.77h0ZM135.96,7.34l-.91-6.9c.71-.09,1.45-.15,2.16-.15v6.96h0c-.42,0-.84.03-1.25.09Z"/>
    <path class="cls-1" d="M142.28,12.82v8.02c0,.05-.04.09-.09.09h0s-.08-.03-.09-.07c-.02-.08-.09-.11-.17-.11-.1,0-.7.46-1.21.61-.52.15-.35-.09-.22-.22.13-.12.43-.31.42-.53,0-.23-.13-.16-.43.11-.15.14-.62.37-.8.52-.19.15-.29,1.24-.96,1.19-1.02-.08-1.14-1.51-1.14-1.51,0-.79.59-.72.79-.45.34.44.41.41.65.29s.13-.65.19-.74c.05-.09.16-.13.24-.16.07-.03-.24-.37.03-.34s.55-.09.4-.33c-.28-.41,0-.86.03-.93,0,0,0,0,0-.02.39-1-.33-2.26-1.35-2.39-1.03-.13-1.72.59-2.12,1.33-.32.59-.1,1.14-1.38,1.4-1.52.32-2.42,1.52-2.76,2.07-.05.08-.17.04-.17-.05v-7.97s.03-.08.06-.09l5-1.79h.06l4.96,1.96s.06.04.06.09h0Z"/>
  </g>
</svg>