<?xml version="1.0" encoding="UTF-8"?>
<svg id="Layer_1" data-name="Layer 1" xmlns="http://www.w3.org/2000/svg" viewBox="0 0 11894.56 4487.52">
  <defs>
    <style>
      .cls-1 {
        fill: none;
        stroke: #02492e;
        stroke-miterlimit: 10;
        stroke-width: 9px;
      }
    </style>
  </defs>
  <g>
    <g>
      <g>
        <rect class="cls-1" x="2989.76" y="1498.39" width="719.99" height="746.16"/>
        <path class="cls-1" d="M2991.02,1564.91c91.42,334.46,368.51,596.11,718.73,676.18v3.47h-718.73v-679.64Z"/>
      </g>
      <rect class="cls-1" x="4454.97" y="1498.39" width="746.16" height="746.16"/>
      <path class="cls-1" d="M5184.73,2244.55c-359.05-94.89-640.24-382.06-726.3-744.58h-3.78v744.58h730.08Z"/>
      <rect class="cls-1" x="3709.12" y="1498.39" width="746.16" height="746.16"/>
      <g>
        <rect class="cls-1" x="5200.81" y="1498.39" width="746.16" height="746.16"/>
        <path class="cls-1" d="M5217.2,2242.97c359.05-94.89,640.24-382.06,726.3-744.58h3.78v744.58h-730.08Z"/>
      </g>
      <g>
        <rect class="cls-1" x="4.5" y="1498.39" width="746.16" height="746.16"/>
        <path class="cls-1" d="M6.08,1547.57c94.89,342.97,382.06,611.24,744.58,693.51v3.47H6.08v-696.98h0Z"/>
      </g>
      <rect class="cls-1" x="1496.5" y="1500.6" width="746.16" height="743.95"/>
      <path class="cls-1" d="M2226.58,2244.55c-359.05-94.89-640.24-382.69-726.3-746.16h-3.78v746.16h730.08Z"/>
      <rect class="cls-1" x="750.66" y="1498.39" width="746.16" height="746.16"/>
      <g>
        <rect class="cls-1" x="2242.66" y="1498.39" width="746.16" height="746.16"/>
        <path class="cls-1" d="M2259.05,2242.97c359.05-94.89,640.24-382.06,726.3-744.58h3.78v744.58h-730.08Z"/>
      </g>
    </g>
    <g>
      <g>
        <rect class="cls-1" x="2242.03" y="2244.55" width="748.68" height="746.16"/>
        <path class="cls-1" d="M2989.45,2924.19c-95.2-334.46-383.32-596.11-747.42-676.18v-3.47h747.42v679.64Z"/>
      </g>
      <rect class="cls-1" x="750.66" y="2244.55" width="746.16" height="746.16"/>
      <path class="cls-1" d="M767.05,2244.55c359.05,94.89,640.24,382.06,726.3,744.58h3.78v-744.58h-730.08Z"/>
      <rect class="cls-1" x="1496.82" y="2244.55" width="746.16" height="746.16"/>
      <g>
        <rect class="cls-1" x="4.5" y="2244.55" width="746.16" height="746.16"/>
        <path class="cls-1" d="M734.58,2246.13c-359.05,94.89-640.24,382.06-726.3,744.58h-3.78v-744.58h730.08Z"/>
      </g>
      <g>
        <rect class="cls-1" x="5201.12" y="2244.55" width="746.16" height="746.16"/>
        <path class="cls-1" d="M5945.71,2941.53c-94.89-342.97-382.06-611.24-744.58-693.51v-3.47h744.58v696.98Z"/>
      </g>
      <rect class="cls-1" x="3708.81" y="2244.55" width="746.16" height="743.95"/>
      <path class="cls-1" d="M3725.2,2244.55c359.05,94.89,640.24,382.69,726.3,746.16h3.78v-746.16h-730.08Z"/>
      <rect class="cls-1" x="4454.97" y="2244.55" width="746.16" height="746.16"/>
      <g>
        <rect class="cls-1" x="2988.82" y="2244.55" width="719.99" height="746.16"/>
        <path class="cls-1" d="M3693.36,2246.13c-346.76,94.89-617.86,382.06-700.76,744.58h-3.47v-744.58h704.23Z"/>
      </g>
    </g>
  </g>
  <g>
    <g>
      <g>
        <rect class="cls-1" x="2989.45" y="6.39" width="719.99" height="746.16"/>
        <path class="cls-1" d="M2991.02,72.59c91.42,334.46,368.51,596.11,718.73,676.18v3.47h-718.73V72.59h0Z"/>
      </g>
      <rect class="cls-1" x="4454.97" y="6.08" width="746.16" height="746.16"/>
      <path class="cls-1" d="M5184.73,752.55c-359.05-94.89-640.24-382.06-726.3-744.58h-3.78v744.58h730.08Z"/>
      <rect class="cls-1" x="3709.12" y="6.08" width="746.16" height="746.16"/>
      <g>
        <rect class="cls-1" x="5200.81" y="6.08" width="746.16" height="746.16"/>
        <path class="cls-1" d="M5217.2,750.97c359.05-94.89,640.24-382.06,726.3-744.58h3.78v744.58h-730.08Z"/>
      </g>
      <g>
        <rect class="cls-1" x="4.82" y="6.39" width="746.16" height="746.16"/>
        <path class="cls-1" d="M6.08,55.57c94.89,342.97,382.06,611.24,744.58,693.51v3.47H6.08V55.57h0Z"/>
      </g>
      <rect class="cls-1" x="1496.5" y="8.28" width="746.16" height="743.95"/>
      <path class="cls-1" d="M2226.58,752.55c-359.05-94.89-640.24-382.69-726.3-746.16h-3.78v746.16h730.08Z"/>
      <rect class="cls-1" x="750.66" y="6.08" width="746.16" height="746.16"/>
      <g>
        <rect class="cls-1" x="2242.66" y="6.08" width="746.16" height="746.16"/>
        <path class="cls-1" d="M2259.05,750.97c359.05-94.89,640.24-382.06,726.3-744.58h3.78v744.58h-730.08Z"/>
      </g>
    </g>
    <g>
      <g>
        <rect class="cls-1" x="2242.34" y="752.55" width="748.68" height="746.16"/>
        <path class="cls-1" d="M2989.45,1432.19c-95.2-334.46-383.32-596.11-747.42-676.18v-3.47h747.42v679.64h0Z"/>
      </g>
      <rect class="cls-1" x="750.66" y="752.55" width="746.16" height="746.16"/>
      <path class="cls-1" d="M767.05,752.55c359.05,94.89,640.24,382.06,726.3,744.58h3.78v-744.58h-730.08Z"/>
      <rect class="cls-1" x="1496.82" y="752.55" width="746.16" height="746.16"/>
      <g>
        <rect class="cls-1" x="4.5" y="752.55" width="746.16" height="746.16"/>
        <path class="cls-1" d="M734.58,753.81C375.53,848.7,94.34,1135.87,8.28,1498.39h-3.78v-744.58h730.08Z"/>
      </g>
      <g>
        <rect class="cls-1" x="5200.81" y="752.55" width="746.16" height="746.16"/>
        <path class="cls-1" d="M5945.71,1449.22c-94.89-342.97-382.06-611.24-744.58-693.51v-3.47h744.58v696.98h0Z"/>
      </g>
      <rect class="cls-1" x="3708.81" y="752.55" width="746.16" height="743.95"/>
      <path class="cls-1" d="M3725.2,752.55c359.05,94.89,640.24,382.69,726.3,746.16h3.78v-746.16h-730.08Z"/>
      <rect class="cls-1" x="4454.97" y="752.55" width="746.16" height="746.16"/>
      <g>
        <rect class="cls-1" x="2988.82" y="752.55" width="719.99" height="746.16"/>
        <path class="cls-1" d="M3693.36,753.81c-346.76,94.89-617.86,382.06-700.76,744.58h-3.47v-744.58h704.23Z"/>
      </g>
    </g>
  </g>
  <g>
    <g>
      <g>
        <rect class="cls-1" x="2989.45" y="2990.71" width="719.99" height="746.16"/>
        <path class="cls-1" d="M2991.02,3056.91c91.42,334.46,368.51,596.11,718.73,676.18v3.47h-718.73v-679.64Z"/>
      </g>
      <rect class="cls-1" x="4454.97" y="2990.39" width="746.16" height="746.16"/>
      <path class="cls-1" d="M5184.73,3736.55c-359.05-94.89-640.24-382.06-726.3-744.58h-3.78v744.58h730.08Z"/>
      <rect class="cls-1" x="3709.12" y="2990.39" width="746.16" height="746.16"/>
      <g>
        <rect class="cls-1" x="5200.81" y="2990.39" width="746.16" height="746.16"/>
        <path class="cls-1" d="M5217.2,3735.29c359.05-94.89,640.24-382.06,726.3-744.58h3.78v744.58h-730.08Z"/>
      </g>
      <g>
        <rect class="cls-1" x="4.82" y="2990.71" width="746.16" height="746.16"/>
        <path class="cls-1" d="M6.08,3039.88c94.89,342.97,382.06,611.24,744.58,693.51v3.47H6.08v-696.98h0Z"/>
      </g>
      <rect class="cls-1" x="1496.5" y="2992.6" width="746.16" height="743.95"/>
      <path class="cls-1" d="M2226.58,3736.55c-359.05-94.89-640.24-382.69-726.3-746.16h-3.78v746.16h730.08Z"/>
      <rect class="cls-1" x="750.66" y="2990.39" width="746.16" height="746.16"/>
      <g>
        <rect class="cls-1" x="2242.66" y="2990.39" width="746.16" height="746.16"/>
        <path class="cls-1" d="M2259.05,3735.29c359.05-94.89,640.24-382.06,726.3-744.58h3.78v744.58h-730.08Z"/>
      </g>
    </g>
    <g>
      <g>
        <rect class="cls-1" x="2242.34" y="3736.86" width="748.68" height="746.16"/>
        <path class="cls-1" d="M2989.45,4416.51c-95.2-334.46-383.32-596.11-747.42-676.18v-3.47h747.42v679.64Z"/>
      </g>
      <rect class="cls-1" x="750.66" y="3736.55" width="746.16" height="746.16"/>
      <path class="cls-1" d="M767.05,3736.55c359.05,94.89,640.24,382.06,726.3,744.58h3.78v-744.58h-730.08Z"/>
      <rect class="cls-1" x="1496.82" y="3736.55" width="746.16" height="746.16"/>
      <g>
        <rect class="cls-1" x="4.5" y="3736.55" width="746.16" height="746.16"/>
        <path class="cls-1" d="M734.58,3738.13c-359.05,94.89-640.24,382.06-726.3,744.58h-3.78v-744.58h730.08Z"/>
      </g>
      <g>
        <rect class="cls-1" x="5201.12" y="3736.86" width="746.16" height="746.16"/>
        <path class="cls-1" d="M5945.71,4433.53c-94.89-342.97-382.06-611.24-744.58-693.51v-3.47h744.58v696.98Z"/>
      </g>
      <rect class="cls-1" x="3708.81" y="3736.55" width="746.16" height="743.95"/>
      <path class="cls-1" d="M3725.2,3736.55c359.05,94.89,640.24,382.69,726.3,746.16h3.78v-746.16h-730.08Z"/>
      <rect class="cls-1" x="4454.97" y="3736.55" width="746.16" height="746.16"/>
      <g>
        <rect class="cls-1" x="2988.82" y="3736.55" width="719.99" height="746.16"/>
        <path class="cls-1" d="M3693.36,3738.13c-346.76,94.89-617.86,382.06-700.76,744.58h-3.47v-744.58h704.23Z"/>
      </g>
    </g>
  </g>
  <g>
    <g>
      <g>
        <g>
          <rect class="cls-1" x="8932.54" y="1496.82" width="719.99" height="746.16"/>
          <path class="cls-1" d="M8933.8,1563.33c91.42,334.46,368.51,596.11,718.73,676.18v3.47h-718.73v-679.64Z"/>
        </g>
        <rect class="cls-1" x="10397.75" y="1496.82" width="746.16" height="746.16"/>
        <path class="cls-1" d="M11127.51,2242.97c-359.05-94.89-640.24-382.06-726.3-744.58h-3.78v744.58h730.08Z"/>
        <rect class="cls-1" x="9651.91" y="1496.82" width="746.16" height="746.16"/>
        <g>
          <rect class="cls-1" x="11143.59" y="1496.82" width="746.16" height="746.16"/>
          <path class="cls-1" d="M11159.98,2241.4c359.05-94.89,640.24-382.06,726.3-744.58h3.78v744.58h-730.08Z"/>
        </g>
        <g>
          <rect class="cls-1" x="5947.28" y="1496.82" width="746.16" height="746.16"/>
          <path class="cls-1" d="M5948.86,1545.99c94.89,342.97,382.06,611.24,744.58,693.51v3.47h-744.58v-696.98h0Z"/>
        </g>
        <rect class="cls-1" x="7439.28" y="1499.02" width="746.16" height="743.95"/>
        <path class="cls-1" d="M8169.36,2242.97c-359.05-94.89-640.24-382.69-726.3-746.16h-3.78v746.16h730.08Z"/>
        <rect class="cls-1" x="6693.44" y="1496.82" width="746.16" height="746.16"/>
        <g>
          <rect class="cls-1" x="8185.44" y="1496.82" width="746.16" height="746.16"/>
          <path class="cls-1" d="M8201.83,2241.4c359.05-94.89,640.24-382.06,726.3-744.58h3.78v744.58h-730.08Z"/>
        </g>
      </g>
      <g>
        <g>
          <rect class="cls-1" x="8184.81" y="2242.97" width="748.68" height="746.16"/>
          <path class="cls-1" d="M8932.23,2922.62c-95.2-334.46-383.32-596.11-747.42-676.18v-3.47h747.42v679.64Z"/>
        </g>
        <rect class="cls-1" x="6693.44" y="2242.97" width="746.16" height="746.16"/>
        <path class="cls-1" d="M6709.83,2242.97c359.05,94.89,640.24,382.06,726.3,744.58h3.78v-744.58h-730.08Z"/>
        <rect class="cls-1" x="7439.6" y="2242.97" width="746.16" height="746.16"/>
        <g>
          <rect class="cls-1" x="5947.28" y="2242.97" width="746.16" height="746.16"/>
          <path class="cls-1" d="M6677.36,2244.55c-359.05,94.89-640.24,382.06-726.3,744.58h-3.78v-744.58h730.08Z"/>
        </g>
        <g>
          <rect class="cls-1" x="11143.91" y="2242.97" width="746.16" height="746.16"/>
          <path class="cls-1" d="M11888.49,2939.95c-94.89-342.97-382.06-611.24-744.58-693.51v-3.47h744.58v696.98Z"/>
        </g>
        <rect class="cls-1" x="9651.59" y="2242.97" width="746.16" height="743.95"/>
        <path class="cls-1" d="M9667.98,2242.97c359.05,94.89,640.24,382.69,726.3,746.16h3.78v-746.16h-730.08Z"/>
        <rect class="cls-1" x="10397.75" y="2242.97" width="746.16" height="746.16"/>
        <g>
          <rect class="cls-1" x="8931.6" y="2242.97" width="719.99" height="746.16"/>
          <path class="cls-1" d="M9636.14,2244.55c-346.76,94.89-617.86,382.06-700.76,744.58h-3.47v-744.58h704.23Z"/>
        </g>
      </g>
    </g>
    <g>
      <g>
        <g>
          <rect class="cls-1" x="8932.23" y="4.82" width="719.99" height="746.16"/>
          <path class="cls-1" d="M8933.8,71.01c91.42,334.46,368.51,596.11,718.73,676.18v3.47h-718.73V71.01h0Z"/>
        </g>
        <rect class="cls-1" x="10397.75" y="4.5" width="746.16" height="746.16"/>
        <path class="cls-1" d="M11127.51,750.97c-359.05-94.89-640.24-382.06-726.3-744.58h-3.78v744.58h730.08Z"/>
        <rect class="cls-1" x="9651.91" y="4.5" width="746.16" height="746.16"/>
        <g>
          <rect class="cls-1" x="11143.59" y="4.5" width="746.16" height="746.16"/>
          <path class="cls-1" d="M11159.98,749.4c359.05-94.89,640.24-382.06,726.3-744.58h3.78v744.58h-730.08Z"/>
        </g>
        <g>
          <rect class="cls-1" x="5947.6" y="4.82" width="746.16" height="746.16"/>
          <path class="cls-1" d="M5948.86,53.99c94.89,342.97,382.06,611.24,744.58,693.51v3.47h-744.58V53.99h0Z"/>
        </g>
        <rect class="cls-1" x="7439.28" y="6.71" width="746.16" height="743.95"/>
        <path class="cls-1" d="M8169.36,750.97c-359.05-94.89-640.24-382.69-726.3-746.16h-3.78v746.16h730.08Z"/>
        <rect class="cls-1" x="6693.44" y="4.5" width="746.16" height="746.16"/>
        <g>
          <rect class="cls-1" x="8185.44" y="4.5" width="746.16" height="746.16"/>
          <path class="cls-1" d="M8201.83,749.4c359.05-94.89,640.24-382.06,726.3-744.58h3.78v744.58h-730.08Z"/>
        </g>
      </g>
      <g>
        <g>
          <rect class="cls-1" x="8185.12" y="750.97" width="748.68" height="746.16"/>
          <path class="cls-1" d="M8932.23,1430.62c-95.2-334.46-383.32-596.11-747.42-676.18v-3.47h747.42v679.64h0Z"/>
        </g>
        <rect class="cls-1" x="6693.44" y="750.97" width="746.16" height="746.16"/>
        <path class="cls-1" d="M6709.83,750.97c359.05,94.89,640.24,382.06,726.3,744.58h3.78v-744.58h-730.08Z"/>
        <rect class="cls-1" x="7439.6" y="750.97" width="746.16" height="746.16"/>
        <g>
          <rect class="cls-1" x="5947.28" y="750.97" width="746.16" height="746.16"/>
          <path class="cls-1" d="M6677.36,752.23c-359.05,94.89-640.24,382.06-726.3,744.58h-3.78v-744.58h730.08Z"/>
        </g>
        <g>
          <rect class="cls-1" x="11143.59" y="750.97" width="746.16" height="746.16"/>
          <path class="cls-1" d="M11888.49,1447.64c-94.89-342.97-382.06-611.24-744.58-693.51v-3.47h744.58v696.98h0Z"/>
        </g>
        <rect class="cls-1" x="9651.59" y="750.97" width="746.16" height="743.95"/>
        <path class="cls-1" d="M9667.98,750.97c359.05,94.89,640.24,382.69,726.3,746.16h3.78v-746.16h-730.08Z"/>
        <rect class="cls-1" x="10397.75" y="750.97" width="746.16" height="746.16"/>
        <g>
          <rect class="cls-1" x="8931.6" y="750.97" width="719.99" height="746.16"/>
          <path class="cls-1" d="M9636.14,752.23c-346.76,94.89-617.86,382.06-700.76,744.58h-3.47v-744.58h704.23Z"/>
        </g>
      </g>
    </g>
    <g>
      <g>
        <g>
          <rect class="cls-1" x="8932.23" y="2989.13" width="719.99" height="746.16"/>
          <path class="cls-1" d="M8933.8,3055.33c91.42,334.46,368.51,596.11,718.73,676.18v3.47h-718.73v-679.64Z"/>
        </g>
        <rect class="cls-1" x="10397.75" y="2988.82" width="746.16" height="746.16"/>
        <path class="cls-1" d="M11127.51,3734.97c-359.05-94.89-640.24-382.06-726.3-744.58h-3.78v744.58h730.08Z"/>
        <rect class="cls-1" x="9651.91" y="2988.82" width="746.16" height="746.16"/>
        <g>
          <rect class="cls-1" x="11143.59" y="2988.82" width="746.16" height="746.16"/>
          <path class="cls-1" d="M11159.98,3733.71c359.05-94.89,640.24-382.06,726.3-744.58h3.78v744.58h-730.08Z"/>
        </g>
        <g>
          <rect class="cls-1" x="5947.6" y="2989.13" width="746.16" height="746.16"/>
          <path class="cls-1" d="M5948.86,3038.31c94.89,342.97,382.06,611.24,744.58,693.51v3.47h-744.58v-696.98h0Z"/>
        </g>
        <rect class="cls-1" x="7439.28" y="2991.02" width="746.16" height="743.95"/>
        <path class="cls-1" d="M8169.36,3734.97c-359.05-94.89-640.24-382.69-726.3-746.16h-3.78v746.16h730.08Z"/>
        <rect class="cls-1" x="6693.44" y="2988.82" width="746.16" height="746.16"/>
        <g>
          <rect class="cls-1" x="8185.44" y="2988.82" width="746.16" height="746.16"/>
          <path class="cls-1" d="M8201.83,3733.71c359.05-94.89,640.24-382.06,726.3-744.58h3.78v744.58h-730.08Z"/>
        </g>
      </g>
      <g>
        <g>
          <rect class="cls-1" x="8185.12" y="3735.29" width="748.68" height="746.16"/>
          <path class="cls-1" d="M8932.23,4414.93c-95.2-334.46-383.32-596.11-747.42-676.18v-3.47h747.42v679.64Z"/>
        </g>
        <rect class="cls-1" x="6693.44" y="3734.97" width="746.16" height="746.16"/>
        <path class="cls-1" d="M6709.83,3734.97c359.05,94.89,640.24,382.06,726.3,744.58h3.78v-744.58h-730.08Z"/>
        <rect class="cls-1" x="7439.6" y="3734.97" width="746.16" height="746.16"/>
        <g>
          <rect class="cls-1" x="5947.28" y="3734.97" width="746.16" height="746.16"/>
          <path class="cls-1" d="M6677.36,3736.55c-359.05,94.89-640.24,382.06-726.3,744.58h-3.78v-744.58h730.08Z"/>
        </g>
        <g>
          <rect class="cls-1" x="11143.91" y="3735.29" width="746.16" height="746.16"/>
          <path class="cls-1" d="M11888.49,4431.95c-94.89-342.97-382.06-611.24-744.58-693.51v-3.47h744.58v696.98Z"/>
        </g>
        <rect class="cls-1" x="9651.59" y="3734.97" width="746.16" height="743.95"/>
        <path class="cls-1" d="M9667.98,3734.97c359.05,94.89,640.24,382.69,726.3,746.16h3.78v-746.16h-730.08Z"/>
        <rect class="cls-1" x="10397.75" y="3734.97" width="746.16" height="746.16"/>
        <g>
          <rect class="cls-1" x="8931.6" y="3734.97" width="719.99" height="746.16"/>
          <path class="cls-1" d="M9636.14,3736.55c-346.76,94.89-617.86,382.06-700.76,744.58h-3.47v-744.58h704.23Z"/>
        </g>
      </g>
    </g>
  </g>
</svg>