<?xml version="1.0" encoding="UTF-8"?>
<svg id="Layer_1" xmlns="http://www.w3.org/2000/svg" version="1.1" viewBox="0 0 2500 2000">
  <!-- Generator: Adobe Illustrator 29.1.0, SVG Export Plug-In . SVG Version: 2.1.0 Build 142)  -->
  <defs>
    <style>
      .st0 {
        fill: none;
        stroke: #02492e;
        stroke-miterlimit: 10;
        stroke-width: 2px;
      }
    </style>
  </defs>
  <g>
    <g>
      <g>
        <rect class="st0" x="1250.2" y="767.5" width="236.7" height="228.4" transform="translate(486.9 2250.2) rotate(-90)"/>
        <path class="st0" d="M1254.8,784.4c29,106.1,116.9,189.1,228,214.5v1.1h-228v-215.6Z"/>
      </g>
      <rect class="st0" x="1719.2" y="763.3" width="236.7" height="236.7" transform="translate(3675.1 1763.3) rotate(180)"/>
      <path class="st0" d="M1950.7,1000c-113.9-30.1-203.1-121.2-230.4-236.2h-1.2s0,236.2,0,236.2h231.5Z"/>
      <rect class="st0" x="1482.5" y="763.3" width="236.7" height="236.7" transform="translate(3201.8 1763.3) rotate(180)"/>
      <g>
        <rect class="st0" x="1955.9" y="763.3" width="236.7" height="236.7" transform="translate(4148.4 1763.3) rotate(180)"/>
        <path class="st0" d="M1961,999.5c113.9-30.1,203.1-121.2,230.4-236.2h1.2v236.2h-231.5Z"/>
      </g>
      <g>
        <rect class="st0" x="307.4" y="763.3" width="236.7" height="236.7" transform="translate(-455.9 1307.4) rotate(-90)"/>
        <path class="st0" d="M307.9,778.9c30.1,108.8,121.2,193.9,236.2,220v1.1h-236.2v-221.1Z"/>
      </g>
      <rect class="st0" x="780.8" y="764" width="236.7" height="236" transform="translate(1798.2 1764) rotate(180)"/>
      <path class="st0" d="M1012.3,1000c-113.9-30.1-203.1-121.4-230.4-236.7h-1.2s0,236.7,0,236.7h231.5Z"/>
      <rect class="st0" x="544.1" y="763.3" width="236.7" height="236.7" transform="translate(1324.9 1763.3) rotate(180)"/>
      <g>
        <rect class="st0" x="1017.5" y="763.3" width="236.7" height="236.7" transform="translate(2271.6 1763.3) rotate(180)"/>
        <path class="st0" d="M1022.6,999.5c113.9-30.1,203.1-121.2,230.4-236.2h1.2v236.2h-231.5Z"/>
      </g>
    </g>
    <g>
      <g>
        <rect class="st0" x="1017.7" y="999.6" width="236.7" height="237.5" transform="translate(2254.3 -17.7) rotate(90)"/>
        <path class="st0" d="M1254.3,1215.6c-30.2-106.1-121.6-189.1-237.1-214.5v-1.1h237.1v215.6Z"/>
      </g>
      <rect class="st0" x="544.1" y="1000" width="236.7" height="236.7"/>
      <path class="st0" d="M549.3,1000c113.9,30.1,203.1,121.2,230.4,236.2h1.2s0-236.2,0-236.2h-231.5Z"/>
      <rect class="st0" x="780.8" y="1000" width="236.7" height="236.7"/>
      <g>
        <rect class="st0" x="307.4" y="1000" width="236.7" height="236.7"/>
        <path class="st0" d="M539,1000.5c-113.9,30.1-203.1,121.2-230.4,236.2h-1.2v-236.2h231.5Z"/>
      </g>
      <g>
        <rect class="st0" x="1955.9" y="1000" width="236.7" height="236.7" transform="translate(3192.6 -955.9) rotate(90)"/>
        <path class="st0" d="M2192.1,1221.1c-30.1-108.8-121.2-193.9-236.2-220v-1.1h236.2v221.1Z"/>
      </g>
      <rect class="st0" x="1482.5" y="1000" width="236.7" height="236"/>
      <path class="st0" d="M1487.7,1000c113.9,30.1,203.1,121.4,230.4,236.7h1.2s0-236.7,0-236.7h-231.5Z"/>
      <rect class="st0" x="1719.2" y="1000" width="236.7" height="236.7"/>
      <g>
        <rect class="st0" x="1254.1" y="1000" width="228.4" height="236.7"/>
        <path class="st0" d="M1477.6,1000.5c-110,30.1-196,121.2-222.3,236.2h-1.1v-236.2h223.4Z"/>
      </g>
    </g>
  </g>
  <g>
    <g>
      <g>
        <rect class="st0" x="1250.2" y="294.1" width="236.7" height="228.4" transform="translate(960.2 1776.9) rotate(-90)"/>
        <path class="st0" d="M1254.8,311c29,106.1,116.9,189.1,228,214.5v1.1h-228v-215.6Z"/>
      </g>
      <rect class="st0" x="1719.2" y="290" width="236.7" height="236.7" transform="translate(3675.1 816.6) rotate(180)"/>
      <path class="st0" d="M1950.7,526.7c-113.9-30.1-203.1-121.2-230.4-236.2h-1.2s0,236.2,0,236.2h231.5Z"/>
      <rect class="st0" x="1482.5" y="290" width="236.7" height="236.7" transform="translate(3201.8 816.6) rotate(180)"/>
      <g>
        <rect class="st0" x="1955.9" y="290" width="236.7" height="236.7" transform="translate(4148.4 816.6) rotate(180)"/>
        <path class="st0" d="M1961,526.2c113.9-30.1,203.1-121.2,230.4-236.2h1.2v236.2h-231.5Z"/>
      </g>
      <g>
        <rect class="st0" x="307.4" y="290" width="236.7" height="236.7" transform="translate(17.5 834.1) rotate(-90)"/>
        <path class="st0" d="M307.9,305.6c30.1,108.8,121.2,193.9,236.2,220v1.1h-236.2v-221.1Z"/>
      </g>
      <rect class="st0" x="780.8" y="290.7" width="236.7" height="236" transform="translate(1798.2 817.3) rotate(180)"/>
      <path class="st0" d="M1012.3,526.7c-113.9-30.1-203.1-121.4-230.4-236.7h-1.2s0,236.7,0,236.7h231.5Z"/>
      <rect class="st0" x="544.1" y="290" width="236.7" height="236.7" transform="translate(1324.9 816.6) rotate(180)"/>
      <g>
        <rect class="st0" x="1017.5" y="290" width="236.7" height="236.7" transform="translate(2271.6 816.6) rotate(180)"/>
        <path class="st0" d="M1022.6,526.2c113.9-30.1,203.1-121.2,230.4-236.2h1.2v236.2h-231.5Z"/>
      </g>
    </g>
    <g>
      <g>
        <rect class="st0" x="1017.7" y="526.2" width="236.7" height="237.5" transform="translate(1781 -491) rotate(90)"/>
        <path class="st0" d="M1254.3,742.3c-30.2-106.1-121.6-189.1-237.1-214.5v-1.1h237.1v215.6Z"/>
      </g>
      <rect class="st0" x="544.1" y="526.7" width="236.7" height="236.7"/>
      <path class="st0" d="M549.3,526.7c113.9,30.1,203.1,121.2,230.4,236.2h1.2s0-236.2,0-236.2h-231.5Z"/>
      <rect class="st0" x="780.8" y="526.7" width="236.7" height="236.7"/>
      <g>
        <rect class="st0" x="307.4" y="526.7" width="236.7" height="236.7"/>
        <path class="st0" d="M539,527.1c-113.9,30.1-203.1,121.2-230.4,236.2h-1.2v-236.2h231.5Z"/>
      </g>
      <g>
        <rect class="st0" x="1955.9" y="526.7" width="236.7" height="236.7" transform="translate(2719.2 -1429.2) rotate(90)"/>
        <path class="st0" d="M2192.1,747.7c-30.1-108.8-121.2-193.9-236.2-220v-1.1h236.2v221.1Z"/>
      </g>
      <rect class="st0" x="1482.5" y="526.7" width="236.7" height="236"/>
      <path class="st0" d="M1487.7,526.7c113.9,30.1,203.1,121.4,230.4,236.7h1.2s0-236.7,0-236.7h-231.5Z"/>
      <rect class="st0" x="1719.2" y="526.7" width="236.7" height="236.7"/>
      <g>
        <rect class="st0" x="1254.1" y="526.7" width="228.4" height="236.7"/>
        <path class="st0" d="M1477.6,527.1c-110,30.1-196,121.2-222.3,236.2h-1.1v-236.2h223.4Z"/>
      </g>
    </g>
  </g>
  <g>
    <g>
      <g>
        <rect class="st0" x="1250.2" y="1240.8" width="236.7" height="228.4" transform="translate(13.5 2723.6) rotate(-90)"/>
        <path class="st0" d="M1254.8,1257.7c29,106.1,116.9,189.1,228,214.5v1.1h-228v-215.6Z"/>
      </g>
      <rect class="st0" x="1719.2" y="1236.7" width="236.7" height="236.7" transform="translate(3675.1 2710) rotate(180)"/>
      <path class="st0" d="M1950.7,1473.3c-113.9-30.1-203.1-121.2-230.4-236.2h-1.2s0,236.2,0,236.2h231.5Z"/>
      <rect class="st0" x="1482.5" y="1236.7" width="236.7" height="236.7" transform="translate(3201.8 2710) rotate(180)"/>
      <g>
        <rect class="st0" x="1955.9" y="1236.7" width="236.7" height="236.7" transform="translate(4148.4 2710) rotate(180)"/>
        <path class="st0" d="M1961,1472.9c113.9-30.1,203.1-121.2,230.4-236.2h1.2v236.2h-231.5Z"/>
      </g>
      <g>
        <rect class="st0" x="307.4" y="1236.7" width="236.7" height="236.7" transform="translate(-929.2 1780.8) rotate(-90)"/>
        <path class="st0" d="M307.9,1252.3c30.1,108.8,121.2,193.9,236.2,220v1.1h-236.2v-221.1Z"/>
      </g>
      <rect class="st0" x="780.8" y="1237.4" width="236.7" height="236" transform="translate(1798.2 2710.7) rotate(180)"/>
      <path class="st0" d="M1012.3,1473.3c-113.9-30.1-203.1-121.4-230.4-236.7h-1.2s0,236.7,0,236.7h231.5Z"/>
      <rect class="st0" x="544.1" y="1236.7" width="236.7" height="236.7" transform="translate(1324.9 2710) rotate(180)"/>
      <g>
        <rect class="st0" x="1017.5" y="1236.7" width="236.7" height="236.7" transform="translate(2271.6 2710) rotate(180)"/>
        <path class="st0" d="M1022.6,1472.9c113.9-30.1,203.1-121.2,230.4-236.2h1.2v236.2h-231.5Z"/>
      </g>
    </g>
    <g>
      <g>
        <rect class="st0" x="1017.7" y="1472.9" width="236.7" height="237.5" transform="translate(2727.7 455.7) rotate(90)"/>
        <path class="st0" d="M1254.3,1689c-30.2-106.1-121.6-189.1-237.1-214.5v-1.1h237.1v215.6Z"/>
      </g>
      <rect class="st0" x="544.1" y="1473.3" width="236.7" height="236.7"/>
      <path class="st0" d="M549.3,1473.3c113.9,30.1,203.1,121.2,230.4,236.2h1.2s0-236.2,0-236.2h-231.5Z"/>
      <rect class="st0" x="780.8" y="1473.3" width="236.7" height="236.7"/>
      <g>
        <rect class="st0" x="307.4" y="1473.3" width="236.7" height="236.7"/>
        <path class="st0" d="M539,1473.8c-113.9,30.1-203.1,121.2-230.4,236.2h-1.2v-236.2h231.5Z"/>
      </g>
      <g>
        <rect class="st0" x="1955.9" y="1473.3" width="236.7" height="236.7" transform="translate(3665.9 -482.5) rotate(90)"/>
        <path class="st0" d="M2192.1,1694.4c-30.1-108.8-121.2-193.9-236.2-220v-1.1h236.2v221.1Z"/>
      </g>
      <rect class="st0" x="1482.5" y="1473.3" width="236.7" height="236"/>
      <path class="st0" d="M1487.7,1473.3c113.9,30.1,203.1,121.4,230.4,236.7h1.2s0-236.7,0-236.7h-231.5Z"/>
      <rect class="st0" x="1719.2" y="1473.3" width="236.7" height="236.7"/>
      <g>
        <rect class="st0" x="1254.1" y="1473.3" width="228.4" height="236.7"/>
        <path class="st0" d="M1477.6,1473.8c-110,30.1-196,121.2-222.3,236.2h-1.1v-236.2h223.4Z"/>
      </g>
    </g>
  </g>
</svg>