<?xml version="1.0" encoding="UTF-8"?>
<svg id="Layer_1" data-name="Layer 1" xmlns="http://www.w3.org/2000/svg" viewBox="0 0 459.47 433.64">
  <defs>
    <style>
      .cls-1 {
        fill: #02492e;
      }
    </style>
  </defs>
  <g>
    <g>
      <path class="cls-1" d="M189.49,233.46c1.06-.43,2.19-.65,3.38-.65s2.22.2,3.17.61c.95.4,1.77.98,2.44,1.72.68.74,1.2,1.63,1.57,2.66.37,1.03.55,2.17.55,3.43,0,2.55-.73,4.49-2.2,5.83-1.47,1.34-3.36,2.01-5.68,2.01s-4-.61-5.34-1.84c-1.34-1.23-2.01-2.96-2.01-5.22,0-1.16.17-2.31.51-3.46.34-1.14.7-2.1,1.08-2.87.62-1.03,1.45-1.77,2.52-2.2ZM188.57,237.16c-.16.39-.31.81-.44,1.28-.13.46-.24.94-.34,1.42-.09.48-.14.95-.14,1.4,0,1.35.44,2.42,1.33,3.21.88.79,2.13,1.18,3.74,1.18,1.1,0,2.18-.19,3.24-.58,1.06-.39,1.84-.79,2.32-1.21v-2.86c0-1.51-.52-2.7-1.55-3.55-1.03-.85-2.37-1.28-4.02-1.28h-3.67c-.16.26-.32.58-.48.97ZM188.04,226.47l2.22,2.23h.34l2.23-2.23-2.23-2.27h-.34l-2.22,2.27ZM192.92,226.47l2.23,2.23h.29l2.22-2.23-2.22-2.27h-.29l-2.23,2.27Z"/>
      <path class="cls-1" d="M201.72,253.69c1.23,0,2.1-.16,2.63-.48.53-.32.99-.82,1.38-1.5v-9.86c0-.9-.02-1.73-.07-2.49-.05-.76-.12-1.6-.22-2.54l2.66-.34c0,1.09.06,2.06.19,2.9.13.84.19,1.73.19,2.66v6.29c0,1.13-.11,2.2-.34,3.24-.23,1.03-.56,1.95-1.01,2.76-.45.8-1.03,1.44-1.74,1.91-.71.47-1.56.72-2.56.75-.58.03-1.1-.02-1.57-.15-.46-.13-.8-.26-.99-.39l.24-2.51.24-.24h.97ZM208.59,242.28c.06.9.25,1.5.55,1.79.31.29.85.56,1.62.82v2.71l-1.6.15c-.35-.16-.63-.36-.85-.61-.21-.24-.38-.54-.51-.92-.13-.37-.22-.79-.27-1.26-.05-.46-.1-1.01-.17-1.62l-.58-6.09,1.31-.77.48,5.8Z"/>
      <path class="cls-1" d="M210.76,244.89c2.23.68,4.64,1.08,7.23,1.23,2.6.15,5.14.15,7.64.02,2.49-.13,4.81-.34,6.94-.65,2.12-.31,3.8-.57,5.03-.79h2.23v1.88c-.97.52-2.27,1-3.92,1.45-1.64.45-3.45.81-5.42,1.08-1.97.28-4.03.45-6.21.54-2.17.08-4.27.05-6.28-.08-2.01-.13-3.87-.39-5.58-.77-1.7-.39-3.09-.92-4.16-1.59v-2.32h2.51Z"/>
      <path class="cls-1" d="M237.59,246.58v-1.88c.64-.13,1.29-.3,1.94-.51.64-.21,1.17-.42,1.59-.65l.82,1.55c-.32.29-.63.55-.94.77-.31.23-.7.46-1.19.72h-2.22ZM250.38,234.62c.66.44,1.17,1.2,1.53,2.3l1.84,5.32c.23.64.46,1.16.7,1.55.24.39.51.68.8.87.29.19.63.33,1.01.41.39.08.84.12,1.35.12v2.86l-1.06.53c-.62,0-1.18-.1-1.69-.29-.52-.19-.99-.47-1.4-.85s-.79-.85-1.11-1.45c-.32-.6-.62-1.31-.92-2.15l-2.17-6.43h-2.56c-.58,0-1.15.09-1.71.27-.56.18-1.07.44-1.5.8-.44.35-.79.79-1.07,1.31s-.41,1.13-.41,1.84v2.41c.39.46,1,.81,1.84,1.07.84.26,1.69.39,2.56.39,1.1,0,2.12-.2,3.07-.6.95-.4,1.75-.86,2.39-1.38l.39,1.21c-.23.51-.52,1.02-.87,1.52-.35.5-.79.95-1.3,1.35-.52.4-1.11.72-1.79.94s-1.45.34-2.32.34c-2.03,0-3.59-.63-4.67-1.89-1.08-1.25-1.62-2.9-1.62-4.93,0-1.32.22-2.48.65-3.48.43-1,1.02-1.84,1.76-2.51.74-.68,1.6-1.19,2.56-1.55.97-.36,1.98-.53,3.04-.53,1.13,0,2.02.22,2.68.65Z"/>
      <path class="cls-1" d="M274.09,247.21c-.58.13-1.43.27-2.56.43-1.13.16-2.4.31-3.82.46s-2.89.26-4.42.34c-1.53.08-3.01.12-4.42.12h-2.32v-2.56l1.06-.82h2.42c1.45,0,2.71-.02,3.79-.07,1.08-.05,2.12-.11,3.12-.19s2.02-.18,3.07-.29c1.04-.11,2.3-.25,3.74-.41l.24.19.09,2.8ZM268.39,234.79c-.65-.07-1.24-.1-1.79-.1h-3.33c-.55.68-.98,1.43-1.28,2.27-.31.84-.46,1.66-.46,2.47,0,.68.19,1.36.56,2.05.37.7,1.01,1.28,1.91,1.77.9.48,2.15.82,3.75,1.01,1.59.19,3.6.18,6.02-.05-.29.13-.76.34-1.4.62-.65.29-1.34.58-2.08.87-.74.29-1.47.56-2.17.82-.71.26-1.26.43-1.64.53-1.23-.32-2.28-.73-3.17-1.24-.89-.5-1.63-1.08-2.25-1.76-.61-.68-1.06-1.43-1.35-2.25s-.44-1.7-.44-2.63c0-1.13.2-2.18.61-3.17.4-.98.94-1.82,1.62-2.51.68-.7,1.46-1.24,2.34-1.64.89-.4,1.83-.61,2.83-.61.42,0,.84.03,1.26.1s.81.15,1.18.26.72.23,1.04.34c.32.11.58.23.77.37l-.24,2.61-.24.2c-.71-.16-1.39-.28-2.03-.34Z"/>
    </g>
    <g>
      <path class="cls-1" d="M180.7,288.92v-14.18h3.69v14.05c0,4.11,2.38,6.2,5.45,6.2s5.47-2.09,5.47-6.2v-14.05h3.65v14.18c0,5.9-3.98,9.16-9.13,9.16s-9.13-3.26-9.13-9.16Z"/>
      <path class="cls-1" d="M202.94,279.62h3.45v2.9h.07c.91-1.79,2.61-3.42,5.35-3.42,2.57,0,4.5,1.43,5.28,3.88h.07c.98-2.31,2.9-3.88,5.67-3.88,3.59,0,5.83,2.64,5.83,6.97v11.48h-3.52v-11.12c0-3.03-1.4-4.37-3.39-4.37-2.25,0-4.17,1.66-4.17,5.09v10.4h-3.52v-11.12c0-3.03-1.4-4.37-3.42-4.37-2.22,0-4.17,1.69-4.17,5.12v10.37h-3.52v-17.93Z"/>
      <path class="cls-1" d="M232.45,279.62h3.45v2.97h.07c.88-1.83,1.92-2.97,4.53-2.97h1.76v2.97h-2.32c-2.74,0-3.97,1.57-3.97,4.76v10.2h-3.52v-17.93Z"/>
      <path class="cls-1" d="M249.13,298.08c-3.45,0-6.16-1.95-6.16-5.71,0-4.07,3.26-5.64,6.81-5.64h2.87c1.79,0,2.64-.75,2.64-2.05,0-1.79-1.63-2.67-3.72-2.67-2.47,0-4.14,1.24-4.3,3.43h-3.62c.26-3.85,2.77-6.33,7.89-6.33s7.27,2.61,7.27,6.16v8.15c0,.85.33,1.17,1.17,1.17h.75v2.97h-2.35c-1.86,0-2.93-1.01-2.93-2.67v-.85h-.06c-1.14,2.74-3.46,4.04-6.26,4.04ZM250.05,295.14c2.71,0,5.25-1.76,5.25-5.71v-1.86h-.07c-.59,1.24-1.66,1.83-3.69,1.86l-1.4.03c-2.48.03-3.45,1.31-3.45,2.84s.98,2.83,3.35,2.83Z"/>
      <path class="cls-1" d="M263.45,272.09h3.52v7.66c0,.81,0,1.43-.07,2.9h.07c.91-2.05,2.83-3.55,5.57-3.55,3.75,0,6.23,2.67,6.23,7.01v11.44h-3.52v-10.63c0-3.55-1.53-4.86-3.72-4.86-2.38,0-4.56,1.53-4.56,5.51v9.98h-3.52v-25.46Z"/>
    </g>
  </g>
  <g>
    <path class="cls-1" d="M229.74,199.54l-27.7-15.99v-31.99l27.7-15.99,27.7,15.99v31.99l-27.7,15.99ZM205.03,181.82l24.7,14.26,24.7-14.26v-28.53l-24.7-14.26-24.7,14.26v28.53Z"/>
    <polygon class="cls-1" points="229.74 170.94 202.73 153.69 204.34 151.16 229.74 167.38 255.13 151.16 256.75 153.69 229.74 170.94"/>
    <rect class="cls-1" x="228.24" y="169.16" width="3" height="28.65"/>
    <polygon class="cls-1" points="229.74 181.29 202.73 164.04 204.34 161.51 229.74 177.73 255.13 161.51 256.75 164.04 229.74 181.29"/>
  </g>
</svg>