<?xml version="1.0" encoding="UTF-8"?>
<svg id="Layer_1" data-name="Layer 1" xmlns="http://www.w3.org/2000/svg" viewBox="0 0 459.47 433.64">
  <defs>
    <style>
      .cls-1 {
        fill: #02492e;
      }
    </style>
  </defs>
  <g>
    <g>
      <path class="cls-1" d="M136.97,230.23c1.05-.43,2.16-.64,3.33-.64s2.18.2,3.12.59c.94.4,1.74.96,2.4,1.69.67.73,1.18,1.6,1.55,2.62.36,1.02.55,2.14.55,3.38,0,2.51-.72,4.42-2.17,5.74-1.44,1.32-3.31,1.98-5.59,1.98s-3.94-.6-5.26-1.81c-1.32-1.21-1.98-2.92-1.98-5.14,0-1.14.17-2.28.5-3.41.33-1.13.69-2.07,1.07-2.83.6-1.02,1.43-1.74,2.48-2.17ZM136.06,233.88c-.16.38-.3.8-.43,1.26s-.24.93-.33,1.4-.14.94-.14,1.38c0,1.33.44,2.39,1.31,3.17.87.78,2.1,1.17,3.69,1.17,1.08,0,2.14-.19,3.19-.57,1.05-.38,1.81-.78,2.29-1.19v-2.81c0-1.49-.51-2.66-1.52-3.5-1.02-.84-2.33-1.26-3.95-1.26h-3.62c-.16.25-.32.57-.48.95ZM135.54,223.35l2.19,2.19h.33l2.19-2.19-2.19-2.24h-.33l-2.19,2.24ZM140.35,223.35l2.19,2.19h.29l2.19-2.19-2.19-2.24h-.29l-2.19,2.24Z"/>
      <path class="cls-1" d="M149.01,250.16c1.21,0,2.07-.16,2.59-.48.52-.32.98-.81,1.36-1.47v-9.71c0-.89-.02-1.71-.07-2.45s-.12-1.58-.21-2.5l2.62-.33c0,1.08.06,2.03.19,2.86.13.83.19,1.7.19,2.62v6.19c0,1.11-.11,2.17-.33,3.19s-.56,1.92-1,2.71c-.45.79-1.02,1.42-1.71,1.88-.7.46-1.54.71-2.52.74-.57.03-1.09-.01-1.55-.14-.46-.13-.79-.25-.98-.38l.24-2.48.24-.24h.95ZM155.77,238.92c.06.89.25,1.47.55,1.76.3.28.83.56,1.6.81v2.67l-1.57.14c-.35-.16-.63-.36-.83-.59s-.37-.54-.5-.9-.21-.78-.26-1.24c-.05-.46-.1-.99-.17-1.59l-.57-6,1.29-.76.48,5.71Z"/>
      <path class="cls-1" d="M157.92,241.49c1.05.29,2.2.48,3.45.57,1.25.09,2.51.11,3.76.05,1.25-.06,2.48-.18,3.67-.33,1.19-.16,2.24-.32,3.17-.48h2.19v1.86c-.86.44-1.83.83-2.9,1.14-1.08.32-2.21.57-3.38.76-1.17.19-2.37.31-3.59.36-1.22.05-2.38.01-3.48-.1-1.1-.11-2.11-.28-3.05-.52-.94-.24-1.71-.58-2.31-1.02v-2.29h2.48Z"/>
      <path class="cls-1" d="M186.72,240.35h-2.19c-1.02,0-1.9-.18-2.67-.55-.76-.37-1.47-.83-2.12-1.38-.65-.56-1.28-1.14-1.88-1.76-.6-.62-1.24-1.21-1.9-1.76-.67-.55-1.4-1.02-2.21-1.38-.81-.37-1.75-.55-2.83-.55-.54,0-1.07.04-1.59.12-.52.08-.94.17-1.26.26l-.29-2.86c.35-.16.79-.34,1.33-.55.54-.21,1.25-.31,2.14-.31,1.11,0,2.09.19,2.95.57.86.38,1.65.87,2.38,1.47.73.6,1.4,1.25,2.02,1.95.62.7,1.25,1.35,1.9,1.95.65.6,1.35,1.11,2.09,1.5.74.4,1.56.59,2.45.59h1.67l.24.24-.24,2.43ZM168.72,223.26l2.29,2.24h.29l2.29-2.24-2.29-2.29h-.29l-2.29,2.29ZM171.96,243.16v-1.86c.83-.16,1.65-.36,2.48-.62s1.67-.55,2.55-.88c.87-.33,1.74-.68,2.62-1.02.87-.35,1.71-.71,2.5-1.1l3.1,2.67c-1.02,0-2.01.06-2.98.19-.97.13-1.92.32-2.86.57-.94.25-1.84.56-2.71.9-.87.35-1.71.73-2.5,1.14h-2.19Z"/>
      <path class="cls-1" d="M192.34,219.4c.16,1.05.26,2.07.31,3.07.05,1,.07,1.99.07,2.98v13.48c0,.66.1,1.18.29,1.55.19.37.46.64.81.83.35.19.74.32,1.19.38.44.06.94.1,1.48.1v2.86l-1.05.48c-2.1,0-3.52-.53-4.26-1.59-.75-1.06-1.12-2.45-1.12-4.17v-13.71c0-1.02-.02-2-.07-2.95-.05-.95-.12-1.95-.21-3l2.57-.28Z"/>
      <path class="cls-1" d="M201.29,245.11h-5.86v-2.52l1.05-.81h4.81v3.33ZM206.58,225.5c.79.28,1.52.79,2.17,1.52.65.73,1.19,1.73,1.62,3s.64,2.9.64,4.9v4.43c0,1.21-.21,2.18-.64,2.93-.43.75-1.02,1.33-1.78,1.76-.76.43-1.68.71-2.76.86-1.08.14-2.27.21-3.57.21h-2.29v-3.33h2.62c1.27,0,2.47-.07,3.59-.21,1.13-.14,1.96-.31,2.5-.5v-5.38c0-2.22-.37-3.98-1.1-5.28-.73-1.3-1.94-1.95-3.62-1.95h-2.91c-.41.67-.69,1.31-.83,1.93-.14.62-.21,1.18-.21,1.69s.06.99.19,1.43c.13.45.36.83.69,1.17.33.33.79.6,1.38.79.59.19,1.31.28,2.17.28.32,0,.71,0,1.17-.02.46-.01.93-.05,1.4-.09.48-.05.94-.1,1.38-.17s.83-.11,1.14-.14v1.52c-.41.25-.86.49-1.33.71-.48.22-.97.41-1.48.57s-1.02.29-1.55.38c-.52.1-1.04.14-1.55.14-1.81,0-3.24-.53-4.28-1.59-1.05-1.06-1.57-2.6-1.57-4.6,0-1.08.15-2.06.45-2.95.3-.89.74-1.67,1.31-2.33.57-.67,1.26-1.18,2.07-1.55.81-.36,1.71-.55,2.69-.55.73,0,1.49.14,2.29.43ZM201.77,218.69l2.29,2.29h.29l2.29-2.29-2.29-2.24h-.29l-2.29,2.24Z"/>
      <path class="cls-1" d="M223.05,232.69c-.06.63-.12,1.27-.17,1.9-.05.63-.07,1.21-.07,1.71,0,2.03.42,3.45,1.26,4.26.84.81,2.32,1.21,4.45,1.21h13.86l-2.14,3.33h-11.85c-1.37,0-2.56-.17-3.57-.5-1.02-.33-1.86-.82-2.52-1.45-.67-.63-1.16-1.44-1.48-2.4-.32-.97-.48-2.07-.48-3.31,0-.79.05-1.65.14-2.57.1-.92.21-1.74.33-2.48l2.24.29ZM229.71,227.5l2.19,2.19h.33l2.19-2.19-2.19-2.24h-.33l-2.19,2.24ZM234.52,227.5l2.19,2.19h.29l2.19-2.19-2.19-2.24h-.29l-2.19,2.24ZM247.95,231.26c.13.89.22,1.78.29,2.67.06.89.1,1.78.1,2.67v3.14c0,.89-.09,1.68-.26,2.36s-.49,1.25-.95,1.69c-.46.44-1.09.78-1.88,1-.79.22-1.83.33-3.1.33h-2l-1-.95v-1.43l.95-.95h5.52v-5.67c0-.79-.03-1.55-.1-2.29-.06-.73-.13-1.49-.19-2.29l2.62-.28Z"/>
      <path class="cls-1" d="M255.62,243.78c-.98-.6-1.6-1.38-1.86-2.33s-.38-1.9-.38-2.86v-12.95c0-1.02-.02-2-.07-2.95-.05-.95-.12-1.95-.21-3l2.57-.28c.16,1.05.26,2.07.31,3.07.05,1,.07,1.99.07,2.98v13.38c0,.89.22,1.52.67,1.88s.9.63,1.38.78v2.29h-2.48Z"/>
      <path class="cls-1" d="M258.09,241.49c1.05.29,2.2.48,3.45.57,1.25.09,2.51.11,3.76.05,1.25-.06,2.48-.18,3.67-.33,1.19-.16,2.24-.32,3.17-.48h2.19v1.86c-.86.44-1.83.83-2.9,1.14-1.08.32-2.21.57-3.38.76-1.17.19-2.37.31-3.59.36-1.22.05-2.38.01-3.48-.1-1.1-.11-2.11-.28-3.05-.52-.94-.24-1.71-.58-2.31-1.02v-2.29h2.48Z"/>
      <path class="cls-1" d="M279.42,233.88l-1.81,5c-.38.95-.83,1.77-1.33,2.45-.51.68-1.25,1.28-2.24,1.79h-2.57v-1.71c1.11-.22,1.94-.55,2.5-.98.55-.43.99-1.05,1.31-1.88l.57-1.47c.32-.83.66-1.64,1.02-2.43s.79-1.49,1.26-2.09c.48-.6,1.06-1.09,1.76-1.47.7-.38,1.56-.57,2.57-.57s1.97.19,2.76.57c.79.38,1.46.9,2,1.57.54.66.94,1.47,1.21,2.4.27.94.41,1.96.41,3.07,0,1.05-.12,2-.36,2.86-.24.86-.61,1.58-1.12,2.17-.51.59-1.13,1.04-1.86,1.36-.73.32-1.57.48-2.52.48s-1.84-.14-2.67-.43c-.83-.29-1.56-.65-2.21-1.1-.65-.44-1.22-.93-1.71-1.47-.49-.54-.87-1.06-1.12-1.57l.67-1.33c.83.76,1.72,1.38,2.69,1.86.97.48,2.13.71,3.5.71.92,0,1.78-.12,2.59-.36.81-.24,1.4-.58,1.79-1.02v-2.29c0-1.24-.42-2.23-1.26-2.98-.84-.75-1.93-1.12-3.26-1.12h-2.57Z"/>
      <path class="cls-1" d="M296.63,229.21c.43.16.83.32,1.21.48l.95.47c1.75.89,3.03,2.08,3.86,3.57.83,1.49,1.24,3.22,1.24,5.19v1.47c0,.83-.09,1.54-.26,2.14-.17.6-.45,1.1-.83,1.48-.38.38-.89.66-1.52.83-.63.18-1.43.26-2.38.26h-3.19c-.76,0-1.52-.04-2.26-.12-.75-.08-1.52-.2-2.31-.36l.29-2.86h10.14c0-.86-.03-1.7-.1-2.52-.06-.83-.24-1.62-.52-2.4-.29-.78-.71-1.5-1.26-2.17-.56-.67-1.36-1.27-2.4-1.81l-.72-.38c-.35-.19-.71-.37-1.09-.52-.38-.16-.78-.33-1.19-.52l1.05-2.67c.44.13.88.27,1.31.43ZM298.56,245.11v-3.33h7.57v2.57c0,.25-.11.44-.33.57s-.46.19-.71.19h-6.52Z"/>
      <path class="cls-1" d="M305.08,242.68l1.05-.9c1.56,0,2.95-.16,4.19-.48,1.24-.32,2.44-.69,3.59-1.12,1.16-.43,2.32-.85,3.5-1.26s2.49-.73,3.95-.95l1.9,2.38c-1.36,0-2.59.12-3.69.36-1.09.24-2.1.53-3.02.88-.92.35-1.81.73-2.67,1.14-.86.41-1.73.8-2.62,1.14-.89.35-1.83.64-2.83.88-1,.24-2.12.36-3.36.36v-2.43ZM325.41,240.35h-2.14c-1.05,0-1.94-.18-2.69-.55-.75-.37-1.45-.83-2.12-1.38-.67-.56-1.29-1.14-1.88-1.76-.59-.62-1.21-1.21-1.88-1.76-.67-.55-1.41-1.02-2.24-1.38-.83-.37-1.76-.55-2.81-.55-.54,0-1.08.04-1.62.12-.54.08-.97.17-1.29.26l-.29-2.86c.35-.16.79-.34,1.33-.55.54-.21,1.27-.31,2.19-.31,1.11,0,2.09.19,2.95.57.86.38,1.64.87,2.36,1.47.71.6,1.39,1.25,2.02,1.95.63.7,1.28,1.35,1.93,1.95.65.6,1.34,1.11,2.07,1.5.73.4,1.56.59,2.48.59h1.62l.24.24-.24,2.43ZM307.46,223.26l2.29,2.24h.29l2.24-2.24-2.24-2.29h-.29l-2.29,2.29Z"/>
    </g>
    <g>
      <path class="cls-1" d="M108.46,284.53v3.16h-15.73v-26.65h3.54v23.5h12.18Z"/>
      <path class="cls-1" d="M111.28,279.31v-12.57h3.43v12.22c0,4.61,1.98,6.24,4.72,6.24,3.08,0,5.86-2.06,5.86-7.12v-11.35h3.43v20.94h-3.35v-3.92h-.08c-1.22,2.97-3.66,4.49-6.78,4.49-4.53,0-7.23-3.16-7.23-8.95Z"/>
      <path class="cls-1" d="M139.77,276.95l-7.81-10.21h4.38l5.44,7.54h.08l5.45-7.54h4.38l-7.81,10.21,8.15,10.74h-4.34l-5.83-8.03h-.08l-5.86,8.03h-4.34l8.19-10.74Z"/>
      <path class="cls-1" d="M154.59,279.31v-12.57h3.43v12.22c0,4.61,1.98,6.24,4.72,6.24,3.08,0,5.86-2.06,5.86-7.12v-11.35h3.43v20.94h-3.35v-3.92h-.08c-1.22,2.97-3.66,4.49-6.78,4.49-4.53,0-7.23-3.16-7.23-8.95Z"/>
      <path class="cls-1" d="M177.75,266.75h3.35v3.66h.08c.99-2.21,2.13-3.66,5.48-3.66h2.02v3.05h-2.47c-3.5,0-5.03,2.09-5.03,6.09v11.8h-3.43v-20.94Z"/>
      <path class="cls-1" d="M189.44,292.26h5.56l2.44-5.71-8-19.8h3.73l5.98,15.8h.08l5.98-15.8h3.73l-10.85,26.96c-.42,1.07-1.22,1.6-2.36,1.6h-6.28v-3.04Z"/>
      <path class="cls-1" d="M219.84,284.64h9.1c2.32,0,3.88-1.14,3.88-3.12s-1.56-3.16-3.88-3.16h-2.97c-3.58,0-6.32-2.32-6.32-5.75,0-3.2,2.44-5.86,7.08-5.86h9.29v3.05h-9.29c-2.13,0-3.5.91-3.5,2.74s1.37,2.78,3.5,2.78h2.97c4.11,0,6.7,2.63,6.7,6.02s-2.78,6.36-7.46,6.36h-9.1v-3.05Z"/>
      <path class="cls-1" d="M239,277.22c0-6.74,4.19-11.04,10.2-11.04,5.64,0,9.94,3.73,9.94,9.94v2.25h-16.53c.27,3.92,2.67,6.93,6.66,6.93,2.89,0,5.14-1.56,5.98-4.04h3.69c-.88,4.11-4.68,7.01-9.67,7.01-6.17,0-10.28-4.38-10.28-11.04ZM255.56,275.43c0-3.73-2.36-6.28-6.25-6.28s-6.17,2.74-6.63,6.28h12.87Z"/>
      <path class="cls-1" d="M262.99,266.75h3.35v3.66h.08c.99-2.21,2.13-3.66,5.48-3.66h2.02v3.05h-2.47c-3.5,0-5.03,2.09-5.03,6.09v11.8h-3.43v-20.94Z"/>
      <path class="cls-1" d="M274.69,266.75h3.77l6.05,16.72h.04l6.05-16.72h3.77l-8.07,20.94h-3.54l-8.07-20.94Z"/>
      <path class="cls-1" d="M296.97,259.32h3.5v3.5h-3.5v-3.5ZM297.01,266.75h3.43v20.94h-3.43v-20.94Z"/>
      <path class="cls-1" d="M304.43,277.22c0-6.7,3.88-11.04,10.39-11.04,5.94,0,9.22,3.85,9.67,8.57h-3.58c-.23-3.01-2.36-5.6-6.09-5.6-4.23,0-6.82,3.35-6.82,8.07,0,4.99,2.97,8.07,6.82,8.07s5.75-2.86,6.09-5.18h3.58c-.57,4.3-3.92,8.15-9.67,8.15-6.21,0-10.39-4.34-10.39-11.04Z"/>
      <path class="cls-1" d="M327.17,277.22c0-6.74,4.19-11.04,10.2-11.04,5.64,0,9.94,3.73,9.94,9.94v2.25h-16.53c.27,3.92,2.67,6.93,6.66,6.93,2.89,0,5.14-1.56,5.98-4.04h3.69c-.88,4.11-4.68,7.01-9.67,7.01-6.17,0-10.28-4.38-10.28-11.04ZM343.74,275.43c0-3.73-2.36-6.28-6.25-6.28s-6.17,2.74-6.63,6.28h12.87Z"/>
      <path class="cls-1" d="M350.18,284.64h9.1c2.32,0,3.88-1.14,3.88-3.12s-1.56-3.16-3.88-3.16h-2.97c-3.58,0-6.32-2.32-6.32-5.75,0-3.2,2.44-5.86,7.08-5.86h9.29v3.05h-9.29c-2.13,0-3.5.91-3.5,2.74s1.37,2.78,3.5,2.78h2.97c4.11,0,6.7,2.63,6.7,6.02s-2.78,6.36-7.46,6.36h-9.1v-3.05Z"/>
    </g>
  </g>
  <g>
    <path class="cls-1" d="M198.04,138.34h4.24l5.98,17.06c.98,2.76,1.95,5.56,2.89,8.27h.08c.93-2.72,1.91-5.52,2.89-8.27l5.98-17.06h4.24l-11.12,29.7h-4.07l-11.12-29.7Z"/>
    <path class="cls-1" d="M228.04,138.34h3.95v29.7h-3.95v-29.7Z"/>
    <path class="cls-1" d="M238.52,138.34h12.69c5.94,0,10.23,3.35,10.23,9s-4.29,8.83-10.23,8.83h-8.74v11.88h-3.95v-29.7ZM250.74,152.64c4.07,0,6.58-1.99,6.58-5.3s-2.5-5.47-6.58-5.47h-8.27v10.78h8.27Z"/>
  </g>
</svg>