<?xml version="1.0" encoding="UTF-8"?>
<svg id="Layer_1" data-name="Layer 1" xmlns="http://www.w3.org/2000/svg" viewBox="0 0 459.47 433.64">
  <defs>
    <style>
      .cls-1 {
        fill: #02492e;
      }
    </style>
  </defs>
  <g>
    <g>
      <path class="cls-1" d="M193.08,227.68l-.75,3.05-7.15,1.81c-.21.21-.45.45-.72.75-.28.3-.54.61-.78.95s-.44.71-.62,1.12-.26.84-.26,1.28c0,.88.39,1.56,1.19,2.03.8.47,1.74.71,2.82.71.56,0,1.11-.06,1.65-.18.54-.12,1.07-.27,1.57-.44.5-.18.98-.4,1.43-.69.45-.28.89-.57,1.3-.86l.75,1.06c-.36.5-.8,1.01-1.32,1.52-.53.51-1.12.97-1.77,1.37-.65.39-1.35.72-2.12.97-.76.25-1.54.38-2.34.38-1.47,0-2.71-.46-3.73-1.39-1.02-.93-1.52-2.27-1.52-4.03,0-1,.18-1.89.55-2.67.37-.78.85-1.46,1.46-2.05.6-.59,1.28-1.08,2.03-1.47.75-.4,1.49-.73,2.22-.99l6.09-2.21ZM182.18,220.89l2.03,2.03h.31l2.03-2.03-2.03-2.07h-.31l-2.03,2.07ZM186.6,220.89l2.07,2.03h.26l2.03-2.03-2.03-2.07h-.26l-2.07,2.07ZM194.18,225.21v12.26c0,.71.17,1.25.51,1.63.33.38.8.66,1.39.84v2.07l-2.29.04c-.74-.44-1.25-1.05-1.55-1.83-.29-.78-.44-1.76-.44-2.94v-8.43c0-.62,0-1.2.02-1.74.02-.54.07-1.13.15-1.74l2.21-.18Z"/>
      <path class="cls-1" d="M196.08,239.94c1.59.47,3.29.81,5.1,1.01,1.81.21,3.65.33,5.52.36,1.87.03,3.71,0,5.52-.11,1.81-.1,3.5-.24,5.07-.4,1.57-.16,2.98-.34,4.21-.55,1.23-.21,2.19-.37,2.87-.48l2.03.35v1.37c-.85.47-2.09.91-3.71,1.32-1.62.41-3.45.75-5.49,1.04-2.04.28-4.2.47-6.46.57-2.27.1-4.47.1-6.6,0-2.13-.1-4.1-.34-5.91-.72-1.81-.39-3.29-.93-4.44-1.63v-1.46l2.29-.66Z"/>
      <path class="cls-1" d="M229.69,235.62c-.26.68-.5,1.26-.7,1.77-.21.5-.47,1.04-.8,1.63-.26.53-.55,1.03-.86,1.5-.31.47-.63.79-.95.97l-2.03-.04v-1.68c.12-.06.28-.11.48-.15.21-.05.36-.07.44-.07l2.47-4.68.31-.09,1.63.84ZM238.74,234.91l-1.28,4.32c-.33,1.26-.9,2.26-1.72,2.98-.83.72-1.9,1.08-3.22,1.08-.73,0-1.4-.09-1.98-.27s-1.12-.41-1.59-.7c-.47-.3-.88-.64-1.23-1.04-.35-.4-.66-.79-.93-1.17l1.02-1.28c.18.12.43.26.77.42.34.16.71.31,1.12.44s.84.25,1.28.35c.44.11.87.15,1.28.15.59,0,1.1-.03,1.53-.11.42-.07.74-.14.95-.2l1.72-5.38.31-.13,1.99.53ZM232.38,228.6l2.03,1.99h.31l2.03-1.99-2.03-2.07h-.31l-2.03,2.07ZM234.59,224.5l2.07,2.07h.26l2.07-2.07-2.07-2.12h-.26l-2.07,2.12ZM244.25,231.47c.12.83.21,1.65.27,2.49s.09,1.65.09,2.45v2.38c0,.71-.11,1.34-.33,1.9-.22.56-.51,1.03-.88,1.41-.36.38-.82.68-1.37.88-.54.21-1.12.31-1.74.31-.74,0-1.36-.12-1.88-.35-.51-.24-.96-.53-1.32-.88-.37-.36-.68-.76-.93-1.21-.25-.46-.46-.87-.64-1.26l.79-.97c.41.44.87.81,1.39,1.12.51.31,1.26.46,2.22.46.24,0,.53-.02.88-.06.36-.04.8-.15,1.32-.33v-3.4c0-.79-.02-1.56-.06-2.29-.05-.73-.11-1.51-.2-2.34l2.38-.31ZM236.84,228.6l2.03,1.99h.27l2.03-1.99-2.03-2.07h-.27l-2.03,2.07Z"/>
      <path class="cls-1" d="M251.4,219.48c.15.97.24,1.92.29,2.85s.06,1.84.06,2.76v12.48c0,.62.09,1.1.27,1.43.18.34.42.6.75.78.33.18.69.29,1.1.35s.87.09,1.37.09v2.65l-.97.44c-1.94,0-3.26-.49-3.95-1.48-.69-.99-1.04-2.27-1.04-3.86v-12.71c0-.94-.02-1.85-.06-2.73-.05-.88-.11-1.81-.2-2.78l2.38-.27Z"/>
      <path class="cls-1" d="M270.27,242.06c-.53.12-1.31.25-2.34.39-1.03.15-2.19.29-3.48.42-1.29.13-2.64.24-4.04.31-1.4.07-2.74.11-4.04.11h-2.12v-2.34l.97-.75h2.21c1.32,0,2.48-.02,3.46-.06.99-.04,1.93-.1,2.85-.18.91-.07,1.85-.16,2.8-.27.95-.1,2.1-.23,3.42-.37l.22.18.09,2.56ZM265.07,230.73c-.59-.06-1.13-.09-1.63-.09h-3.04c-.5.62-.89,1.31-1.17,2.07-.28.76-.42,1.51-.42,2.25,0,.62.17,1.24.51,1.87.33.63.92,1.17,1.74,1.61s1.96.75,3.42.93c1.45.18,3.29.16,5.49-.04-.26.12-.69.31-1.28.57-.59.27-1.22.53-1.9.8-.68.26-1.34.51-1.98.75-.65.24-1.15.39-1.5.48-1.12-.3-2.08-.67-2.89-1.13-.81-.45-1.49-.99-2.05-1.61-.56-.62-.97-1.3-1.23-2.05-.27-.75-.4-1.55-.4-2.4,0-1.03.18-1.99.55-2.89s.86-1.66,1.48-2.29c.62-.63,1.33-1.13,2.14-1.5.81-.37,1.67-.55,2.58-.55.38,0,.77.03,1.15.09.38.06.74.14,1.08.24.34.1.66.21.95.31.3.1.53.21.71.33l-.22,2.38-.22.18c-.65-.15-1.26-.25-1.85-.31Z"/>
      <path class="cls-1" d="M278.75,250.53v1.54l-7.32.88v-1.54l7.32-.88ZM277.37,247.57c-.26-.06-.54-.11-.84-.15-.3-.04-.56-.06-.79-.06-.71,0-1.24.14-1.61.42-.37.28-.55.6-.55.95,0,.24.09.48.27.75s.45.49.84.69c.38.19.9.33,1.56.42.66.09,1.49.07,2.49-.04v1.15c-1.32.15-2.4.15-3.24.02s-1.49-.36-1.94-.69c-.45-.32-.77-.7-.95-1.14s-.27-.85-.27-1.24c0-.85.28-1.56.84-2.12s1.39-.82,2.51-.79c.24,0,.52.02.86.07.34.04.61.09.81.15v1.63ZM273.89,243.29v-17.82c0-.97-.01-1.88-.04-2.71-.03-.84-.1-1.85-.22-3.02l2.38-.27c.18.97.28,1.97.31,3,.03,1.03.05,2.04.05,3.04v17.56l-.22.22h-2.25Z"/>
    </g>
    <g>
      <path class="cls-1" d="M161.6,277.68c0-7.54,4.4-12.34,11.7-12.34,6.8,0,10.52,4.33,10.99,9.57h-3.96c-.27-3.38-2.64-6.36-7.03-6.36-4.77,0-7.68,3.35-7.68,9.13s3.28,9.2,7.68,9.2,6.66-3.18,7.03-5.99h3.96c-.61,4.9-4.36,9.2-10.99,9.2-6.96,0-11.7-4.87-11.7-12.41Z"/>
      <path class="cls-1" d="M193.08,290.09c-3.58,0-6.39-2.03-6.39-5.92,0-4.23,3.38-5.85,7.07-5.85h2.98c1.86,0,2.74-.78,2.74-2.13,0-1.86-1.69-2.77-3.86-2.77-2.57,0-4.29,1.29-4.46,3.55h-3.75c.27-3.99,2.88-6.56,8.18-6.56s7.54,2.7,7.54,6.39v8.46c0,.88.34,1.22,1.22,1.22h.78v3.08h-2.44c-1.92,0-3.04-1.05-3.04-2.77v-.88h-.06c-1.19,2.84-3.59,4.19-6.5,4.19ZM194.02,287.05c2.81,0,5.45-1.83,5.45-5.92v-1.93h-.07c-.61,1.29-1.72,1.89-3.82,1.93l-1.45.03c-2.57.03-3.58,1.35-3.58,2.94s1.01,2.94,3.48,2.94Z"/>
      <path class="cls-1" d="M208.9,284.58v-10.55h-3.65v-3.08h3.65v-5.07h3.66v5.07h5.78v3.08h-5.78v10.25c0,1.59.81,2.2,2.23,2.2h3.69v3.08h-4.56c-3.28,0-5.01-1.66-5.01-4.97Z"/>
      <path class="cls-1" d="M219.49,280.25c0-6.09,3.75-9.84,9.13-9.84,5.07,0,8.9,3.24,8.9,9v1.96h-14.14c.17,3.32,2.13,5.72,5.31,5.72,2.34,0,4.09-1.25,4.77-3.25h3.85c-.81,3.69-4.12,6.26-8.66,6.26-5.48,0-9.16-3.79-9.16-9.84ZM233.76,278.53c0-3.01-1.86-5.11-5.04-5.11s-4.97,2.23-5.31,5.11h10.35Z"/>
      <path class="cls-1" d="M240.63,270.95h3.58v3.08h.07c.91-1.89,1.99-3.08,4.7-3.08h1.83v3.08h-2.4c-2.84,0-4.12,1.62-4.12,4.94v10.59h-3.65v-18.6Z"/>
      <path class="cls-1" d="M253.04,264.12h3.72v3.62h-3.72v-3.62ZM253.07,270.95h3.65v18.6h-3.65v-18.6Z"/>
      <path class="cls-1" d="M261.36,270.95h3.58v3.18h.07c1.15-2.34,3.24-3.72,5.95-3.72,3.85,0,6.29,2.7,6.29,7.74v11.4h-3.65v-11.02c0-3.62-1.59-5.04-3.86-5.04-2.4,0-4.73,1.59-4.73,5.71v10.35h-3.65v-18.6Z"/>
      <path class="cls-1" d="M280.03,292.12c0-1.86,1.05-3.32,3.18-3.86v-.07c-1.39-.51-2.3-1.62-2.3-3.08,0-1.72,1.25-2.81,2.81-2.97l.44-.03v-.07c-2.13-.88-3.48-2.74-3.48-5.28,0-4.06,3.38-6.36,7.47-6.36,2.67,0,5.01,1.02,6.32,2.81h.1c.1-1.42.91-2.27,2.34-2.27h.78v3.08h-1.29c-.71,0-.98.27-1.05.88.17.58.27,1.19.27,1.86,0,3.96-3.28,6.39-7.41,6.39h-2.3c-1.11,0-1.79.37-1.79,1.29,0,.84.61,1.32,1.79,1.32h5.95c3.75,0,6.02,2.03,6.02,5.24s-2.26,5.31-6.02,5.31h-6.19c-3.79,0-5.65-1.76-5.65-4.19ZM286.01,293.54h5.48c1.72,0,2.77-.88,2.77-2.4s-1.05-2.37-2.77-2.37h-5.48c-1.86,0-2.81.98-2.81,2.4s.88,2.37,2.81,2.37ZM288.14,280.36c2.1,0,3.96-1.05,3.96-3.48s-1.86-3.45-3.96-3.45-3.92,1.05-3.92,3.45,1.86,3.48,3.92,3.48Z"/>
    </g>
  </g>
  <g id="food">
    <path class="cls-1" d="M235.77,146.01h-3v-2.65c0-1.68-1.36-3.04-3.04-3.04s-3.04,1.36-3.04,3.04v2.65h-3v-2.65c0-3.33,2.71-6.04,6.04-6.04s6.04,2.71,6.04,6.04v2.65Z"/>
    <g>
      <rect class="cls-1" x="200.6" y="184.75" width="58.28" height="3"/>
      <path class="cls-1" d="M257.84,181.39h-56.21v-1.5c0-9.25,2.88-17.95,8.12-24.51,5.32-6.66,12.41-10.33,19.99-10.33s14.67,3.67,19.99,10.33c5.24,6.56,8.12,15.27,8.12,24.51v1.5ZM204.66,178.4h50.16c-.62-16.87-11.63-30.35-25.08-30.35s-24.46,13.48-25.08,30.35Z"/>
    </g>
  </g>
</svg>