<?xml version="1.0" encoding="UTF-8"?>
<svg id="Layer_1" data-name="Layer 1" xmlns="http://www.w3.org/2000/svg" viewBox="0 0 974.23 211.53">
  <defs>
    <style>
      .cls-1, .cls-2 {
        fill: #02492e;
      }

      .cls-2 {
        fill-rule: evenodd;
      }
    </style>
  </defs>
  <g>
    <path class="cls-1" d="M0,156.92l8.93-1.02v24.89c0,3.37.73,5.86,2.34,7.61,1.46,1.76,3.95,2.49,7.32,2.49s5.86-.88,7.32-2.49,2.2-4.25,2.2-7.61v-23.86l8.93-1.02v26.79c0,4.39-1.61,8.2-4.69,11.13s-7.76,4.39-13.76,4.39-10.83-1.46-13.91-4.54S0,186.94,0,182.54v-25.77H0v.15Z"/>
    <path class="cls-1" d="M86.24,166.73c3.51,0,6.15,1.02,7.91,2.93,1.9,1.9,2.78,4.69,2.78,8.49v19.62h-8.64v-19.33c0-3.37-1.9-5.12-5.56-5.12s-4.39.88-6.15,2.93v21.82h-8.64v-19.33c0-3.37-1.9-5.12-5.56-5.12s-4.25.88-6,2.93v21.67h-8.64v-30.31h7.76l.73,4.39c2.2-3.37,5.42-4.98,9.52-4.98s8.35,2.05,9.81,6c2.49-4.1,5.86-6.15,10.4-6.15l.29-.44Z"/>
    <path class="cls-1" d="M127.08,175.22c-2.49,0-4.69.29-6.59,1.02s-3.51,1.61-4.54,2.64v18.74h-8.64v-30.31h7.76l.73,6.88c1.02-2.34,2.64-4.1,4.54-5.42s3.95-2.05,6-2.05l.73,8.49h0Z"/>
    <path class="cls-1" d="M164.86,191.77c.73,0,1.32,0,1.9-.29v6c-1.46.44-2.93.59-4.69.59-4.25,0-6.73-1.61-7.61-4.98-2.64,3.37-6.15,4.98-10.83,4.98s-5.71-.88-7.47-2.49c-1.9-1.61-2.78-3.81-2.78-6.3s1.32-6,3.95-7.61c2.64-1.61,6.3-2.49,10.83-2.49s3.37,0,5.86.29v-2.05c0-3.07-2.34-4.54-6.88-4.54s-7.32.73-10.98,2.34l-1.46-6.15c3.95-1.76,8.49-2.49,13.62-2.49s8.2,1.02,10.69,2.93c2.49,2.05,3.66,4.83,3.66,8.49v10.98c0,.88,0,1.61.44,2.05.29.44.88.73,1.76.73h0ZM146.85,191.77c2.64,0,4.98-1.02,7.17-3.07v-3.95c-1.61-.29-3.37-.44-5.27-.44-4.39,0-6.59,1.32-6.59,3.81s.44,2.2,1.32,2.78c.88.73,2.05,1.02,3.51,1.02l-.15-.15Z"/>
    <path class="cls-1" d="M191.8,166.73c3.51,0,6.15,1.02,7.91,2.93,1.9,1.9,2.78,4.69,2.78,8.49v19.62h-8.64v-19.33c0-3.37-1.9-5.12-5.56-5.12s-4.39.88-6.15,2.93v21.67h-8.64v-43.19l8.64-1.02v18.15c2.34-3.37,5.42-4.98,9.66-4.98v-.15Z"/>
    <path class="cls-1" d="M264.86,198.06l-7.61-5.71c-3.37,3.95-8.2,5.86-14.49,5.86s-8.35-1.02-11.13-3.07c-2.78-2.05-4.25-4.98-4.25-8.64s2.49-8.78,7.61-11.13c-2.64-2.64-3.95-5.42-3.95-8.35s.44-3.81,1.32-5.27,2.05-2.64,3.37-3.51c1.46-.88,2.93-1.46,4.54-1.9s3.22-.59,4.83-.59c4.54,0,8.64,1.17,12.3,3.37v6.88c-3.95-2.49-7.61-3.66-11.13-3.66s-3.22.29-4.54,1.02-1.9,1.9-1.9,3.37.29,1.9.88,2.78c.59.88,1.17,1.61,1.9,2.2.59.59,1.76,1.32,3.22,2.49.44.29.73.59,1.02.73l6.59,5.12c.59-1.46.88-3.51.88-5.86h8.2c0,4.25-.44,7.91-1.46,10.83l3.95,3.07v9.96h-.15ZM242.6,181.52c-1.9-1.46-2.78-2.2-2.93-2.2-2.2,1.61-3.22,3.51-3.22,5.86s.59,3.07,1.76,4.25c1.17,1.17,2.78,1.76,4.83,1.76,3.07,0,5.56-1.17,7.47-3.51l-7.91-6.15Z"/>
    <path class="cls-1" d="M319.47,190.45l1.02,7.17h-32.94v-5.86l20.94-28.11h-19.77v-7.17h31.04v5.86l-20.94,28.11h20.64Z"/>
    <path class="cls-1" d="M333.82,163.07l-6-5.71,6-5.71,5.86,5.71-5.86,5.71ZM337.92,197.62h-8.64v-30.31h8.64v30.31Z"/>
    <path class="cls-1" d="M371.59,167.32h8.78l-14.2,31.92c-1.9,4.25-3.81,7.32-6,9.37s-5.12,2.93-8.78,2.93-3.81-.29-5.27-.73l1.02-6.15c1.46.29,2.93.44,4.1.44s2.78-.44,3.81-1.17,2.05-2.05,2.93-3.81l1.17-2.49-13.47-30.31h8.78l8.78,20.35,8.35-20.35h0Z"/>
    <path class="cls-1" d="M418.3,191.77c.73,0,1.32,0,1.9-.29v6c-1.46.44-2.93.59-4.69.59-4.25,0-6.73-1.61-7.61-4.98-2.64,3.37-6.15,4.98-10.83,4.98s-5.71-.88-7.47-2.49-2.78-3.81-2.78-6.3,1.32-6,3.95-7.61c2.64-1.61,6.3-2.49,10.83-2.49s3.37,0,5.86.29v-2.05c0-3.07-2.34-4.54-6.88-4.54s-7.32.73-10.98,2.34l-1.46-6.15c3.95-1.76,8.49-2.49,13.62-2.49s8.2,1.02,10.69,2.93c2.49,2.05,3.66,4.83,3.66,8.49v10.98c0,.88,0,1.61.44,2.05.29.44.88.73,1.76.73h0ZM400.29,191.77c2.64,0,4.98-1.02,7.17-3.07v-3.95c-1.61-.29-3.37-.44-5.27-.44-4.39,0-6.59,1.32-6.59,3.81s.44,2.2,1.32,2.78c.88.73,2.05,1.02,3.51,1.02l-.15-.15Z"/>
    <path class="cls-1" d="M446.85,175.22c-2.49,0-4.69.29-6.59,1.02s-3.51,1.61-4.54,2.64v18.74h-8.64v-30.31h7.76l.73,6.88c1.02-2.34,2.64-4.1,4.54-5.42s3.95-2.05,6-2.05l.73,8.49h0Z"/>
    <path class="cls-1" d="M484.62,191.77c.73,0,1.32,0,1.9-.29v6c-1.46.44-2.93.59-4.69.59-4.25,0-6.73-1.61-7.61-4.98-2.64,3.37-6.15,4.98-10.83,4.98s-5.71-.88-7.47-2.49-2.78-3.81-2.78-6.3,1.32-6,3.95-7.61c2.64-1.61,6.3-2.49,10.83-2.49s3.37,0,5.86.29v-2.05c0-3.07-2.34-4.54-6.88-4.54s-7.32.73-10.98,2.34l-1.46-6.15c3.95-1.76,8.49-2.49,13.62-2.49s8.2,1.02,10.69,2.93c2.49,2.05,3.66,4.83,3.66,8.49v10.98c0,.88,0,1.61.44,2.05.29.44.88.73,1.76.73h0ZM466.76,191.77c2.64,0,4.98-1.02,7.17-3.07v-3.95c-1.61-.29-3.37-.44-5.27-.44-4.39,0-6.59,1.32-6.59,3.81s.44,2.2,1.32,2.78c.88.73,2.05,1.02,3.51,1.02l-.15-.15Z"/>
    <path class="cls-1" d="M511.71,166.73c3.51,0,6.15,1.02,7.91,2.93,1.9,1.9,2.78,4.69,2.78,8.49v19.62h-8.64v-19.33c0-3.37-1.9-5.12-5.56-5.12s-4.39.88-6.15,2.93v21.67h-8.64v-43.19l8.64-1.02v18.15c2.2-3.37,5.42-4.98,9.66-4.98v-.15Z"/>
    <path class="cls-1" d="M549.48,197.62v-41.29h29.72v7.17h-20.79v11.42h18.59l1.02,7.17h-19.62v15.37h-8.93v.15Z"/>
    <path class="cls-1" d="M603.65,166.73c5.27,0,9.37,1.46,12.44,4.54,2.93,3.07,4.39,6.73,4.39,11.27s-1.46,8.2-4.39,11.27c-2.93,3.07-7.17,4.54-12.44,4.54s-9.52-1.46-12.44-4.54c-2.93-2.93-4.39-6.73-4.39-11.27s1.46-8.2,4.39-11.27c2.93-3.07,7.17-4.54,12.44-4.54ZM603.65,191.77c2.64,0,4.69-.88,6-2.78,1.32-1.76,2.05-4.1,2.05-6.59s-.73-4.83-2.05-6.59-3.37-2.78-6-2.78-4.83.88-6.15,2.78-2.05,4.1-2.05,6.59.73,4.83,2.05,6.59,3.37,2.78,6.15,2.78Z"/>
    <path class="cls-1" d="M649.48,175.22c-2.49,0-4.69.29-6.59,1.02s-3.51,1.61-4.54,2.64v18.74h-8.64v-30.31h7.76l.73,6.88c1.02-2.34,2.64-4.1,4.54-5.42s3.95-2.05,6-2.05l.73,8.49h0Z"/>
    <path class="cls-1" d="M677.15,167.32h8.64v30.31h-7.76l-.73-4.39c-2.2,3.37-5.42,4.98-9.52,4.98s-6.15-1.02-7.91-2.93c-1.9-1.9-2.78-4.69-2.78-8.49v-19.18l8.64-1.02v20.06c0,1.61.44,2.93,1.46,3.81s2.34,1.32,4.1,1.32,4.25-.88,6.15-2.93v-21.67h0l-.29.15Z"/>
    <path class="cls-1" d="M734.69,166.73c3.51,0,6.15,1.02,7.91,2.93,1.9,1.9,2.78,4.69,2.78,8.49v19.62h-8.64v-19.33c0-3.37-1.9-5.12-5.56-5.12s-4.39.88-6.15,2.93v21.82h-8.64v-19.33c0-3.37-1.9-5.12-5.56-5.12s-4.25.88-6,2.93v21.67h-8.64v-30.31h7.76l.73,4.39c2.2-3.37,5.42-4.98,9.52-4.98s8.35,2.05,9.81,6c2.34-4.1,5.86-6.15,10.4-6.15l.29-.44Z"/>
  </g>
  <g>
    <path class="cls-1" d="M19.03,68.93c-5.27,0-9.66,1.9-13.18,5.86s-5.27,8.64-5.27,14.2,1.76,9.96,5.12,13.62c3.51,3.66,7.91,5.56,13.18,5.56s9.81-1.9,13.18-5.56c3.51-3.66,5.12-8.2,5.12-13.62s-1.76-10.25-5.27-14.2-7.91-5.86-13.18-5.86h.29ZM25.18,94.99c-1.61,1.76-3.66,2.64-6.15,2.64s-4.54-.88-6.15-2.64c-1.61-1.76-2.49-3.81-2.49-6.3s.88-4.69,2.49-6.59c1.61-1.9,3.66-2.78,6.15-2.78s4.39.88,6.15,2.78c1.61,1.9,2.49,3.95,2.49,6.59,0,2.49-.73,4.54-2.49,6.3Z"/>
    <polygon class="cls-1" points="18.89 57.51 25.18 63.51 32.65 56.19 25.04 48.87 18.89 54.87 12.74 48.87 5.27 56.19 12.74 63.51 18.89 57.51"/>
    <path class="cls-1" d="M49.78,105.09c0,7.03-3.95,10.54-11.86,10.54l.73,8.49c7.17,0,12.59-1.46,15.96-4.39,3.51-2.93,5.12-7.61,5.12-14.2v-37.04l-10.25,1.17v35.43h.29Z"/>
    <polygon class="cls-1" points="130.16 117.68 124.16 111.83 116.69 119.29 124.3 126.62 130.16 120.76 136.16 126.62 143.63 119.29 136.16 111.83 130.16 117.68"/>
    <path class="cls-1" d="M124.45,107.44c11.86,0,17.72-5.27,17.72-15.81v-23.13l-10.25,1.17v18.45c0,5.71-2.49,8.49-7.47,8.49h-36.46c-2.64,0-4.54-.73-5.71-2.05-1.17-1.46-1.76-3.51-1.76-6.59v-37.04l-10.4,1.32v39.09c0,10.69,6,16.11,17.86,16.11h36.46Z"/>
    <polygon class="cls-1" points="169.25 56.78 161.64 49.46 154.32 56.78 161.78 64.24 169.25 56.78"/>
    <path class="cls-1" d="M182.72,87.96c0,2.93-.59,5.12-1.76,6.59-1.17,1.46-3.07,2.05-5.71,2.05s0,0,0,0h0c-2.2,0-3.95-.44-5.56-1.46-1.46-1.02-2.49-2.64-2.78-4.69v-21.96l-10.25,1.17v35.28c0,7.03-3.81,10.54-11.71,10.54l.73,8.49c7.17,0,12.59-1.46,15.96-4.39,3.51-2.93,5.12-7.61,5.12-14.2v-1.46c2.05,2.34,4.83,3.37,8.35,3.37h0c11.86,0,17.86-5.42,17.86-16.11v-40.41l-10.25,1.32v35.87Z"/>
    <polygon class="cls-1" points="204.68 107.44 215.08 107.44 215.08 50.92 204.68 52.24 204.68 107.44"/>
    <path class="cls-1" d="M242.16,68.93c-5.27,0-9.66,1.9-13.32,5.56-3.51,3.66-5.27,8.35-5.27,13.91s1.61,10.4,4.98,13.91c3.22,3.51,7.61,5.12,13.03,5.12s5.12-.59,7.91-1.9c0,3.66-1.76,6.15-5.27,7.76s-8.93,2.34-16.4,2.34l1.02,8.49c20.64,0,30.89-6.15,30.89-18.45v-18.15c0-5.71-1.61-10.25-4.98-13.62-3.22-3.37-7.47-4.98-12.59-4.98h0ZM249.48,96.16c-2.49.73-4.83,1.02-6.88,1.02-2.93,0-5.42-.73-7.17-2.2s-2.64-3.81-2.64-6.73.88-4.83,2.49-6.44c1.61-1.61,3.66-2.49,6-2.49s4.39.73,5.86,2.34,2.2,3.81,2.2,6.59v7.91h.15Z"/>
    <polygon class="cls-1" points="300.73 57.51 307.02 63.51 314.49 56.19 307.02 48.87 300.73 54.87 294.58 48.87 287.11 56.19 294.72 63.51 300.73 57.51"/>
    <path class="cls-1" d="M300.87,68.93c-5.27,0-9.66,1.9-13.18,5.86s-5.27,8.64-5.27,14.2,1.76,9.96,5.12,13.62c3.51,3.66,7.91,5.56,13.18,5.56s9.81-1.9,13.18-5.56c3.51-3.66,5.12-8.2,5.12-13.62s-1.76-10.25-5.27-14.2-7.91-5.86-13.18-5.86h.29ZM307.02,94.99c-1.61,1.76-3.66,2.64-6.15,2.64s-4.54-.88-6.15-2.64-2.49-3.81-2.49-6.3.88-4.69,2.49-6.59,3.66-2.78,6.15-2.78,4.39.88,6.15,2.78c1.61,1.9,2.49,3.95,2.49,6.59,0,2.49-.73,4.54-2.49,6.3Z"/>
    <path class="cls-1" d="M448.31,87.96c0,2.93-.59,5.12-1.76,6.59s-3.07,2.05-5.71,2.05,0,0-.15,0h-.15c-4.1,0-7.61-.15-10.54-.73,5.12-4.39,7.61-9.37,7.61-14.93s-1.76-7.91-5.12-10.54c-3.37-2.78-7.76-4.1-13.18-4.1s-12.01,1.76-19.18,5.27l-3.51,8.49c3.07,6,6.44,11.27,10.1,15.81-3.66.44-7.76.73-12.15.73h-4.83c1.32-3.81,1.9-7.47,1.9-10.83,0-4.83-1.76-8.93-5.27-12.3-3.51-3.37-7.76-5.12-12.74-5.12s-9.81,1.76-13.32,5.27c-3.51,3.51-5.27,7.91-5.27,13.32s.44,6,1.61,8.64c-1.9.73-3.95,1.02-6.15,1.02h0c-2.2,0-3.95-.44-5.56-1.46-1.46-1.02-2.49-2.64-2.78-4.69v-21.96l-10.25,1.17v35.28c0,7.03-3.81,10.54-11.71,10.54l.73,8.49c7.17,0,12.59-1.46,15.96-4.39,3.51-2.93,5.12-7.61,5.12-14.2v-1.46c2.05,2.34,4.83,3.37,8.35,3.37h0c4.1,0,8.35-1.32,12.44-3.81,3.66,2.49,8.05,3.81,13.32,3.81h18.3c5.71,0,10.4-.29,14.06-1.02s7.32-1.9,11.13-3.66c5.71,3.07,12.59,4.69,20.94,4.69s0,0,0,0h0c11.86,0,17.86-5.42,17.86-16.11v-40.41l-10.25,1.32v35.72l.15.15ZM380.37,96.6h-4.69c-3.22,0-5.86-.88-7.91-2.64-1.9-1.76-2.93-4.1-2.93-7.03s.73-4.69,2.34-6.3,3.66-2.34,6.15-2.34,4.39.88,6,2.78,2.34,3.95,2.34,6.3c0,2.64-.59,5.71-1.61,9.37l.29-.15ZM424.74,90.16c-1.9,2.05-4.39,3.66-7.61,4.98-4.1-4.39-7.76-9.81-10.98-16.25,4.25-1.76,8.05-2.64,11.42-2.64,2.93,0,5.42.88,7.17,2.34s2.64,3.37,2.64,5.71-.88,3.95-2.78,5.86h.15Z"/>
    <polygon class="cls-1" points="470.27 107.44 480.52 107.44 480.52 50.92 470.27 52.24 470.27 107.44"/>
    <path class="cls-1" d="M556.95,69.66c-5.12,0-9.08,1.46-11.86,4.54-2.78,3.07-4.1,7.17-4.1,12.3v13.32c0,4.98-1.02,8.35-2.93,10.4-2.05,2.05-5.27,3.07-9.96,3.07s-7.61-1.02-9.81-3.22-3.37-5.27-3.37-9.37c0-3.81.73-8.05,2.34-13.03l-8.35-2.2c-2.34,6.88-3.37,13.03-3.37,18.15s1.9,11.86,5.86,15.37,9.37,5.12,16.69,5.12,14.2-1.9,17.72-5.86c3.66-3.81,5.42-9.52,5.42-17.13v-12.3c0-5.56,2.49-8.35,7.61-8.35h4.98v27.67l10.25-1.32v-31.77l-6.15-5.56h-10.98v.15Z"/>
    <polygon class="cls-1" points="668.95 66 675.25 72 682.57 64.68 675.1 57.36 668.95 63.37 662.65 57.36 655.33 64.68 662.8 72 668.95 66"/>
    <polygon class="cls-1" points="703.94 64.24 696.33 56.92 689.01 64.24 696.48 71.71 703.94 64.24"/>
    <path class="cls-1" d="M744.35,73.61c-3.51-3.51-7.91-5.27-13.32-5.27s-9.81,1.76-13.18,5.12c-3.51,3.37-5.12,7.76-5.12,13.18s.88,6.3,2.64,9.96h-5.27c-3.07,0-6-.88-8.64-2.64v-17.42l-10.25,1.32v10.4c0,5.71-2.49,8.49-7.47,8.49h0c-3.37,0-6.44-.88-9.22-2.93v-17.13l-10.25,1.32v10.4c0,2.93-.88,5.12-2.49,6.44-1.61,1.32-4.25,2.05-7.61,2.05h-30.01c-3.07,0-5.86-.73-8.2-2.34v-8.78c0-5.42-1.61-9.81-4.83-12.88s-7.47-4.69-12.74-4.69h-7.32v10.54h5.12c2.78,0,5.12.73,6.73,2.34,1.76,1.46,2.64,3.51,2.64,5.86v3.22c0,2.2-.59,3.81-1.9,4.98-1.32,1.17-3.22,1.9-5.71,1.9h-19.33l1.61,10.83h17.72c6.44,0,11.27-1.61,14.2-4.83,3.51,3.22,7.32,4.83,11.71,4.83h30.01c8.2,0,13.91-1.9,17.13-5.86,3.81,3.81,8.05,5.86,12.44,5.86h0c6.59,0,11.42-1.61,14.35-4.98,3.51,3.37,7.47,4.98,12.01,4.98h17.57c6.73,0,12.15-1.9,16.11-5.56s5.86-8.78,5.86-15.08c0-5.42-1.76-9.66-5.27-13.18l.29-.44ZM736.3,93.97c-2.05,1.76-4.83,2.64-8.49,2.64h-2.93c-1.9-3.37-2.78-6.59-2.78-9.52s.88-4.54,2.64-6.3,3.81-2.64,6.15-2.64,4.39.73,6,2.49,2.49,3.66,2.49,6.15c0,3.07-1.02,5.42-3.07,7.17h0Z"/>
  </g>
  <g>
    <polyline class="cls-2" points="814.7 164.99 814.7 190 955.27 190 955.27 146.97 974.11 146.97 974.11 208.13 795.85 208.13 795.85 146.97 814.7 146.97 814.7 146.5"/>
    <g>
      <path class="cls-1" d="M795.85,118.17c.36.95,1.42,1.66,2.84,1.54,2.13,0,3.08-.95,2.96-2.96-.24-2.13-2.61-3.08-5.33-3.08s-.36,0-.47,0v4.5h0Z"/>
      <rect class="cls-1" x="795.85" y="135.95" width="178.38" height="4.98"/>
      <g>
        <path class="cls-1" d="M965.58,117.81c-.83.83-1.19,2.37-1.19,3.67,0,.24.24.36.47.24,3.79-2.13,7.11-2.84,9.24-2.96v-2.73c-1.42-.47-2.61-1.66-3.56-3.91,0-.12-.24-.24-.47-.24-.83.24-1.3.71-1.78,1.54-2.61-.95-5.45,0-6.04.24v.12c.24.47,1.3,2.73,3.44,3.91l-.12.12Z"/>
        <path class="cls-1" d="M974.11,121.25c-2.01,1.42-4.39,2.84-6.99,4.15-4.5,1.78-8.06,2.61-10.9,1.42-1.78-.83-2.73-3.32-3.08-4.62,0-.24-.36-.24-.59,0-.71,1.3-2.25,4.74,0,7.35h-.36c-1.78,0-3.56-.71-5.22-1.54-3.32-3.32-4.15-6.28-2.96-8.42.83-1.54,2.37-2.61,3.91-2.61-.36,1.42.83,2.96,2.96,2.84,2.13,0,3.08-.95,2.96-2.96-.24-2.13-2.61-3.08-5.33-3.08s-5.81,1.54-7.23,4.03c-1.07,1.9-1.3,3.91-1.07,5.57-.36-.24-.59-.47-.95-.71-3.79-2.96-7.94-6.4-13.27-8.53-3.91-1.54-9.72-3.32-16.59-.71h0c-7.23,2.73-12.21,5.33-15.05-1.3,0-.12-.24-.24-.47-.24-.83.24-1.3.71-1.78,1.54-2.61-.95-5.45,0-6.04.24v.12c.24.47,1.3,2.73,3.44,3.91-.83.83-1.19,2.37-1.19,3.67,0,.24.24.36.47.24,5.1-2.84,9.36-3.08,10.9-3.08s1.42,0,2.25-.12c-2.49,2.13-6.4,4.86-10.79,6.99-4.5,1.78-8.06,2.61-10.9,1.42-1.78-.83-2.73-3.32-3.08-4.62,0-.24-.36-.24-.59,0-.71,1.3-2.25,4.74,0,7.35h-.36c-1.78,0-3.56-.71-5.22-1.54-3.32-3.32-4.15-6.28-2.96-8.42.83-1.54,2.37-2.61,3.91-2.61-.36,1.42.83,2.96,2.96,2.84s3.08-.95,2.96-2.96c-.24-2.13-2.61-3.08-5.33-3.08s-5.81,1.54-7.23,4.03c-1.07,1.9-1.3,3.91-1.07,5.57-.36-.24-.59-.47-.95-.71-3.79-2.96-7.94-6.4-13.27-8.53-3.91-1.54-9.72-3.32-16.59-.71h0c-7.23,2.73-12.21,5.33-15.05-1.3,0-.12-.24-.24-.47-.24-.83.24-1.3.71-1.78,1.54-2.61-.95-5.45,0-6.04.24v.12c.24.47,1.3,2.73,3.44,3.91-.83.83-1.19,2.37-1.19,3.67,0,.24.24.36.47.24,5.1-2.84,9.36-3.08,10.9-3.08s1.42,0,2.25-.12c-2.49,2.13-6.4,4.86-10.79,6.99-4.5,1.78-8.06,2.61-10.9,1.42-1.78-.83-2.73-3.32-3.08-4.62,0-.24-.36-.24-.59,0-.71,1.3-2.25,4.74,0,7.35h-.36c-1.42,0-2.84-.47-4.27-1.07v3.32c1.3.47,2.61.83,4.03.83h1.07c8.65,0,19.08-5.81,25.25-10.67-.24,2.73.83,5.33,2.73,6.76,2.84,2.13,5.22,1.9,6.87,1.42s2.96-1.54,2.96-3.2c0-1.42-1.07-2.49-2.84-2.25-1.19.24-2.49,1.19-2.49,3.2-4.15-.59-3.91-4.39-3.67-6.04.36-2.49,1.9-4.5,4.86-5.57,2.01-.71,3.79-1.07,5.57-1.19-3.32,2.37-2.13,5.81-1.42,7.35,0,.24.47.12.47,0,.12-1.19.83-3.2,2.61-4.15,2.49-1.3,5.81-1.42,10.07.24,3.56,1.9,6.52,4.27,9.48,6.64.36.24.59.47.95.71-1.19-.24-2.25-.12-3.44-.12s-5.93-.36-9.48-2.49c-.24,0-.47,0-.47.24-.24,1.3-.47,2.61.24,3.44-2.13,1.19-3.56,3.44-3.79,3.91v.12c.59.24,3.08.83,5.69,0,.47.83,1.78,1.66,2.49,1.9.12,0,.36,0,.47-.24,3.08-6.28,8.77-4.62,16.36-1.3.24,0,.47.24.71.36h0c1.54.59,3.08,1.07,4.86,1.07h1.07c8.65,0,19.08-5.81,25.25-10.67-.24,2.73.83,5.33,2.73,6.76,2.84,2.13,5.22,1.9,6.87,1.42,1.66-.47,2.96-1.54,2.96-3.2,0-1.42-1.07-2.49-2.84-2.25-1.19.24-2.49,1.19-2.49,3.2-4.15-.59-3.91-4.39-3.67-6.04.36-2.49,1.9-4.5,4.86-5.57,2.01-.71,3.79-1.07,5.57-1.19-3.32,2.37-2.13,5.81-1.42,7.35,0,.24.47.12.47,0,.12-1.19.71-3.2,2.61-4.15,2.49-1.3,5.81-1.42,10.07.24,3.56,1.9,6.52,4.27,9.48,6.64.36.24.59.47.95.71-1.19-.24-2.25-.12-3.44-.12s-5.93-.36-9.48-2.49c-.24,0-.47,0-.47.24-.24,1.3-.47,2.61.24,3.44-2.13,1.19-3.56,3.44-3.79,3.91v.12c.59.24,3.08.83,5.69,0,.47.83,1.78,1.66,2.49,1.9.12,0,.36,0,.47-.24,3.08-6.28,8.77-4.62,16.36-1.3.24,0,.47.24.71.36h0c1.54.59,3.08,1.07,4.86,1.07h1.07c6.87,0,14.82-3.67,20.98-7.59v-3.67h0l-.12-.36Z"/>
      </g>
      <rect class="cls-1" x="795.85" y="103.59" width="178.38" height="4.98"/>
    </g>
    <path class="cls-2" d="M814.46,97.43c.95-34.61,13.87-42.08,41.48-57.84l29.16-18.25h0l29.16,18.25c27.5,15.76,40.42,23.23,41.48,57.84h18.49v-7.11c-2.84-37.81-17.78-46.22-40.77-60.68L885.22,0l-48.24,29.63c-23.11,14.46-38.05,22.88-40.77,60.68v7.11h18.37-.12Z"/>
  </g>
</svg>