<?xml version="1.0" encoding="UTF-8"?>
<svg id="Layer_1" data-name="Layer 1" xmlns="http://www.w3.org/2000/svg" viewBox="0 0 301.33 357.35">
  <defs>
    <style>
      .cls-1 {
        fill: #02492e;
      }
    </style>
  </defs>
  <path class="cls-1" d="M179.12,94.69c-.9-.38-6.52-2.1-6.52-2.49,10.12-5.08,19.32-16.11,13.59-27.9-5.95-12.23-23.55-12.79-35.22-12.7-9.34.08-18.61.13-27.96,0-1.73-.02-9.53-.32-10.29.94-1.36,2.24,3.28,1.78,4.06,1.87,4.46.52,7.13.84,7.9,5.79.74,4.81.22,10.31.34,15.21.4,17.17.6,35.05.02,52.24-.1,3.06-.23,7.26-.67,10.21-.52,3.45-1.16,5.31-4.86,6.02-.81.15-7.62.25-5.28,2.49,1.06,1.02,7.07.74,8.79.71,4.26-.07,8.49-.39,12.74-.33,13.36.19,28.02,2.43,40.82-2.09,25.22-8.9,27.89-39.17,2.56-49.99ZM147.8,59.78c.8-.85,4.19-1.07,5.38-1.03,12.59.42,16.61,14.17,14.04,24.64-1.99,8.1-7.28,8.38-14.68,8.02-1.53-.07-3.55-.33-5-.6.16-3.62-.81-29.91.26-31.03ZM154.79,139.22c-3.47-.64-6.01-1.85-6.94-5.5-.08-.33-.45-2.18-.45-2.35v-32.81c3.42-.56,7.51-.29,10.89.46,19.44,4.33,21.87,44.87-3.5,40.19Z"/>
  <path class="cls-1" d="M37.01,305.98l.2-.64c10.8-8.1,5.5-24.99-7.82-26.41H4.04v64.37h25.34c1.74,0,5.44-1.17,7.11-1.91,14.4-6.39,14.88-28.86.51-35.41ZM10.57,285.15h17.57c.3,0,2.72.69,3.17.87,7.52,2.99,6.55,15.95-2.55,16.85-2.9.29-7.21.28-10.24.33-2.65.04-5.33.09-7.95-.33v-17.73ZM34.93,334.85c-1.16.74-4.92,2.23-6.17,2.23H10.57v-27.99h17.88c12.29,0,16.74,19.2,6.48,25.75Z"/>
  <path class="cls-1" d="M110.4,303.5v6.22c-1.34-.37-2.19-1.93-3.27-2.79-10.65-8.54-26.8-3.12-31.4,9.33-6.97,18.87,15.3,36.27,31.22,23.76.52-.41,3.04-3.29,3.45-2.93.08,1.82-.19,3.82-.18,5.58,0,.36.02.4.34.63h5.75v-39.8h-5.91ZM99.13,337.48c-20.33,5.53-25.8-26.38-5.6-28.61,17.5-1.93,22.34,24.06,5.6,28.61Z"/>
  <path class="cls-1" d="M281.74,320.76c0-2.41-2.8-8-4.36-9.94-8.19-10.22-23.22-10.8-31.87-.79-13.91,16.12,2.99,40.2,22.86,32.81,4.53-1.69,9.1-5.73,11.2-10.1h-7.77s-.09.58-.44.94c-8.48,8.51-22.16,4-24.43-7.47h34.83v-5.44ZM247.22,320.6c2.41-15.61,25.19-15.57,27.68,0h-27.68Z"/>
  <path class="cls-1" d="M41.98,203.99v.93c-1.47-.16-2.41,0-3.26,1.25l-.17,39.65c1.09,12.83,16.51,12.32,17.73-.01.46-4.61.5-15.33,0-19.9-.24-2.26-1.58-1.23-2.8-2.64h9.64c.13,1.06-1.1.45-1.86,1.1-.37.31-.55.78-.61,1.25.49,6.58-.76,14.3.06,20.74,1.44,11.37,15.6,12.36,17.88.62.83-4.29.83-15.63.39-20.13-.06-.58-.26-1.78-.6-2.2-.67-.83-2.31-.26-2.2-1.38h9.64c.16.97-.29.48-.77.62-1.12.34-1.78.25-2.01,1.73-1.4,8.92,3.5,23.53-6.14,29.31-6.25,3.75-14.84,2.09-18.6-4.3-4.06,7.2-13.82,8.07-20.05,3.11-1.35,10.43-11.69,15.33-21.23,11.74-11.1-4.18-9.3-17.17-9.26-26.84,0-1.42.88-2.72-.58-4.05-.67-.61-1.3-.55-2.06-.75-.5-.14-.92.33-.76-.62h11.51c.24,1.04-.93.49-1.65.69-.84.23-1.8,1.02-1.79,1.94.9,8.41-3.33,24.37,6.96,28.21,7.95,2.97,14.72-2.41,15.44-10.48,1.3-14.56-.97-30.97.02-45.72-.25-2.59-1.29-2.98-3.75-3.09-.52-.28.03-.78.16-.78h10.73Z"/>
  <polygon class="cls-1" points="134.34 278.93 134.34 318.42 150.98 303.19 158.91 303.19 143.09 318.84 163.57 343.3 155.95 343.3 138.23 323.1 134.34 326.66 134.34 342.84 133.88 343.3 128.43 343.3 128.43 278.93 134.34 278.93"/>
  <path class="cls-1" d="M184.96,302.96c-9,1.01-16.9,9.46-17.65,18.42-1.73,20.72,24.45,31.07,36.99,14.6,11.39-14.95-.97-35.09-19.34-33.02ZM189.82,337.98c-19.43,2.17-22.29-27.12-3.3-29.11,18.95-1.99,21.48,27.08,3.3,29.11Z"/>
  <path class="cls-1" d="M229.03,255.3c3.29-.33,7.54-2.14,7.33-6.07-.26-5-8.22-5.86-11.98-6.07-10.27-.55-21.66-.03-32.06,0-8.03.02-19.36,1.33-26.95-.7-12.33-3.3-11.46-15.51.87-18.55,9.94-2.45,27.82,1.54,35.8-3.38l3.2-2.55c-2.01,6.19-7.3,8.95-13.51,9.34-7.93.5-16.34-.93-24.28-.34-13.51,1.01-10.91,12.91.95,13.38,16.59-.07,33.18.11,49.77.02,5.27-.03,9.44-.77,14.56,1.58,4.12,1.9,6.95,6.1,4.83,10.65-.99,2.14-5.01,4.54-7.27,4.54h-73.86v-1.87h72.61Z"/>
  <path class="cls-1" d="M253.13,203.99v.93c-1.47-.16-2.41,0-3.26,1.25l-.17,39.65c1.01,11.69,14.56,12.94,17.28,1.71.89-3.67.92-17.32.46-21.32-.2-1.75-.8-1.69-2.12-2.25-.46-.19-.84.19-.68-.7h9.64l-2.19,1.39c-.33.47-.5,1.03-.58,1.59-.55,3.92-.4,16.9.37,20.71,2.01,9.93,13.64,11.61,16.94,2.2,1.34-3.82,1.57-18.68.97-22.91-.08-.57-.25-1.12-.58-1.59l-2.19-1.39h9.33c.13,1.06-1.1.45-1.86,1.1-.38.32-.54.78-.61,1.25-1.35,8.61,3.18,22.29-5.02,28.56-6.03,4.61-15.66,3.21-19.41-3.55-6.47,10.4-22.79,7.39-23.8-5.43-.94-11.91,1.19-25.57,0-37.32-.25-2.5-.95-2.93-3.42-3.11-.52-.27.03-.78.16-.78h10.73Z"/>
  <path class="cls-1" d="M297.91,356.05c.07.54-.7.29-1.08.31-3.41.14-6.86-.08-10.28-.01-68.39,1.43-137.07,1.03-205.53.62-26.01-.16-51.97.11-77.91-.76,0-.37,6.59-.12,7.32-.14s1.42-.32,2.15-.34c38.79-.92,77.8-.25,116.64-.28,52.82-.05,106.07-.91,158.9.28.74.02,1.42.31,2.15.34,2.54.08,5.1-.09,7.63,0Z"/>
  <path class="cls-1" d="M147.71,184.71c-.58,2.57-3.22,4.28-5.51,5.21-7.96,3.24-16.23.87-24.34-.23l12.63,3.07c7.15.63,14.29-.9,19.08-6.49-.73,3.15-2.72,5.76-5.31,7.59-5.85,4.12-12.83,4.28-19.67,3.24-9.06-1.38-18.23-6.68-27.26-2.13,1.54-7.68,11.17-11.14,18.19-10.88,10.69.39,22.07,7.37,32.18.62Z"/>
  <path class="cls-1" d="M204,194.97c-9.77-4.79-19.89,1.37-29.73,2.45-8.49.93-19.52-1.61-22.19-10.85,4.48,4.82,10.44,6.63,16.96,6.23l14.45-3.12c-6.77.93-13.07,2.68-19.97,1.47-3.93-.69-8.54-2.54-10.19-6.44.24-.22,2.24,1.26,2.73,1.47,10.22,4.35,21.51-2.61,31.96-2.1,6.53.32,14.74,3.86,16,10.89Z"/>
  <path class="cls-1" d="M226.7,303.5h9.02v5.6h-9.02v33.74l-.47.47h-5.44v-33.74l-.47-.47h-5.75v-5.6h5.75l.47-.47v-15.08c1.93.4,4.26-1.07,5.91.16v15.39Z"/>
  <rect class="cls-1" x="290.61" y="278.93" width="5.75" height="64.37"/>
  <path class="cls-1" d="M126.66,233.91c-5.02-14.89-29.41-14.16-33.83,1.49-5.48,19.41,18.84,28.64,30.94,15.23v6.06c0,1.63-2.79,6.27-4.03,7.48-.66.64-1.72.89-2.19,1.69,5.41-1.37,9.79-6.36,10.27-11.96.43-4.92.36-15.45-1.17-20ZM111.48,255.29c-17.95,1.51-20.32-28.65-3.32-30.38,18.91-1.92,20.54,28.93,3.32,30.38Z"/>
  <path class="cls-1" d="M128.43,28.91l-9.75,3.77c-62.62,27.98-61.48,117.71,0,145.76l10.53,4.09c-29.04-7.2-50.55-30.41-57.22-59.4-9.41-40.9,15.3-84.37,56.44-94.22Z"/>
  <path class="cls-1" d="M173.22,182.22l9.75-3.77c61.56-27.96,62.02-116.52,1.34-145.23l-11.87-4.61c30.64,7.02,53.68,33.77,58.21,64.63,5.86,39.93-18.04,79.02-57.43,88.99Z"/>
  <path class="cls-1" d="M130.92,33.89l-9.75,3.77c-42.21,19.27-57.09,71.64-30.43,110.26,9.81,14.21,23.13,23.57,39.45,28.97.8.27.81.35-.04.35-29.06-7.62-50.62-32.92-54.22-62.71-4.44-36.74,18.82-72.13,55-80.65Z"/>
  <path class="cls-1" d="M172.28,176.93l11.21-4.8c54.13-28.11,54.6-106.43-1.05-133.63l-10.31-4.3c2.54.53,5.2,1.39,7.61,2.34,42.79,16.9,59.3,68.38,35.71,107.84-9.32,15.59-25.58,27.93-43.16,32.55Z"/>
  <polygon class="cls-1" points="64.37 303.5 64.37 343.3 58.62 343.3 58.15 342.84 58.15 303.5 64.37 303.5"/>
  <path class="cls-1" d="M142.58,214.87c.25.06.64.53.16.78-2.04.23-2.87.66-3.11,2.79.74,11.46-.98,24.15-.01,35.46.19,2.23.79,1.8,2.67,2.32.5.14.92-.34.76.62h-11.19c1.28-1.25,3.68-.36,3.43-2.94l-.02-36.39c-.6-1.72-1.86-1.72-3.42-1.87-.52-.28.03-.78.16-.78h10.57Z"/>
  <path class="cls-1" d="M147.09,30.46l-3.57-5.6c-2.02-2.17-4.32-4.04-6.85-5.59-.95-.05-.22.34.06.57,3.05,2.53,8.61,7.23,9.12,11.41.09.77-.81.5-1.32.38-1.76-.43-8.46-6.56-10.52-8.13-3.12-2.38-6.8-4.55-9.84-6.94-.25-.2-.58,0-.39-.7,10-6.49,25.53,2.57,23.32,14.61Z"/>
  <path class="cls-1" d="M177.88,15.86c.17.74-.13.5-.4.69-6.02,4.14-11.65,8.64-17.48,12.98-7.45,5.55-3.73-1.35-.93-4.66,1.57-1.85,3.41-3.2,5.24-4.71.28-.23,1-.61.06-.57-3.14,2.04-6.01,4.32-8.07,7.48-.54.84-.85,1.92-1.35,2.68-.2.3.04.56-.7.4-1.16-8.59,7.14-16.13,15.38-16.49,3.02-.13,5.66.77,8.25,2.19Z"/>
  <path class="cls-1" d="M176.94,167.3l-21.3,15.85c-.3-4.53,4.54-8.55,7.72-11.25.27-.23,1.01-.61.06-.56-2.11,1.26-3.94,2.87-5.61,4.66l-3.88,5.91c-1.34-11.47,13.06-21.32,23.01-14.61Z"/>
  <path class="cls-1" d="M146.79,181.6c-1.55-4.68-5.44-8.04-9.49-10.57-.95-.05-.22.34.06.57,2.89,2.4,7.11,5.83,8.05,9.67.71,2.88-1.41,1.02-2.76.27l-18.25-14.09c7.5-5.67,18.92-.45,22.13,7.71.68,1.73,1.64,5,.26,6.43Z"/>
  <path class="cls-1" d="M151.45,21.45l-.32-12.13-.62,3.58-.32,8.55c-.58.66-2.27-2.62-2.44-3-1.75-3.87-1.79-8.44-.36-12.4.37-1.04,2.79-6.23,3.86-6.04,5.07,5.51,6.47,16.38.19,21.44Z"/>
  <path class="cls-1" d="M150.82,172.89v-10.11c0-.06-.29-1.21-.62-1.09l-.32,11.19c-4.79-3.91-4.71-11.57-2.42-16.88.3-.69,2.37-4.41,3.04-4.12,4.75,4.52,6.5,14.64,2.03,19.76-.41.47-1.02,1.26-1.71,1.24Z"/>
  <path class="cls-1" d="M301.33,191.86c-.16.56-1.53.6-2.01.63-3.62.25-7.58.24-11.19.31-21.06.41-42.1.17-63.13-.34-1.11-.03-11.37.29-11.37-.45,2.83-.36,5.72-.06,8.57-.14,6.77-.19,13.72-.57,20.5-.65,19.58-.24,39.1.38,58.63.64Z"/>
  <path class="cls-1" d="M88.01,191.86c-.16.56-1.53.6-2.01.63-9.94.69-20.78.19-30.81.29-14.42.14-28.78.04-43.2-.31-1.1-.03-11.98.23-11.99-.45,2.93-.35,5.93-.07,8.88-.14,6.98-.18,14.13-.57,21.12-.65,19.37-.22,38.66.38,58.01.64Z"/>
  <path class="cls-1" d="M148.33,213.94c-4.42-.24-9.15.32-13.54.01-3.18-.22-5.98-.81-6.36-4.52-.97-9.38,11.94-5.89,17.24-6.71.93-.14,1.59-.77,2.35-1.22-2.34,6.91-11.75,2.1-16.5,3.56-3.41,1.05-2.46,7,.93,7.81l15.1.14.78.93Z"/>
  <path class="cls-1" d="M60.88,287.08c4.85-.71,7.1,6.11,2.47,8.39-6.04,2.98-9.09-7.43-2.47-8.39Z"/>
  <path class="cls-1" d="M62.12,260.03c4.77-.78,5.57,5.97,1.4,6.7-4.87.86-5.53-6.03-1.4-6.7Z"/>
  <path class="cls-1" d="M57.12,265.76c-3.16,3.32-8.26-1.51-5-4.85,2.99-3.06,8.14,1.56,5,4.85Z"/>
  <path class="cls-1" d="M272.95,260.03c5.2-1.15,6.15,6.83.86,6.8-4.07-.02-4.13-6.08-.86-6.8Z"/>
  <path class="cls-1" d="M290.36,260.03c5.52-1.26,5.85,7.16.87,6.79-4.1-.3-4.11-6.05-.87-6.79Z"/>
  <path class="cls-1" d="M84.51,211.52c4.61-.76,5.7,6.12,1.14,6.76s-5.37-6.06-1.14-6.76Z"/>
  <path class="cls-1" d="M264.86,260.03c4.74-1.07,6.02,5.83,1.73,6.71-4.69.96-5.54-5.84-1.73-6.71Z"/>
  <path class="cls-1" d="M76.42,211.52c5.41-.9,5,8.84-.98,6.43-2.98-1.2-2.11-5.92.98-6.43Z"/>
  <path class="cls-1" d="M151.98,184.61c-2.09,1.72-4.59-1.91-1.76-3.18,1.42-.63,3.43,1.81,1.76,3.18Z"/>
  <path class="cls-1" d="M150.71,25.2c1.35.33,1.41,1.8.23,2.45-1.35-.33-1.41-1.8-.23-2.45Z"/>
  <path class="cls-1" d="M151.13,179.1c-2.23-.2-1.1-3.85.29-1.98.66.81-.13,1.21-.29,1.98Z"/>
</svg>