<?xml version="1.0" encoding="UTF-8"?>
<svg id="Layer_1" data-name="Layer 1" xmlns="http://www.w3.org/2000/svg" viewBox="0 0 459.47 433.64">
  <defs>
    <style>
      .cls-1 {
        fill: #02492e;
      }
    </style>
  </defs>
  <g>
    <g>
      <path class="cls-1" d="M194.47,233.21l-.75,3.05-7.15,1.81c-.21.21-.45.45-.72.75-.28.3-.54.61-.78.95-.24.34-.44.71-.62,1.12s-.26.84-.26,1.28c0,.88.39,1.56,1.19,2.03.8.47,1.74.71,2.82.71.56,0,1.11-.06,1.65-.18.54-.12,1.07-.27,1.57-.44.5-.18.98-.4,1.43-.69.45-.28.89-.57,1.3-.86l.75,1.06c-.36.5-.8,1.01-1.32,1.52-.53.51-1.12.97-1.77,1.37-.65.39-1.35.72-2.12.97-.76.25-1.54.38-2.34.38-1.47,0-2.71-.46-3.73-1.39-1.02-.93-1.52-2.27-1.52-4.03,0-1,.18-1.89.55-2.67.37-.78.85-1.46,1.46-2.05.6-.59,1.28-1.08,2.03-1.47.75-.4,1.49-.73,2.22-.99l6.09-2.21ZM183.57,226.42l2.03,2.03h.31l2.03-2.03-2.03-2.07h-.31l-2.03,2.07ZM187.99,226.42l2.07,2.03h.26l2.03-2.03-2.03-2.07h-.26l-2.07,2.07ZM195.57,230.74v12.26c0,.71.17,1.25.51,1.63.33.38.8.66,1.39.84v2.07l-2.29.04c-.74-.44-1.25-1.05-1.55-1.83-.29-.78-.44-1.76-.44-2.94v-8.43c0-.62,0-1.2.02-1.74.02-.54.07-1.13.15-1.74l2.21-.18Z"/>
      <path class="cls-1" d="M197.47,245.48c2.03.62,4.23.99,6.6,1.12,2.37.13,4.69.14,6.97.02,2.28-.12,4.39-.31,6.33-.6,1.94-.28,3.47-.52,4.59-.72h2.03v1.72c-.88.47-2.07.91-3.57,1.32-1.5.41-3.15.74-4.94.99-1.8.25-3.68.41-5.67.49-1.98.07-3.9.05-5.73-.07s-3.54-.35-5.1-.71c-1.56-.35-2.82-.84-3.79-1.45v-2.12h2.29Z"/>
      <path class="cls-1" d="M235.63,244.42h-2.03c-.94,0-1.76-.17-2.47-.51-.71-.33-1.36-.76-1.96-1.28-.6-.51-1.18-1.06-1.74-1.63-.56-.57-1.14-1.12-1.76-1.63s-1.3-.94-2.05-1.28-1.62-.51-2.62-.51c-.5,0-.99.04-1.48.11s-.87.15-1.17.24l-.27-2.65c.33-.15.74-.32,1.23-.51.5-.19,1.17-.29,1.99-.29,1.03,0,1.94.18,2.73.53.79.36,1.53.81,2.2,1.37.68.56,1.3,1.17,1.88,1.81.57.65,1.16,1.25,1.77,1.81.6.56,1.25,1.02,1.94,1.39.69.37,1.45.55,2.28.55h1.54l.22.22-.22,2.25ZM221.95,247.02v-1.72c.76-.15,1.53-.34,2.29-.57.77-.24,1.55-.51,2.36-.82.81-.31,1.62-.62,2.43-.95.81-.32,1.58-.66,2.31-1.02l2.87,2.47c-.94,0-1.86.06-2.76.18-.9.12-1.78.3-2.64.53-.87.24-1.71.52-2.52.84-.81.33-1.58.68-2.32,1.06h-2.03Z"/>
      <path class="cls-1" d="M240.83,225.01c.15.97.24,1.92.29,2.85.04.93.06,1.84.06,2.76v12.48c0,.62.09,1.1.27,1.43.18.34.42.6.75.78.33.18.69.29,1.1.35.41.06.87.09,1.37.09v2.65l-.97.44c-1.94,0-3.26-.49-3.95-1.48-.69-.99-1.04-2.27-1.04-3.86v-12.71c0-.94-.02-1.85-.06-2.73-.05-.88-.11-1.81-.2-2.78l2.38-.27Z"/>
      <path class="cls-1" d="M243.7,246.44l.97-.71c.77,0,1.59-.11,2.47-.33.88-.22,1.63-.58,2.25-1.08l.44,1.23c-.36.47-.73.9-1.13,1.3-.39.4-.84.74-1.35,1.04-.5.3-1.05.52-1.65.68-.6.16-1.27.24-2.01.24v-2.38ZM245.59,254.03l2.03,2.03h.31l2.03-2.03-2.03-2.07h-.31l-2.03,2.07ZM251.5,242.96c0,.65.09,1.15.27,1.52.18.37.42.65.75.84.32.19.7.31,1.12.35s.92.06,1.48.06v2.65l-.97.44c-1.59,0-2.84-.44-3.77-1.32-.93-.88-1.39-2.2-1.39-3.97v-2.65c0-.29,0-.58.02-.86.02-.28.03-.57.05-.88.01-.31.03-.61.06-.9l2.16-.18.22.22v4.68ZM250,254.03l2.03,2.03h.31l2.03-2.03-2.03-2.07h-.31l-2.03,2.07Z"/>
      <path class="cls-1" d="M262.44,241.15c-.27.68-.51,1.29-.73,1.85-.22.56-.49,1.11-.81,1.63-.47.91-.96,1.64-1.48,2.19-.51.54-1.05.97-1.61,1.28-.56.31-1.13.51-1.72.6-.59.09-1.23.13-1.94.13v-2.29l.97-.8c.8,0,1.38-.03,1.77-.09.38-.06.71-.18.97-.35l2.64-4.9.31-.09,1.63.84ZM271.49,240.44l-1.28,4.32c-.33,1.26-.9,2.26-1.72,2.98s-1.89,1.08-3.22,1.08c-.74,0-1.4-.09-1.98-.27-.59-.18-1.12-.41-1.59-.7-.47-.3-.88-.64-1.23-1.04-.35-.4-.66-.79-.93-1.17l1.01-1.28c.18.12.44.26.78.42.33.16.71.31,1.12.44.41.13.84.25,1.28.35.44.11.87.15,1.28.15.59,0,1.1-.03,1.52-.11.43-.07.74-.14.95-.2l1.72-5.38.31-.13,1.98.53ZM277,237c.12.83.21,1.65.27,2.49.06.84.09,1.65.09,2.45v2.38c0,.71-.11,1.34-.33,1.9-.22.56-.51,1.03-.88,1.41s-.82.68-1.37.88-1.13.31-1.74.31c-.73,0-1.36-.12-1.87-.35s-.96-.53-1.32-.88c-.37-.36-.68-.76-.93-1.21-.25-.46-.46-.87-.64-1.26l.79-.97c.41.44.87.81,1.39,1.12s1.26.46,2.23.46c.24,0,.53-.02.88-.06s.79-.15,1.32-.33v-3.4c0-.79-.02-1.56-.07-2.29-.04-.73-.11-1.51-.2-2.34l2.38-.31Z"/>
    </g>
    <g>
      <path class="cls-1" d="M175.94,274.63h-7.92v-3.21h19.65v3.21h-7.91v20.46h-3.82v-20.46Z"/>
      <path class="cls-1" d="M184.83,285.79c0-6.32,4.13-9.84,9.33-9.84s9.33,3.52,9.33,9.84-4.16,9.84-9.33,9.84-9.33-3.51-9.33-9.84ZM194.16,292.62c3.15,0,5.48-2.33,5.48-6.83s-2.33-6.83-5.48-6.83-5.48,2.34-5.48,6.83,2.34,6.83,5.48,6.83Z"/>
      <path class="cls-1" d="M206.61,287.88v-11.4h3.65v11.02c0,3.69,1.59,5.04,3.86,5.04,2.47,0,4.7-1.59,4.7-5.71v-10.35h3.65v18.6h-3.59v-3.18h-.06c-1.08,2.47-3.18,3.72-5.82,3.72-3.92,0-6.39-2.7-6.39-7.74Z"/>
      <path class="cls-1" d="M227.11,276.49h3.58v3.08h.07c.91-1.89,1.99-3.08,4.7-3.08h1.83v3.08h-2.4c-2.84,0-4.12,1.62-4.12,4.94v10.59h-3.65v-18.6Z"/>
      <path class="cls-1" d="M239.52,269.65h3.72v3.62h-3.72v-3.62ZM239.55,276.49h3.65v18.6h-3.65v-18.6Z"/>
      <path class="cls-1" d="M246.65,292.01h8.01c1.92,0,3.18-.91,3.18-2.5s-1.25-2.54-3.18-2.54h-2.5c-3.38,0-5.79-2.06-5.79-5.17s2.3-5.31,6.66-5.31h8.25v3.08h-8.28c-1.79,0-2.88.75-2.88,2.2s1.08,2.2,2.88,2.2h2.61c3.78,0,6.09,2.37,6.09,5.41s-2.54,5.72-6.93,5.72h-8.11v-3.08Z"/>
      <path class="cls-1" d="M264.78,276.49h3.58v3.01h.07c.95-1.86,2.7-3.55,5.55-3.55,2.67,0,4.67,1.49,5.48,4.02h.07c1.02-2.4,3.01-4.02,5.88-4.02,3.72,0,6.05,2.74,6.05,7.23v11.91h-3.65v-11.53c0-3.15-1.45-4.53-3.52-4.53-2.33,0-4.33,1.72-4.33,5.28v10.79h-3.65v-11.53c0-3.15-1.45-4.53-3.55-4.53-2.3,0-4.33,1.76-4.33,5.31v10.75h-3.65v-18.6Z"/>
    </g>
  </g>
  <g id="Flight_Takeoff" data-name="Flight Takeoff">
    <g id="Vector">
      <path class="cls-1" d="M257.67,191.71h-59.25v-3h59.25v3ZM211.8,173.97l-17.46-16.54,13.59-4.95,5.42,5.13,7.91-3.45-8.14-11.45,12.91-4.7,14.58,7.7,3.62-1.58c3.72-1.62,7.82-1.64,11.55-.04,3.73,1.6,6.54,4.58,7.93,8.39.46,1.26-.19,2.66-1.45,3.11l-50.45,18.36ZM199.92,158.59l12.6,11.93,48.16-17.53c-1.16-2.77-3.3-4.94-6.09-6.13-2.96-1.27-6.21-1.26-9.17.03l-4.94,2.16-14.68-7.75-7.96,2.9,8,11.25-13.11,5.72-5.51-5.22-7.29,2.65Z"/>
    </g>
  </g>
</svg>