<?xml version="1.0" encoding="UTF-8"?>
<svg id="Layer_1" data-name="Layer 1" xmlns="http://www.w3.org/2000/svg" viewBox="0 0 459.47 433.64">
  <defs>
    <style>
      .cls-1 {
        fill: #02492e;
      }
    </style>
  </defs>
  <g>
    <g>
      <path class="cls-1" d="M193.67,245c-.24.47-.43.97-.59,1.5-.16.53-.24,1.08-.24,1.63,0,1,.32,1.71.95,2.14.63.43,1.57.64,2.8.64.62,0,1.33-.03,2.14-.11.81-.07,1.74-.18,2.8-.33l-.18,1.94c-.32.27-.67.53-1.06.8-.38.26-.79.51-1.23.72-.44.22-.93.39-1.45.51-.53.12-1.08.18-1.63.18-1.77,0-3.15-.51-4.17-1.52-1.02-1.02-1.52-2.52-1.52-4.52,0-1.12.15-2.13.46-3.02.31-.9.75-1.68,1.32-2.34.57-.66,1.24-1.17,2.01-1.52s1.6-.53,2.52-.53c1,0,1.9.18,2.71.53.81.35,1.5.9,2.07,1.63.57.74,1.01,1.66,1.32,2.78.31,1.12.46,2.44.46,3.97v4.23c0,1.29-.28,2.43-.84,3.42-.56.98-1.34,1.81-2.34,2.49-1,.68-2.18,1.19-3.55,1.54-1.37.36-2.85.53-4.44.53-1.74,0-3.26-.19-4.56-.57-1.31-.38-2.41-.93-3.31-1.65-.9-.72-1.57-1.61-2.03-2.67-.46-1.06-.69-2.26-.69-3.62,0-.88.05-1.81.15-2.8.1-.99.27-1.92.51-2.8l2.74.27c-.12.79-.21,1.54-.29,2.23-.08.69-.11,1.42-.11,2.18,0,1.77.65,3.12,1.94,4.08,1.29.96,3.25,1.44,5.87,1.44.85,0,1.66-.02,2.43-.07.76-.04,1.48-.13,2.16-.26s1.32-.3,1.92-.51,1.17-.45,1.7-.75v-4.94c0-1.18-.08-2.19-.24-3.05-.16-.85-.42-1.56-.77-2.12-.36-.56-.8-.98-1.35-1.26-.54-.28-1.19-.42-1.92-.42h-2.47ZM191.96,235.56l2.16,2.12h.31l2.16-2.12-2.16-2.2h-.31l-2.16,2.2ZM196.41,235.56l2.16,2.12h.31l2.16-2.12-2.16-2.2h-.31l-2.16,2.2Z"/>
      <path class="cls-1" d="M210.79,240.57c.47.16.88.33,1.23.51l.88.48c1.53.8,2.67,1.86,3.42,3.2.75,1.34,1.12,2.97,1.12,4.88v1.19c0,.79-.08,1.5-.24,2.12-.16.62-.43,1.13-.81,1.54-.38.41-.9.72-1.56.9-.66.19-1.48.29-2.45.29h-2.56c-.73,0-1.46-.04-2.18-.11-.72-.07-1.47-.18-2.23-.33l.27-3.44h9.18c0-.68-.04-1.35-.11-2.03-.07-.68-.24-1.32-.48-1.94-.25-.62-.62-1.2-1.1-1.74-.49-.54-1.16-1.04-2.01-1.48l-.66-.35c-.36-.18-.72-.34-1.08-.48-.37-.15-.78-.31-1.21-.48l1.23-3.13c.44.12.9.26,1.37.42Z"/>
      <path class="cls-1" d="M223.06,254.08c-.82-.56-1.34-1.26-1.54-2.09-.21-.84-.31-1.7-.31-2.58v-11.86c0-.91-.02-1.78-.07-2.61-.04-.82-.09-1.69-.15-2.6l3.05-.4c.12.94.2,1.86.26,2.76.06.9.09,1.79.09,2.67v11.87c0,.8.18,1.35.55,1.68.36.33.78.56,1.26.71v2.47h-3.13Z"/>
      <path class="cls-1" d="M226.19,251.61c1.47.44,3.09.77,4.87.99,1.78.22,3.6.35,5.47.39,1.86.05,3.73.02,5.6-.06,1.87-.09,3.63-.21,5.27-.36,1.65-.15,3.14-.32,4.48-.53,1.34-.21,2.43-.4,3.29-.57l2.55.31v1.86c-.91.56-2.25,1.06-4.01,1.52-1.77.45-3.76.83-5.98,1.12s-4.55.49-6.99.6c-2.44.1-4.8.07-7.06-.09-2.27-.16-4.33-.46-6.2-.9-1.87-.44-3.33-1.04-4.39-1.81v-1.94l3.09-.53Z"/>
      <path class="cls-1" d="M255.17,253.65v-2.16c.65-.12,1.27-.27,1.87-.44.6-.18,1.11-.36,1.53-.57l.93,1.77c-.24.27-.49.51-.75.75-.27.24-.59.46-.97.66h-2.6ZM256.76,238.82l2.34,2.34h.27l2.34-2.34-2.34-2.34h-.27l-2.34,2.34ZM260.81,249.15c0,.65.09,1.14.27,1.5.18.35.43.62.75.79.33.18.69.28,1.11.31.41.03.87.04,1.37.04v3.44l-1.06.44c-1.71,0-3.06-.45-4.06-1.37-1-.91-1.5-2.31-1.5-4.19v-2.47c0-.3,0-.6.02-.9.01-.31.03-.63.04-.95.02-.32.04-.62.07-.88l2.78-.27.22.22v4.28Z"/>
      <path class="cls-1" d="M268.36,255.67h-5.12v-3.09l1.06-.79h4.06v3.88ZM273.96,237.12c.79.34,1.49.88,2.1,1.63.6.75,1.09,1.74,1.46,2.95.36,1.22.55,2.73.55,4.52v3.27c0,1.29-.21,2.34-.62,3.15-.41.81-.99,1.43-1.72,1.87-.74.44-1.63.75-2.69.9-1.06.16-2.22.24-3.48.24h-2.38v-3.88h2.91c1.12,0,2.16-.05,3.11-.15.96-.1,1.68-.23,2.19-.37v-4.54c0-1.89-.33-3.4-.99-4.55-.66-1.14-1.73-1.72-3.2-1.72h-2.56c-.33.53-.54,1.04-.66,1.52-.12.48-.18.93-.18,1.35,0,.38.05.75.15,1.1.1.36.3.66.57.9.28.25.66.46,1.15.62.48.16,1.09.24,1.83.24.29,0,.65-.01,1.06-.04.41-.03.84-.07,1.3-.11.46-.04.9-.09,1.32-.15.43-.06.8-.12,1.13-.18l-.13,1.72c-.33.24-.69.47-1.1.71-.42.24-.85.43-1.3.6-.46.16-.94.3-1.46.39-.51.11-1.05.16-1.61.16-1.68,0-3-.49-3.97-1.46-.97-.97-1.46-2.38-1.46-4.23,0-1,.14-1.93.42-2.78.28-.85.69-1.59,1.23-2.23.54-.63,1.21-1.11,1.99-1.45.78-.34,1.65-.51,2.62-.51.82,0,1.63.17,2.43.51ZM268.8,230.8l2.34,2.34h.31l2.34-2.34-2.34-2.34h-.31l-2.34,2.34Z"/>
    </g>
    <g>
      <path class="cls-1" d="M180.23,278.26h3.82v10.18h11.06v-10.18h3.82v23.67h-3.82v-10.28h-11.06v10.28h-3.82v-23.67Z"/>
      <path class="cls-1" d="M202.24,292.63c0-6.32,4.13-9.84,9.33-9.84s9.33,3.52,9.33,9.84-4.16,9.84-9.33,9.84-9.33-3.51-9.33-9.84ZM211.58,299.46c3.15,0,5.48-2.33,5.48-6.83s-2.33-6.83-5.48-6.83-5.48,2.34-5.48,6.83,2.34,6.83,5.48,6.83Z"/>
      <path class="cls-1" d="M225.37,296.96v-10.55h-3.65v-3.08h3.65v-5.07h3.66v5.07h5.78v3.08h-5.78v10.25c0,1.59.81,2.2,2.23,2.2h3.69v3.08h-4.56c-3.28,0-5.01-1.66-5.01-4.97Z"/>
      <path class="cls-1" d="M235.96,292.63c0-6.09,3.75-9.84,9.13-9.84,5.07,0,8.9,3.24,8.9,9v1.96h-14.14c.17,3.32,2.13,5.72,5.31,5.72,2.34,0,4.09-1.25,4.77-3.25h3.85c-.81,3.69-4.12,6.26-8.66,6.26-5.48,0-9.16-3.79-9.16-9.84ZM250.23,290.91c0-3.01-1.86-5.11-5.04-5.11s-4.97,2.23-5.31,5.11h10.35Z"/>
      <path class="cls-1" d="M257.1,275.52h3.65v26.41h-3.65v-26.41Z"/>
      <path class="cls-1" d="M264.2,298.85h8.01c1.92,0,3.18-.91,3.18-2.5s-1.25-2.54-3.18-2.54h-2.5c-3.38,0-5.79-2.06-5.79-5.17s2.3-5.31,6.66-5.31h8.25v3.08h-8.28c-1.79,0-2.88.75-2.88,2.2s1.08,2.2,2.88,2.2h2.61c3.78,0,6.09,2.37,6.09,5.41s-2.54,5.72-6.93,5.72h-8.11v-3.08Z"/>
    </g>
  </g>
  <g>
    <path class="cls-1" d="M244.32,201.12h-46.95v-69.95l46.95,9.59v60.36ZM200.37,198.13h40.96v-54.91l-40.96-8.37v63.28Z"/>
    <polygon class="cls-1" points="262.1 201.12 242.83 201.12 242.83 198.13 259.11 198.13 259.11 167.82 242.83 167.82 242.83 164.82 262.1 164.82 262.1 201.12"/>
    <g>
      <rect class="cls-1" x="206.48" y="157.7" width="12.39" height="3"/>
      <rect class="cls-1" x="223.85" y="157.7" width="12.39" height="3"/>
    </g>
    <g>
      <rect class="cls-1" x="206.48" y="168.67" width="12.39" height="3"/>
      <rect class="cls-1" x="223.85" y="168.67" width="12.39" height="3"/>
    </g>
    <g>
      <rect class="cls-1" x="206.48" y="179.64" width="12.39" height="3"/>
      <rect class="cls-1" x="223.85" y="179.64" width="12.39" height="3"/>
    </g>
  </g>
</svg>