<?xml version="1.0" encoding="UTF-8"?>
<svg id="Layer_1" data-name="Layer 1" xmlns="http://www.w3.org/2000/svg" viewBox="0 0 860.02 225.57">
  <defs>
    <style>
      .cls-1 {
        fill: #02492e;
      }
    </style>
  </defs>
  <path class="cls-1" d="M225.9,172.17c-.2-3.06-2.83-14.99-2.48-16.45.25-1.03,2.25-.98,2.51-1.95,1.19-4.56-.97-16.87-2.38-21.76-1.2-4.13-3.4-7.77-4.6-11.89,6.43-2.18,7.97-.95,6.88-8.62-1.01-7.12-6.28-14.34-10.34-20.01,1.51-.65,9.79-2.38,10.3-3.17.42-.66.25-9.12-.06-10.54-.73-3.24-7.51-10.01-10.22-12.34-5.23-4.51-11.7-7.15-16.49-11.69,5.64-2.4,21.85-5.16,26-8.27,1.23-.92.89-.94.47-2.15-1.28-3.68-6.23-5.59-9.53-6.96-25.21-10.42-52.77-18.03-79.28-26.96-8.75-2.95-17.39-6.04-25.8-9.42l-2.96.34L.38,37.28c2.97,10.31,17.49,10.44,26.02,13.88C19.46,56.61,1.93,63.61.43,73.32c-.26,1.69-.35,14.38.06,15.01.34.52,5.62,1.44,6.82,1.86-3.21,5.06-9.01,15.75-6.48,21.66.65,1.52,5.28,4.39,5.38,5.64.03.43-2.56,6.34-2.98,8.07-1.3,5.29-4.19,17.26-2.68,22.13.42,1.35,2.25,1.84,2.36,3.57.24,3.7-2.29,13.49-2.53,18.3-.46,9.49-2.05,16.53,7.56,21.05l108.25,34.95,20.48-6.52,89.12-28.36c-.05-6.12.51-12.41.11-18.52ZM214.16,111.82c-2.3-.13-12.59-12.54-16-14.27l15.52-4.7c1.77,4.56,10.19,19.53.47,18.97ZM116.62,20.79l20.05,9.75,42.4,20.6c-5.92-.29-13.7,5.21-19,5.67-3.12.27-13.5-6.64-23.4-13.6-8.19-5.76-16.05-11.54-19.18-13.33-1.82-2.22-.53-6.27-.88-9.09ZM166.41,65.04c5.56.55,18.34,10.05,24.8,11.28,1.05,1.38-16.96,6.47-18.61,6.92l-23.02-12.57c.57-1.24,14.89-5.83,16.83-5.63ZM113.42,124.67l23.25-7.5,34.17-11.03c7.15,4.55,15.69,7.01,22.1,12.66l-56.27,18.09-26.72,8.59c-24.59-8.27-49.84-15.26-74-24.51.04-1.4,22.73-13.22,24.54-13.2l52.93,16.89ZM63.7,86.7l23.46-15.18,4.3.45c.3,1.52-.79,2.14-1.72,3.04-2.4,2.32-14.16,12.11-16.54,12.98-3.64,1.32-5.93-1.14-9.49-1.29ZM176.47,104.07c4.11-.19,14.23-5.61,17.6-5.07,1.43.23,6.98,4.28,8.44,5.48,1.19.98,8.67,8.14,7.79,9.11l-13.24,3.3-20.58-12.83ZM162.87,82.53c1.26.72,2.58,1.45,4.06,1.59.93,1.21-14.81,6.29-16.71,5.89-1.21-.26-8.61-5.82-13.54-10-2.73-2.32-4.71-4.22-4.44-4.56,1-.02,2.64-.56,4.44-1.26,3.45-1.32,7.51-3.18,8.88-2.91,1.01.2,14.49,9.64,17.32,11.25ZM136.67,82.78c4.16,3.82,8.74,8.12,10.3,9.13l-10.3,3.17-23.08,7.11c-3.58-1.74-28-7.49-29.08-8.55-.39-.38-.18-2.12,1.1-1.98,3.81-1.2,16.29-15.21,18.37-15.32,2.72-.14,9.24,3.9,12.33,4.05,2.83.14,11.64-4.17,12.75-3.96.77.15,4.03,3.06,7.61,6.34ZM102.73,59.83c.54.54-6.02,11.26-9.54,7.79-.4-.47,8.82-8.51,9.54-7.79ZM96.67,50.73c-2.45,2.24-12.64,11.21-14.81,12.15-2.45,1.06-5.05-1.54-7.75-1.32l32.09-20.8c-2.94,3.48-6.16,6.91-9.53,9.98ZM61.7,56.57c-3.48.87-8.69-3.4-12.75-2.82l60.72-29.48c-15.1,11.96-31.15,22.85-47.97,32.3ZM69.09,65.2c1.86.17,3.93,1.45,5.88,1.57,1.07,1.36-21.82,14.14-24.07,14.58-3.96.76-7.51-2.37-11.49-2.45.71-1.47,3.43-2.54,4.89-3.34,4.21-2.28,21.18-10.7,24.78-10.36ZM45.49,102.34c.37.36.21,2.15-1.12,1.94-4.97.94-18.62,12.49-21.92,12.81-1.09.1-2.76-.31-2.98-1.32-.42-1.93,13.31-13.52,15.85-14.49,2.02-.77,9.19.12,10.17,1.07ZM29.55,125.05l86.62,27.67,3.96-.48,16.55-5.3,66.24-21.2c5.08.52,11.48,16.48,12.39,21.3-.22,1.23-20.39,7.43-23.42,8.43-18.34,6.06-36.77,11.9-55.21,17.7-9.04,2.84-18.08,5.68-27.1,8.52l-96.23-31.23c-1.1-.94.82-5.23,1.36-6.49,3.06-7.11,9.03-13.87,14.86-18.92ZM205.96,124.02c2.06.6,8.1-3.44,9.11-1.76,2.08,3.45,3.05,13.18,3.02,17.36l-12.13-15.6ZM215.49,68.93c-5.77,3.11-12.94,4.55-19.3,6.35l-24.05-11.99c-.26-1.17.9-.98,1.74-1.27,2.92-1.02,16.76-5.75,18.59-5.63,2.14.14,22.99,11.24,23.02,12.55ZM116.62,7.78l20.05,7.05,73.62,25.9-25.16,7.43c-16.76-6.25-32.61-14.29-48.47-22.38-6.21-3.17-12.41-6.34-18.67-9.42-2.56-1.83-1.04-5.79-1.39-8.58ZM116.62,32.93l20.05,13.07,17.24,11.23c.27,1.83.09,1.4-1.09,1.93-1.5.67-11.3,3.87-12.58,4-.61.06-1.97-.71-3.56-1.82-2.94-2.03-6.66-5.17-7.93-6.27-1.64-1.43-11.22-10.72-11.68-11.74-1.25-2.75-.05-7.34-.44-10.39ZM116.62,46.81c5.35,5.66,12.28,10.31,17.76,15.63.85.82,1.64,1.13,1.32,2.58-3.05-.23-6.51,2.48-9.21,2.6-5.69.25-11.17-15.79-9.87-20.81ZM114.49,61.61c.72-.72.8-1.23,2.1-.91l5.22,8.66c-5.16.19-9.69,4.68-14.74,2.6,3.09-2.56,4.94-7.85,7.42-10.35ZM16.86,43.33L109.67,10.38c1.09.99-1.35,2.33-2,2.77-9.41,6.35-28,15.1-38.75,20.24-11.13,5.32-22.8,9.28-33.84,14.78l-18.23-4.84ZM24.4,64.33c2.5-1.46,13.68-7.5,15.66-7.83,3.79-.63,9.41,2.79,13.23,3.33l-27.32,14.39-10.84-3.13c2.51-2.55,6.19-4.96,9.28-6.76ZM18.14,93.92c1.12-.12,3.93,1.93,5.66,1.48l-15.6,17.34c-.3-3.44,7.6-18.56,9.95-18.82ZM218.85,182.88l-82.18,26.69-24.9,8.09-4.75-.36L8.13,185.08c-.3-10.04,1-19.98,2.66-29.83l105.42,33.87,20.47-6.51,80.55-25.63c.84,8.58,2,17.28,1.62,25.9Z"/>
  <path class="cls-1" d="M452.32,78.91h50.31v7.81h-60.29c-.77,0-7.14,5.79-13.84,6.11-8.94.42-15.62-6.11-16.52-6.11h-51.61v12.58c0,.73-10.28,7.75-12.14,8.24V42.47h12.14v36.43h45.97c-2.64-11.72.13-24.56,12.14-29.48-11.76,12.93-3.21,36.37,14.42,38.07,12.97,1.25,17.17-10.03,15.95-21.17-1.44-13.12-16.94-23.71-29.49-17.79,14.64-16.06,38.89-2.68,37.29,17.78-.36,4.62-2.49,8.51-4.33,12.59Z"/>
  <path class="cls-1" d="M323.07,169.99v-42.07c0-1.81,6.36-1.3,7.81-1.3v64.19c-2.61-.25-6.14.78-8.3-.8-11.26-13.27-21.5-27.62-33.09-40.59-.52-.58.07-1.66-1.98-1.11v42.5h-7.81v-53.35c0-.38-4.33-3.35-3.1-5.64.29-.54,9-7.08,9.58-6.94l36.9,45.11Z"/>
  <path class="cls-1" d="M776.74,43.34v33.4c0,.27-1.19,1.23-.87,2.17h72v-35.57h12.14v42.07c0,.09-1.21,1.3-1.3,1.3h-75.47c-.9,0-6.58-5.05-7.85-6.04-1.76-.6-1.14,1.22-2.09,2.13-4.37,4.18-9.53,5.69-15.49,4.18-3.5-.88-9.8-4.11-10.56-8.07.65-.6,10.8,5.86,15.98-2.67.34-.56,2.23-5.27,2.23-5.57v-27.32h11.28Z"/>
  <path class="cls-1" d="M714.29,43.34v43.37h-130.98c-.03-1.18-.3-1.69.57-2.65.31-.34,7.21-5.16,7.67-5.16h111.47v-35.57h11.28Z"/>
  <path class="cls-1" d="M716.89,190.81h-11.28v-29.93c0-1.17-1.9-6.45-2.74-7.67-2.45-3.59-8.06-4.25-11.79-2.52-3.52,1.62-1.08,3.03-1.08,4.13v36h-11.28v-30.79c0-.76-2.09-5.87-2.73-6.81-3.41-4.98-13.75-3.32-13.75-1v38.6h-11.28v-45.97c1.75.3,10.88-.4,11.28,0,.46.46-.7,5.09.42,6.07,6.95-9.19,19.86-10.74,26.03-.01,5.48-6.88,16.83-10.6,23.9-3.93,1.16,1.1,4.3,6.69,4.3,7.85v36Z"/>
  <path class="cls-1" d="M654,42.47c17.67,2.49,20.22,26.69,4.35,33.84.96-5.88,1.99-9.36-.41-15.22-7.01-17.18-37.76-8.91-52.56-10.77-3.99-.5-3.5-4.29-3.46-7.82l17.32-20.05c2.45-1.79,7.8-.38,10.9-.8.39,1.5-.62,1.73-1.29,2.6-4.76,6.2-12.9,11.09-16.92,18.21h42.07Z"/>
  <path class="cls-1" d="M595.45,126.62v38.6c0,2.18,2.83,10.14,4.17,12.31,5.54,8.98,14.66,8.92,23.59,5.48-3,4.35-9.04,8.06-14.31,8.67-34.46,3.95-23.92-42.07-25.59-62.89.74-4.01,8.88-1.5,12.15-2.17Z"/>
  <path class="cls-1" d="M839.2,150.04c-1.31-.29-10.41.2-10.41.87v38.6c0,1.76-10.73,1.98-11.77.49l-.26-68.03c.83-2.51,12.02-1.78,12.02-.12v28.19c2.94-2.75,4.86-3.94,8.67-5.2,1.07,1.39,1.65,3.13,1.73,5.2Z"/>
  <rect class="cls-1" x="504.36" y="120.54" width="11.28" height="70.26"/>
  <path class="cls-1" d="M790.62,183.87c0-.44.87-1.76.86-3,0-4.2.01-8.42,0-12.62h-13.88c3.7-3.22,7.59-7.91,13.02-6.94-.72-12.13-12.45-13.48-21.69-8.68,6.94-10.12,24.4-12.84,31.62-1.69.44.68,2.21,4.38,2.21,4.73v35.13h-11.28c.96-2.18-.86-5.92-.86-6.94Z"/>
  <polygon class="cls-1" points="636.22 126.62 636.22 173.89 624.07 182.13 624.07 126.62 636.22 126.62"/>
  <path class="cls-1" d="M546,42.47v10.41h-26.46c-1.99,0-8.62,2.13-10.59,3.29-8.13,4.79-8.34,12.83-5.47,21-10.55-8.65-10.84-24.71,1.8-31.6,1.38-.75,7.1-3.09,8.18-3.09h32.53Z"/>
  <path class="cls-1" d="M478.34,183c-5.18,8.54-18.51,12.34-26.05,4.8-.85-.85-4.31-6.42-4.31-6.97v-36h11.28v29.93c0,1.11,1.94,4.78,2.74,5.93,4.34,6.21,10.19,4.22,16.34,2.31Z"/>
  <path class="cls-1" d="M376.85,183c-5.3,8.46-17.56,12.1-25.6,5.22-1.06-.91-4.76-6.63-4.76-7.39v-36h11.28v29.93c0,.33,2.13,5.39,2.59,6.08,3.89,5.85,10.9,4.07,16.49,2.16Z"/>
  <path class="cls-1" d="M837.46,144.83c4.97-1.65,8.37-2.11,13.36.08,2.91,1.28,8.32,6.8,8.32,9.89v36c-2.36-.39-9.7.9-10.9-.81-2.87-13.51,5.86-32.27-9.05-39.96-1.2-.62-1.93-1.19-3.47-.87l1.74-4.33Z"/>
  <path class="cls-1" d="M746.38,43.34v32.53c0,.92-2.93,6.42-3.86,7.41-3.2,3.41-9.19,4.83-13.71,4.09-3.73-.61-11.14-4.33-11.91-8.46,5.28,2.3,11.89,3.2,15.47-2.32.67-1.04,2.75-5.95,2.75-6.8v-26.46h11.28Z"/>
  <path class="cls-1" d="M748.12,151.77h-5.21c-1.03,5.65,1.53,35.49-.37,38.22-1.21,1.74-9.3.4-11.77.81v-45.97c5.29.71,13.62-2.88,12.15,5.2.82-.38,1.92-1.15,2.59-1.73,1.85.79,2.71,1.95,2.6,3.47Z"/>
  <path class="cls-1" d="M545.13,144.84c1.16.86-16.03,17.12-16.35,18.77-.44,2.28,15.35,17.91,17.12,21.57-1.73,1.48-8.01,6.87-9.73,6.42-1.52-.4-17.91-21.29-19.54-24.52l18.09-21.81,10.41-.43Z"/>
  <path class="cls-1" d="M478.34,183c0-.58.91-2.23.9-3.84-.06-11.44-.02-22.9-.04-34.33h11.28v45.98h-11.28c.96-2.42-.86-6.49-.86-7.81Z"/>
  <path class="cls-1" d="M376.85,183c0-.58.91-2.23.9-3.84-.06-11.44-.02-22.9-.04-34.33h11.28v45.98h-11.28c.96-2.42-.86-6.49-.86-7.81Z"/>
  <path class="cls-1" d="M409.81,150.04c-4.25,9.59,13.34,11.9,19.41,14.85,12.01,5.84,9.44,16.68-2.05,20.71-.86-1.05,4.6-4.25-2.18-9.54-6.39-4.98-22.92-4.98-23.88-15.18-.46-4.89,3.9-10.27,8.71-10.85Z"/>
  <path class="cls-1" d="M289.24,49.42c-13.64,17.64,1.19,42.97,23.42,37.3-13.76,14.24-35.89,2.51-36.46-16.11-.24-7.83,5.11-18.65,13.04-21.19Z"/>
  <path class="cls-1" d="M316.13,84.11c.9-3.59,3.02-6.05,3.47-9.97,1.99-17.4-10.17-30.44-27.76-26.47,2.21-3.91,7.5-5.69,11.72-6.05,22.7-1.95,32.42,26.98,15.61,40.76-.98.8-1.4,2.11-3.03,1.73Z"/>
  <path class="cls-1" d="M546,78.91v7.81h-34.26c-.51,0-5.2-6.85-6.51-7.81h40.77Z"/>
  <path class="cls-1" d="M790.62,183.87c-15.33,20.88-39.45-6.8-13.88-15.61-3.72,11.06,2.6,18.49,13.88,15.61Z"/>
  <path class="cls-1" d="M830.96,43.36l9.96,9.96-9.21,9.05c-1.49.26-8.18-7.66-9.79-9.16l9.05-9.84Z"/>
  <path class="cls-1" d="M426.29,185.61c-4.42,6.72-15.24,7.71-21.92,4.13-9.18-4.93.71-6.52,4.13-11.06,4.4,4.93,11.15,7.63,17.78,6.93Z"/>
  <path class="cls-1" d="M312.22,14.73l9.09,9.09-9.84,9.05c-1.43-1.52-8.56-7.45-8.3-8.93l9.05-9.21Z"/>
  <path class="cls-1" d="M293.14,14.73l9.09,9.09-9.84,9.05c-1.43-1.52-8.56-7.45-8.3-8.93l9.05-9.21Z"/>
  <path class="cls-1" d="M409.81,150.04c2.66-6.02,12.82-7.16,18.47-5.89.99.22,5.67,3.13,5.82,3.74.3,1.23-7.43,7.1-8.4,7.25-.7.11-6.2-4.37-8.7-4.9-1.9-.4-5.24-.43-7.18-.2Z"/>
  <path class="cls-1" d="M745.51,148.3c4.55-3.96,6.76-6.05,13.36-3.38,10.33,4.17.12,8.33-4.37,11.96-1.59.64-1.21-1.35-2.41-2.54-1.37-1.36-2.59-1.66-3.98-2.56-1.76-1.14-3.26-.53-2.6-3.47Z"/>
  <path class="cls-1" d="M348.22,108.41c-4.28,7.52-15.53,9.67-21.68,3-.18-.86,8.16-8.09,9.11-8.01.46.04,3.97,3.93,6.47,4.59,2.07.55,4,.48,6.1.42Z"/>
  <path class="cls-1" d="M840.54,18.14c-3.92-12.29-19.56,5.01-4.82,8.28l-12.13,6.5c3.41,2.81,16.6-5.38,17.82-7.8.35-.69-.53-5.92-.87-6.98ZM838.33,23.39c-1.91.12-6.57-2.26-6.86-4.03-.4-2.41,3.83-3.81,5.79-1.82,1.2,1.22,1.09,4.2,1.07,5.85Z"/>
  <path class="cls-1" d="M748.56,18.18c-4.1-12.33-19.4,5.05-4.78,8.25l-12.13,6.5c3.41,2.81,16.6-5.38,17.82-7.8.38-.75-.53-5.83-.91-6.95ZM746.37,23.39c-1.95.13-7.86-2.56-6.55-5.2,2.34-4.72,8.21,1.4,6.55,5.2Z"/>
</svg>