<?xml version="1.0" encoding="UTF-8"?>
<svg id="Layer_1" data-name="Layer 1" xmlns="http://www.w3.org/2000/svg" viewBox="0 0 459.47 433.64">
  <defs>
    <style>
      .cls-1 {
        fill: #02492e;
      }
    </style>
  </defs>
  <g>
    <g>
      <path class="cls-1" d="M191.25,246.19c-.12.77-.22,1.52-.31,2.27-.09.75-.13,1.45-.13,2.1,0,2,.57,3.51,1.7,4.54,1.13,1.03,2.73,1.54,4.79,1.54,1,0,1.86-.08,2.58-.24.72-.16,1.35-.36,1.88-.6.53-.24.96-.48,1.3-.75s.63-.53.86-.79l2.52-4.94v2.52c0,1.17-.21,2.25-.64,3.24-.42.99-1.04,1.82-1.83,2.49-.79.67-1.77,1.2-2.93,1.59-1.16.38-2.46.57-3.9.57s-2.7-.18-3.77-.55c-1.08-.37-1.98-.9-2.71-1.61-.74-.71-1.29-1.58-1.65-2.61-.37-1.03-.55-2.19-.55-3.48,0-.88.06-1.79.18-2.73.12-.94.28-1.88.48-2.82l2.16.27ZM206.07,228.23c.15,1,.24,2.01.29,3.02s.07,2.02.07,3.02v17.16l-2.52,3.62v-20.82c0-.97-.02-1.92-.07-2.85-.04-.93-.11-1.89-.2-2.89l2.43-.27ZM206.43,235.86v10.37c0,.83.2,1.41.6,1.74.39.34.81.58,1.26.73v2.12h-2.16c-.91-.56-1.49-1.28-1.72-2.16-.24-.88-.35-1.76-.35-2.64v-10.19l2.38.04Z"/>
      <path class="cls-1" d="M208.28,248.7c1.29.38,2.88.69,4.74.93,1.87.24,3.9.4,6.11.48,2.2.09,4.52.12,6.95.11,2.43-.02,4.82-.07,7.19-.15,2.37-.09,4.67-.2,6.9-.33,2.24-.13,4.26-.27,6.07-.42,1.81-.15,3.36-.3,4.68-.44,1.31-.15,2.21-.27,2.71-.35l2.03.35v1.37c-.65.35-1.75.69-3.31,1.02-1.56.32-3.42.63-5.58.9s-4.54.52-7.12.73c-2.59.2-5.24.35-7.94.44-2.7.09-5.39.11-8.05.07-2.67-.04-5.15-.16-7.46-.35-2.31-.19-4.35-.46-6.13-.82-1.78-.35-3.14-.82-4.08-1.41v-1.46l2.29-.66Z"/>
      <path class="cls-1" d="M250.76,238.6c1.09-1.12,2.63-1.68,4.63-1.68l.84,1.59-.84,1.5c-.74,0-1.38.1-1.92.31-.54.21-.99.46-1.32.77s-.59.67-.75,1.08c-.16.42-.24.84-.24,1.28,0,.65.18,1.29.55,1.92.37.63.87,1.21,1.5,1.74.63.53,1.41.96,2.32,1.3.91.34,1.92.54,3.04.6l-3.44.93c-.74-.21-1.46-.5-2.19-.88-.72-.38-1.36-.86-1.92-1.43-.56-.57-1.02-1.25-1.37-2.03-.36-.78-.53-1.68-.53-2.71,0-1.74.54-3.16,1.63-4.28ZM250.98,231.19l2.03,2.03h.27l2.03-2.03-2.03-2.07h-.27l-2.03,2.07ZM259.38,242.2c-.16-.43-.41-.8-.75-1.11s-.78-.57-1.32-.77c-.54-.21-1.18-.31-1.92-.31l-.84-1.5.84-1.59c1.03,0,1.93.15,2.71.46.78.31,1.44.72,1.98,1.26.54.53.96,1.16,1.23,1.9.28.73.42,1.53.42,2.38,0,1-.18,1.88-.53,2.63-.35.75-.81,1.41-1.37,1.96-.56.56-1.16,1.02-1.81,1.39s-1.26.69-1.85.95l-2.6-1.28c.94-.12,1.79-.34,2.54-.66.75-.32,1.39-.71,1.92-1.17.53-.46.93-.97,1.19-1.55.27-.57.4-1.14.4-1.7,0-.44-.08-.87-.24-1.3ZM263.24,248.96v2.69l-.97.4h-.7c-.97,0-1.81-.04-2.52-.13-.71-.09-1.35-.22-1.92-.4-.57-.18-1.09-.4-1.54-.68-.45-.28-.92-.63-1.39-1.04l1.41-.84h7.63ZM255.39,231.19l2.03,2.03h.31l2.03-2.03-2.03-2.07h-.31l-2.03,2.07Z"/>
      <path class="cls-1" d="M269.73,239.22c.15.85.24,1.67.28,2.45.05.78.07,1.61.07,2.49v2.82c0,.91-.18,1.68-.53,2.32-.35.63-.87,1.15-1.54,1.56s-1.49.72-2.45.9c-.96.19-2.05.29-3.29.29v-2.56l.97-.53c.71,0,1.45-.06,2.23-.18.78-.12,1.48-.28,2.1-.48v-4.54c0-.74-.02-1.45-.06-2.14-.05-.69-.11-1.41-.2-2.14l2.43-.27ZM266.55,233.35l2.12,2.12h.27l2.12-2.12-2.12-2.07h-.27l-2.12,2.07Z"/>
    </g>
    <g>
      <path class="cls-1" d="M119.07,277.85h-7.92v-3.21h19.65v3.21h-7.91v20.46h-3.82v-20.46Z"/>
      <path class="cls-1" d="M130.74,279.71h3.58v3.08h.07c.91-1.89,1.99-3.08,4.7-3.08h1.83v3.08h-2.4c-2.84,0-4.12,1.62-4.12,4.94v10.59h-3.65v-18.6Z"/>
      <path class="cls-1" d="M148.05,298.85c-3.59,0-6.39-2.03-6.39-5.92,0-4.23,3.38-5.85,7.07-5.85h2.98c1.86,0,2.74-.78,2.74-2.13,0-1.86-1.69-2.77-3.86-2.77-2.57,0-4.29,1.29-4.46,3.55h-3.75c.27-3.99,2.88-6.56,8.18-6.56s7.54,2.7,7.54,6.39v8.46c0,.88.34,1.22,1.22,1.22h.78v3.08h-2.44c-1.92,0-3.04-1.05-3.04-2.77v-.88h-.07c-1.18,2.84-3.58,4.19-6.49,4.19ZM149,295.81c2.81,0,5.45-1.83,5.45-5.92v-1.93h-.07c-.61,1.29-1.72,1.89-3.82,1.93l-1.45.03c-2.57.03-3.58,1.35-3.58,2.94s1.01,2.94,3.48,2.94Z"/>
      <path class="cls-1" d="M162.9,279.71h3.58v3.18h.07c1.15-2.34,3.24-3.72,5.95-3.72,3.86,0,6.29,2.7,6.29,7.74v11.4h-3.65v-11.02c0-3.62-1.59-5.04-3.86-5.04-2.4,0-4.73,1.59-4.73,5.71v10.35h-3.65v-18.6Z"/>
      <path class="cls-1" d="M182.01,295.23h8.01c1.92,0,3.18-.91,3.18-2.5s-1.25-2.54-3.18-2.54h-2.5c-3.38,0-5.79-2.06-5.79-5.17s2.3-5.31,6.66-5.31h8.25v3.08h-8.28c-1.79,0-2.88.75-2.88,2.2s1.08,2.2,2.88,2.2h2.61c3.78,0,6.09,2.37,6.09,5.41s-2.54,5.72-6.93,5.72h-8.11v-3.08Z"/>
      <path class="cls-1" d="M200.23,279.71h3.65v1.66c0,.68,0,1.25-.07,1.96h.07c1.15-2.6,3.62-4.16,6.59-4.16,4.36,0,8.49,3.38,8.49,9.84s-4.13,9.84-8.49,9.84c-2.97,0-5.44-1.56-6.59-4.16h-.07c.07.71.07,1.32.07,2.03v8.35h-3.65v-25.36ZM209.46,295.84c3.42,0,5.64-2.74,5.64-6.83s-2.23-6.83-5.64-6.83-5.61,2.74-5.61,6.83,2.23,6.83,5.61,6.83Z"/>
      <path class="cls-1" d="M221.3,289.01c0-6.32,4.13-9.84,9.33-9.84s9.33,3.52,9.33,9.84-4.16,9.84-9.33,9.84-9.33-3.51-9.33-9.84ZM230.64,295.84c3.15,0,5.48-2.33,5.48-6.83s-2.33-6.83-5.48-6.83-5.48,2.34-5.48,6.83,2.34,6.83,5.48,6.83Z"/>
      <path class="cls-1" d="M243.15,279.71h3.58v3.08h.07c.91-1.89,1.99-3.08,4.7-3.08h1.83v3.08h-2.4c-2.84,0-4.12,1.62-4.12,4.94v10.59h-3.65v-18.6Z"/>
      <path class="cls-1" d="M257.93,293.34v-10.55h-3.65v-3.08h3.65v-5.07h3.66v5.07h5.78v3.08h-5.78v10.25c0,1.59.81,2.2,2.23,2.2h3.69v3.08h-4.56c-3.28,0-5.01-1.66-5.01-4.97Z"/>
      <path class="cls-1" d="M275.55,298.85c-3.59,0-6.39-2.03-6.39-5.92,0-4.23,3.38-5.85,7.07-5.85h2.98c1.86,0,2.74-.78,2.74-2.13,0-1.86-1.69-2.77-3.86-2.77-2.57,0-4.29,1.29-4.46,3.55h-3.75c.27-3.99,2.88-6.56,8.18-6.56s7.54,2.7,7.54,6.39v8.46c0,.88.34,1.22,1.22,1.22h.78v3.08h-2.44c-1.92,0-3.04-1.05-3.04-2.77v-.88h-.07c-1.18,2.84-3.58,4.19-6.49,4.19ZM276.49,295.81c2.81,0,5.45-1.83,5.45-5.92v-1.93h-.07c-.61,1.29-1.72,1.89-3.82,1.93l-1.45.03c-2.57.03-3.58,1.35-3.58,2.94s1.01,2.94,3.48,2.94Z"/>
      <path class="cls-1" d="M291.37,293.34v-10.55h-3.65v-3.08h3.65v-5.07h3.66v5.07h5.78v3.08h-5.78v10.25c0,1.59.81,2.2,2.23,2.2h3.69v3.08h-4.56c-3.28,0-5.01-1.66-5.01-4.97Z"/>
      <path class="cls-1" d="M303.68,272.88h3.72v3.62h-3.72v-3.62ZM303.72,279.71h3.65v18.6h-3.65v-18.6Z"/>
      <path class="cls-1" d="M310.58,289.01c0-6.32,4.13-9.84,9.33-9.84s9.33,3.52,9.33,9.84-4.16,9.84-9.33,9.84-9.33-3.51-9.33-9.84ZM319.92,295.84c3.15,0,5.48-2.33,5.48-6.83s-2.33-6.83-5.48-6.83-5.48,2.34-5.48,6.83,2.34,6.83,5.48,6.83Z"/>
      <path class="cls-1" d="M332.43,279.71h3.58v3.18h.07c1.15-2.34,3.24-3.72,5.95-3.72,3.85,0,6.29,2.7,6.29,7.74v11.4h-3.65v-11.02c0-3.62-1.59-5.04-3.86-5.04-2.4,0-4.73,1.59-4.73,5.71v10.35h-3.65v-18.6Z"/>
    </g>
  </g>
  <g>
    <g>
      <path class="cls-1" d="M239.37,184.95c-2.66,0-4.82-2.16-4.82-4.82s2.16-4.82,4.82-4.82,4.82,2.16,4.82,4.82-2.16,4.82-4.82,4.82ZM239.37,178.32c-1,0-1.82.82-1.82,1.82s.82,1.82,1.82,1.82,1.82-.82,1.82-1.82-.82-1.82-1.82-1.82Z"/>
      <path class="cls-1" d="M220.11,184.95c-2.66,0-4.82-2.16-4.82-4.82s2.16-4.82,4.82-4.82,4.82,2.16,4.82,4.82-2.16,4.82-4.82,4.82ZM220.11,178.32c-1,0-1.82.82-1.82,1.82s.82,1.82,1.82,1.82,1.82-.82,1.82-1.82-.82-1.82-1.82-1.82Z"/>
    </g>
    <g>
      <path class="cls-1" d="M254.85,195.06h-50.11v-29.08h50.11v29.08ZM207.73,192.06h44.11v-23.09h-44.11v23.09Z"/>
      <path class="cls-1" d="M254.85,168.98h-50.11v-40.41h50.11v40.41ZM207.73,165.98h44.11v-34.41h-44.11v34.41Z"/>
      <polygon class="cls-1" points="260.56 157.11 257.56 157.11 257.56 149.04 252.29 143.76 254.41 141.64 260.56 147.8 260.56 157.11"/>
      <polygon class="cls-1" points="201.91 157.11 198.91 157.11 198.91 147.8 205.07 141.64 207.19 143.76 201.91 149.04 201.91 157.11"/>
      <path class="cls-1" d="M249.65,168.98h-18.59v-11.12c0-1.24,1.01-2.25,2.25-2.25h14.1c1.24,0,2.25,1.01,2.25,2.25v11.12ZM234.05,165.98h12.6v-7.37h-12.6v7.37Z"/>
    </g>
    <g>
      <path class="cls-1" d="M247.53,201.22h-10.68v-9.16h10.68v9.16ZM239.84,198.23h4.69v-3.16h-4.69v3.16Z"/>
      <path class="cls-1" d="M222.63,201.22h-10.68v-9.16h10.68v9.16ZM214.94,198.23h4.69v-3.16h-4.69v3.16Z"/>
    </g>
  </g>
</svg>